<?xml version="1.0" encoding="utf-8"?>
<!-- Generator: Adobe Illustrator 26.0.2, SVG Export Plug-In . SVG Version: 6.00 Build 0)  -->
<svg version="1.1" id="圖層_1" xmlns="http://www.w3.org/2000/svg" xmlns:xlink="http://www.w3.org/1999/xlink" x="0px" y="0px"
	 viewBox="0 0 88.9 19.5" style="enable-background:new 0 0 88.9 19.5;" xml:space="preserve">
<style type="text/css">
	.st0{fill:#B4B4B4;}
</style>
<g id="圖層_2_00000121262733204089510500000017402335045518047150_">
	<g id="底圖綠鬣蜥">
		<path class="st0" d="M43.5,8.4L43.5,8.4V8.3c0-0.1,0-0.1-0.1-0.1l0,0c0-0.1-0.1-0.1-0.1-0.1s-0.1-0.1-0.1-0.1c0,0-0.1-0.1-0.1-0.1
			c-0.1,0-0.1-0.1-0.1-0.1h-0.6c-0.1,0-0.1,0-0.1,0.1s-0.1,0.1-0.1,0.1l0,0l-0.1,0.1c0,0,0,0.1-0.1,0.1v0.1c0,0.1-0.1,0.1-0.1,0.1
			s0,0.1-0.1,0.1l0,0v0.1c-0.1,0.5-0.4,0.9-0.9,1c-0.1,0-0.2,0.1-0.3,0.1c-0.4,0-0.8-0.2-1-0.5c-0.1-0.2-0.4-0.3-0.6-0.3
			c-0.3,0-0.5,0.1-0.7,0.3l0,0c0,0.1-0.1,0.1-0.1,0.1v0.1l0,0v0.1l0,0v0.1l0,0v0.3l0,0v0.1c0,0,0,0.1,0.1,0.1
			c0.5,0.7,1.4,1.2,2.3,1.2c0.3,0,0.5-0.1,0.7-0.1C42.5,10.5,43.3,9.5,43.5,8.4L43.5,8.4z"/>
		<path class="st0" d="M67.5,7.9c-0.5,0-0.9,0.4-0.9,0.8c0,0.5,0.4,0.9,0.8,0.9c0,0,0,0,0,0c0.5,0,0.9-0.4,0.9-0.8
			C68.3,8.3,68,7.9,67.5,7.9C67.5,7.9,67.5,7.9,67.5,7.9z"/>
		<path class="st0" d="M70.2,7.9c-0.5,0-0.9,0.4-0.9,0.8c0,0.5,0.4,0.9,0.8,0.9c0,0,0,0,0,0c0.5,0,0.9-0.4,0.9-0.8
			C71.1,8.3,70.7,7.9,70.2,7.9C70.2,7.9,70.2,7.9,70.2,7.9z"/>
		<path class="st0" d="M56.8,7.9c-0.1-0.2-0.3-0.3-0.5-0.3L54,7.2c-0.3-0.1-0.5,0-0.6,0.2S53.3,7.7,53.3,8l0.8,2.2
			c0.1,0.3,0.3,0.5,0.5,0.5c0.2,0,0.4-0.1,0.5-0.3l1.5-1.8C56.8,8.3,56.9,8.1,56.8,7.9z"/>
		<path class="st0" d="M24.6,1.5H15c-0.7,0.1-1.3,0.7-1.2,1.4c0.1,0.6,0.6,1.1,1.2,1.2h3.5V14c0,0.7,0.6,1.3,1.3,1.3
			c0.7,0,1.3-0.6,1.3-1.3c0,0,0,0,0,0V4.1h3.5c0.7,0,1.3-0.6,1.3-1.3C26,2.1,25.3,1.5,24.6,1.5z"/>
		<path class="st0" d="M10.9,4.1c0.7-0.1,1.3-0.7,1.2-1.4C12,2,11.5,1.5,10.9,1.4H0v13.3h10.9c0.7-0.1,1.3-0.7,1.2-1.4
			c-0.1-0.6-0.6-1.1-1.2-1.2H2.6V9.3h6c0.7,0,1.3-0.6,1.3-1.3c0-0.7-0.6-1.3-1.3-1.3c0,0,0,0,0,0h-6V4.1H10.9z"/>
		<path class="st0" d="M40.8,2.4c-3.4,0-6.2,2.8-6.2,6.2c0,3.4,2.8,6.2,6.2,6.2c3.4,0,6.2-2.8,6.2-6.2c0,0,0,0,0,0
			C47,5.2,44.3,2.5,40.8,2.4z M40.8,12.5c-2.1,0-3.9-1.7-3.9-3.9s1.7-3.9,3.9-3.9c2.1,0,3.9,1.7,3.9,3.9c0,0,0,0,0,0
			C44.7,10.8,43,12.5,40.8,12.5C40.9,12.5,40.9,12.5,40.8,12.5z"/>
		<path class="st0" d="M75.3,13.9l-0.9-2.5l0.1-0.1c0.4-0.8,0.6-1.8,0.6-2.7c0-3.4-2.8-6.2-6.2-6.2c-3.4,0-6.2,2.8-6.2,6.2
			s2.8,6.2,6.2,6.2c0,0,0,0,0,0c1.1,0,2.2-0.3,3.2-0.9l0.1,0l2.8,0.5c0.1,0,0.2,0.1,0.3,0.1c0.2,0,0.4-0.2,0.4-0.4
			C75.3,14.1,75.3,13.9,75.3,13.9z M68.8,12.5c-2.1,0-3.9-1.7-3.9-3.9s1.7-3.9,3.9-3.9c2.1,0,3.9,1.7,3.9,3.9c0,0,0,0,0,0
			C72.7,10.8,71,12.5,68.8,12.5C68.8,12.5,68.8,12.5,68.8,12.5z"/>
		<path class="st0" d="M59.8,0c-0.7,0-1.3,0.6-1.3,1.3v2.4l-0.3-0.2c-1-0.7-2.2-1-3.3-1c-3.4,0-6.2,2.8-6.2,6.2
			c0,3.4,2.8,6.2,6.2,6.2c1.2,0,2.4-0.4,3.4-1l0.3-0.2v0.3c0.1,0.6,0.6,1.1,1.2,1.1c0.7,0,1.3-0.6,1.3-1.3v0V1.2
			C61.1,0.5,60.5,0,59.8,0z M58.5,9.9c-0.7,2-2.9,3.1-4.9,2.4s-3.1-2.9-2.4-4.9c0.7-2,2.9-3.1,4.9-2.4c1.1,0.4,2,1.3,2.4,2.4
			c0.1,0.4,0.2,0.8,0.2,1.2C58.7,9.1,58.7,9.5,58.5,9.9z"/>
		<path class="st0" d="M30.3,6.2h1.8c0.7-0.1,1.3-0.7,1.2-1.4c-0.1-0.6-0.6-1.1-1.2-1.2h-1.8V2.6c0-0.7-0.6-1.3-1.3-1.3
			c-0.7,0-1.3,0.6-1.3,1.3V10c0,2.2,1.4,4.1,3.4,4.9h0.1c0.1,0.1,0.3,0.1,0.4,0.1c0.7,0,1.3-0.6,1.3-1.3c0-0.6-0.4-1.1-0.9-1.2l0,0
			c-1-0.5-1.7-1.4-1.8-2.5V9.5l0,0L30.3,6.2L30.3,6.2z"/>
		<path class="st0" d="M88.7,4.3c0-0.7-0.6-1.3-1.3-1.3c-0.6,0-1.2,0.4-1.2,1.1v0.2l0,0v4.9c-0.1,1.8-1.5,3.3-3.3,3.3
			c-1.8,0-3.3-1.4-3.3-3.3c0,0,0,0,0,0V8.8l0,0V4.3l0,0V4.1c-0.1-0.6-0.6-1-1.3-1.1c-0.7,0-1.3,0.5-1.3,1.2l0,0v4.8
			c0,3.3,2.7,5.9,6,5.9c0,0,0,0,0,0c0.7,0,1.5-0.1,2.2-0.4L85,14.8c-0.5,1-1.4,1.8-2.4,2.2c-0.5,0.2-0.9,0.7-0.9,1.2
			c0,0.7,0.6,1.3,1.3,1.3l0,0c0.2,0,0.3,0,0.5-0.1c1.6-0.7,5-2.1,5.4-9.7V9.4l0,0V4.3H88.7z"/>
	</g>
</g>
</svg>
