<?xml version="1.0" encoding="utf-8"?>
<!-- Generator: Adobe Illustrator 25.4.1, SVG Export Plug-In . SVG Version: 6.00 Build 0)  -->
<svg version="1.1" id="圖層_1" xmlns="http://www.w3.org/2000/svg" xmlns:xlink="http://www.w3.org/1999/xlink" x="0px" y="0px"
	 viewBox="0 0 283.5 84" style="enable-background:new 0 0 283.5 84;" xml:space="preserve">
<style type="text/css">
	.st0{fill:#333333;}
	.st1{fill:none;stroke:#333333;stroke-miterlimit:10;}
	.st2{fill:#E9E9E9;}
</style>
<g id="圖層_2_00000043426902776127512160000004400071818853479818_">
	<g id="指甲標示">
		<path class="st0" d="M83.5,14.8c0-0.5-0.1-0.9-0.3-1.3c-0.2-0.3-0.6-0.5-1-0.6v-0.2c0.5,0,0.9,0,1.4,0.1c0.2,0,0.3-0.1,0.3-0.2
			V9.6c-0.2,0.1-0.5,0.3-0.9,0.5c-0.1,0.2-0.2,0.3-0.4,0.4l-0.7-2.3c0.4-0.1,1.1-0.2,2-0.4V5.4h-0.6c-0.3,0-0.7,0.1-1,0.2l-0.4-0.7
			C82.4,4.9,82.8,5,83.2,5h0.6V4.4c0-0.9,0-1.9-0.2-2.8C84.4,1.7,85,1.9,85.4,2c0.2,0,0.4,0.1,0.6,0.2c0,0,0,0.1-0.1,0.2l-0.3,0.1
			v2.3l0.7-1.3l0.5,0.5c0.4,0.4,0.7,0.7,0.8,1V4.5c0-0.9,0-1.9-0.2-2.8c0.7,0.1,1.4,0.3,2,0.5c0.2,0.1,0.2,0.2,0.1,0.3l-0.2,0.1v1.6
			c1.1-0.6,2.1-1.3,3-2.2l1.8,1.6c-0.2,0.2-0.5,0.2-0.9,0c-1.3,0.5-2.6,0.8-4,1.1v0.9c0,0.1,0,0.2,0.1,0.2c0.1,0,0.3,0.1,0.5,0.1
			h1.6c0.6,0,1.1,0,1.2,0c0.2,0,0.3-0.1,0.4-0.2c0.3-0.4,0.5-0.8,0.7-1.3H94l0,1.3c0.2,0.1,0.4,0.2,0.5,0.3c0.1,0.1,0.1,0.3,0.1,0.4
			c0,0.4-0.3,0.7-0.7,0.8c-0.5,0.2-1.4,0.3-2.7,0.3h-1.7c-0.8,0-1.3-0.1-1.6-0.3C87.8,7,87.7,6.6,87.7,6V5.2c0,0.1-0.2,0.2-0.3,0.2
			h-1.7v2c0.6-0.1,1.3-0.3,2-0.5l0,0.1c-0.5,0.4-1.2,0.9-2,1.5v4.2c0,0.7-0.1,1.2-0.4,1.5C84.9,14.5,84.3,14.7,83.5,14.8z M88,14.8
			c-0.2,0-0.4-0.1-0.4-0.3c0.1-0.8,0.1-1.6,0.1-2.5v-1.4c0-0.9,0-1.9-0.2-2.8l2.1,0.8H92l0.4-0.5c0-0.1,0.1-0.1,0.1-0.2
			c0.2-0.2,0.3-0.3,0.3-0.3c0.3,0.1,0.6,0.3,0.9,0.6c0.5,0.4,0.8,0.6,0.8,0.7c-0.1,0.2-0.3,0.3-0.5,0.3V11c0,1.1,0.1,2.1,0.1,3.2
			c-0.2,0.2-0.4,0.3-0.6,0.3c-0.3,0.1-0.7,0.2-1,0.2c-0.2,0-0.4-0.1-0.4-0.3c0-0.1,0-0.1,0-0.2c0-0.1,0-0.1,0-0.2v-0.4h-2.6v0.6
			c0,0.1-0.2,0.2-0.5,0.4C88.7,14.7,88.4,14.8,88,14.8L88,14.8z M89.5,11h2.6V9.1h-2.6V11z M89.5,13.3h2.6v-1.9h-2.6V13.3z"/>
		<path class="st0" d="M101.5,14.8c-0.3,0-0.5-0.1-0.5-0.3c0-0.1,0-0.1,0-0.2c0.1-1,0.1-1.9,0.1-2.9V9.7h-2.3v0.6
			c0,0.1-0.2,0.3-0.5,0.4c-0.4,0.2-0.8,0.3-1.1,0.3c-0.1,0-0.2,0-0.3-0.1c-0.1,0-0.1-0.1-0.1-0.2c0.1-1.2,0.1-2.4,0.2-3.6V5
			c0-0.9,0-1.9-0.2-2.8l2.3,0.9h6.4l0.4-0.5l0.2-0.2c0.2-0.2,0.3-0.3,0.3-0.3c0.1,0,0.4,0.2,0.9,0.6s0.8,0.7,0.8,0.8
			c-0.1,0.2-0.3,0.3-0.5,0.3v3.2c0,1.1,0.1,2.2,0.1,3.3c-0.2,0.2-0.4,0.3-0.7,0.4c-0.4,0.1-0.7,0.2-1.1,0.2c-0.3,0-0.4-0.1-0.4-0.3
			c0-0.1,0-0.1,0-0.2c0-0.1,0-0.1,0-0.2V9.7h-2.4v1.5c0,1.3,0.1,2.3,0.1,3c-0.1,0.2-0.3,0.3-0.5,0.4
			C102.3,14.8,101.9,14.9,101.5,14.8z M98.8,6.2h2.3V3.5h-2.3V6.2z M98.8,9.3h2.3V6.6h-2.3V9.3z M103.1,6.2h2.4V3.5h-2.4V6.2z
			 M103.1,9.3h2.4V6.6h-2.4V9.3z"/>
		<line class="st1" x1="72.3" y1="8" x2="4" y2="8"/>
		<rect x="4" y="20.5" class="st0" width="68.3" height="22.4"/>
		<path class="st2" d="M11.8,38.7l-0.9-2.1c0.3-0.1,0.9-0.3,1.5-0.5v-3h-0.5c-0.3,0-0.6,0.1-0.8,0.2l-0.3-0.7c0.3,0.1,0.7,0.1,1,0.1
			h0.5l0.9-1.2l1.9,1.5c-0.2,0.2-0.4,0.3-0.7,0.3v2.3c0.4,0.4,0.9,0.7,1.5,0.8c0.9,0.1,1.8,0.2,2.7,0.2c2.3,0,4,0,5.1-0.1v0.2
			c-0.7,0.2-1.1,0.8-1.2,1.7h-3.9c-1.3,0-2.2-0.2-2.8-0.5c-0.6-0.3-1.1-1-1.6-2.1c-0.6,0.9-1.3,1.7-2,2.5
			C12.1,38.6,12,38.7,11.8,38.7z M12.7,30.9c-0.2-0.4-0.4-0.8-0.7-1.1c-0.3-0.3-0.6-0.7-0.9-0.9l0.1-0.1c0.9-0.1,1.7,0,2.2,0.3
			c0.4,0.2,0.7,0.5,0.7,0.9c0.1,0.3-0.1,0.7-0.4,0.9C13.5,31,13,31.1,12.7,30.9z M13.2,28c-0.2-0.4-0.4-0.8-0.7-1.1
			c-0.3-0.3-0.6-0.7-0.9-0.9l0.1-0.1c0.9-0.1,1.6,0,2.2,0.3c0.4,0.2,0.6,0.5,0.7,0.9c0,0.3-0.1,0.7-0.4,0.9
			C13.9,28.2,13.5,28.2,13.2,28L13.2,28z M14.7,31.1l-0.4-0.7c0.5,0.1,1.1,0.1,1.8,0.1H18v-2.1h-1.2c-0.5,0.7-1.1,1.4-1.8,1.9
			l-0.1-0.1c0.2-0.5,0.3-0.9,0.4-1.4c0.1-0.5,0.2-1,0.2-1.5c0.1-0.5,0.1-1,0-1.4l2.4,0.7c0-0.3,0-0.6-0.1-0.9
			c0.8,0.1,1.4,0.3,1.7,0.4c0.2,0,0.4,0.1,0.6,0.2c0,0,0,0.1-0.1,0.2l-0.2,0.2V28h0.5l0.4-0.6c0-0.1,0.1-0.1,0.1-0.2
			c0.2-0.3,0.3-0.4,0.4-0.4c0.1,0,0.4,0.2,0.9,0.6s0.7,0.7,0.7,0.8s-0.2,0.2-0.4,0.2h-2.7v2.1h1l0.4-0.6c0,0,0.1-0.1,0.2-0.2
			c0.2-0.3,0.3-0.4,0.4-0.4c0.1,0,0.4,0.2,0.9,0.6c0.5,0.4,0.8,0.7,0.8,0.8c0,0.1-0.2,0.2-0.4,0.2h-6.4C16.1,30.9,15.4,31,14.7,31.1
			z M16,36.3c-0.2,0-0.4-0.1-0.4-0.3c0-0.4,0.1-0.8,0.1-1.4v-0.8c0-0.8,0-1.7-0.2-2.5l2.1,0.8h2.5l0.4-0.5c0-0.1,0.1-0.1,0.1-0.2
			c0.2-0.2,0.3-0.3,0.3-0.3c0.3,0.1,0.6,0.3,0.9,0.6c0.5,0.4,0.8,0.6,0.8,0.7c-0.1,0.2-0.3,0.3-0.5,0.3v0.9c0,0.8,0,1.4,0.1,1.8
			c-0.1,0.1-0.3,0.2-0.6,0.3c-0.3,0.1-0.7,0.2-1,0.2c-0.3,0-0.4-0.1-0.4-0.3c0,0,0-0.1,0-0.2c0-0.1,0-0.1,0-0.2v-0.3h-2.7v0.5
			c0,0.1-0.2,0.2-0.5,0.3C16.7,36.2,16.3,36.3,16,36.3z M17,28H18v-1.3c-0.1,0-0.2,0.1-0.3,0.1C17.5,27.2,17.3,27.6,17,28z
			 M17.6,34.8h2.7v-2.3h-2.7V34.8z"/>
		<path class="st2" d="M24.6,38.8L24.6,38.8c0.5-1.2,0.9-2.4,1.1-3.7c0.1-1.2,0.2-2.5,0.2-3.7v-1.9c0-0.6,0-1.3-0.1-1.9l2.3,0.8h3.1
			c0-1.1-0.1-2-0.1-2.9c0.7,0,1.4,0.1,2.1,0.2c0.2,0.1,0.2,0.1,0.1,0.2L33,26.2c0,0.9,0,1.6,0,2.2h1.5l0.5-0.6
			c-0.1,0-0.2-0.1-0.3-0.1c-0.1-0.3-0.3-0.7-0.5-0.9c-0.2-0.3-0.4-0.5-0.7-0.8l0.1-0.1c0.6-0.1,1.2-0.1,1.8,0.1
			c0.3,0.1,0.6,0.4,0.7,0.7c0.1,0.3,0,0.5-0.1,0.7c0.1,0,0.1,0.1,0.3,0.2c0.5,0.4,0.9,0.7,1.1,0.9c0,0.1-0.2,0.2-0.4,0.2h-3.8
			c0.1,1.2,0.3,2.5,0.6,3.6c0.2-0.4,0.3-0.9,0.4-1.4c0.1-0.4,0.2-0.9,0.2-1.3c0.8,0.2,1.5,0.5,2.2,0.9c0.2,0.1,0.3,0.2,0.1,0.3
			l-0.2,0.1c-0.5,1.2-1.1,2.4-1.8,3.5c0.3,0.5,0.7,0.9,1.1,1.3c0.1,0.1,0.2,0.2,0.2,0.2c0.1,0,0.1-0.1,0.2-0.2
			c0.4-0.6,0.7-1.2,1-1.8l0.1,0l-0.4,2.5c0.5,0.9,0.6,1.5,0.3,1.8c-0.3,0.3-0.8,0.4-1.4,0.2c-0.5-0.2-0.9-0.5-1.3-0.8
			c-0.5-0.5-0.9-1-1.3-1.6c-1.2,1.2-2.6,2-4.2,2.6L29,38.5c1.5-0.9,2.7-2.2,3.6-3.7c-0.7-1.5-1.1-3.5-1.3-5.9h-3.4v2.2H29l0.4-0.5
			c0,0,0.1-0.1,0.1-0.2c0.2-0.2,0.3-0.3,0.4-0.3c0.1,0,0.4,0.2,0.8,0.6c0.5,0.4,0.7,0.6,0.7,0.7c-0.1,0.1-0.3,0.2-0.5,0.2
			c0,1.1-0.1,2.2-0.2,3.2c-0.1,0.5-0.3,1-0.7,1.3c-0.5,0.3-1,0.5-1.6,0.5c0-0.6-0.1-1-0.2-1.2c-0.2-0.3-0.5-0.5-0.8-0.5v-0.1
			C27.1,36.5,26.1,37.9,24.6,38.8z M28.4,34.8c0.1,0,0.2,0,0.3-0.1c0.2-0.2,0.3-1.3,0.4-3.3h-1.3v0c0,1.1-0.1,2.2-0.3,3.3
			C27.8,34.8,28.1,34.8,28.4,34.8z"/>
		<path class="st2" d="M38.7,38.8L38.7,38.8c0.6-1,1.1-2,1.2-3.2c0.2-1.1,0.3-2.1,0.3-3.2v-2.2c-0.5,0.3-1,0.6-1.6,0.7l-0.1-0.1
			c0.9-0.7,1.7-1.6,2.3-2.6c0.3-0.4,0.5-0.9,0.7-1.3c0.2-0.4,0.3-0.9,0.4-1.3c0.8,0.2,1.6,0.4,2.4,0.7c0.2,0.1,0.3,0.2,0.1,0.2
			l-0.3,0.1l-0.1,0.1c-0.1,0.2-0.3,0.3-0.3,0.4H46l0.4-0.4c0,0,0.1-0.1,0.1-0.1c0.2-0.2,0.3-0.3,0.4-0.3c0.3,0.1,0.6,0.3,0.8,0.6
			c0.4,0.4,0.7,0.6,0.7,0.7c-0.1,0.1-0.3,0.2-0.5,0.2c-0.1,0.4-0.2,0.8-0.4,1.2c-0.2,0.3-0.4,0.5-0.7,0.7c-0.3,0.1-0.6,0.2-0.9,0.2
			h2.5l1-1.4l0.7,0.6c0.5,0.4,0.9,0.8,1.2,1c0,0.1-0.2,0.2-0.4,0.2h-8.7v2.2c0,1.1-0.1,2.3-0.5,3.3C41,37,40,38.1,38.7,38.8z
			 M42.4,29.8H45c0-0.2,0-0.3-0.1-0.5c0-0.1-0.1-0.2-0.2-0.3c-0.2-0.2-0.6-0.4-1.3-0.5v-0.2c0.6,0.1,1.1,0.1,1.7,0.1
			c0.1,0,0.3,0,0.4-0.1c0.2-0.1,0.3-0.4,0.5-0.9h-2.6c-0.6,0.7-1.4,1.4-2.2,2L42.4,29.8z M45.3,38.5c-0.9,0-1.6-0.1-1.9-0.3
			c-0.4-0.2-0.5-0.7-0.5-1.4v-3.3c0-0.9,0-1.9-0.2-2.8l2.2,0.9H47l0.4-0.4l0.2-0.2c0.2-0.2,0.3-0.3,0.3-0.3c0.3,0.1,0.6,0.3,0.8,0.6
			c0.4,0.4,0.7,0.6,0.7,0.7c-0.1,0.1-0.3,0.2-0.5,0.2c0,0.7-0.1,1.5-0.2,2.2c-0.1,0.4-0.3,0.7-0.6,1c-0.5,0.3-1,0.4-1.6,0.4
			c0-0.4,0-0.8-0.2-1.2c-0.2-0.3-0.6-0.5-0.9-0.5v-0.2c0.4,0,0.8,0.1,1.1,0.1c0.1,0,0.2,0,0.3-0.1c0.1-0.1,0.2-0.8,0.2-1.9h-2.4v4.5
			c0,0.1,0,0.2,0.1,0.3c0.2,0.1,0.4,0.1,0.6,0.1h2c0.8,0,1.3,0,1.5,0c0.2,0,0.4-0.1,0.6-0.2c0.3-0.4,0.6-0.9,0.8-1.4h0.1l0.1,1.4
			c0.2,0.1,0.4,0.2,0.6,0.3c0.1,0.1,0.2,0.3,0.2,0.4c0,0.5-0.3,0.8-0.8,0.9s-1.6,0.3-3.2,0.3L45.3,38.5z"/>
		<path class="st2" d="M53.2,29.9c-0.3-0.1-0.5-0.3-0.6-0.6c-0.1-0.2,0-0.5,0.1-0.7c0.1-0.2,0.3-0.4,0.5-0.5
			c0.3-0.2,0.5-0.4,0.7-0.6c0.2-0.3,0.3-0.6,0.3-1h0.2c0.1,0.3,0.2,0.6,0.2,0.9h3.1c0-0.6,0-1.2-0.1-1.8c0.8,0.1,1.4,0.3,1.8,0.4
			c0.2,0,0.4,0.1,0.6,0.2c0,0,0,0.1-0.1,0.2l-0.2,0.2v0.9h2.9l0.4-0.5c0,0,0.1-0.1,0.1-0.1c0.2-0.2,0.4-0.3,0.4-0.3
			c0.1,0,0.4,0.2,0.8,0.7s0.7,0.7,0.7,0.8c-0.2,0.1-0.3,0.2-0.5,0.2c-0.7,0.5-1.4,1-2.1,1.3l-0.1-0.1c0.2-0.5,0.3-1.1,0.4-1.6h-8
			c0.1,0.4,0,0.9-0.2,1.3c-0.1,0.3-0.3,0.6-0.6,0.7C53.7,29.9,53.5,29.9,53.2,29.9z M58.1,34.4c-0.3,0-0.4-0.1-0.4-0.3
			c0-0.1,0-0.1,0-0.2c0-0.1,0-0.1,0-0.2v-0.4h-2.7c-0.7,0-1.4,0.1-2.1,0.2l-0.4-0.7c0.5,0.1,1.1,0.1,1.8,0.1h3.3v-1.2h-1.1
			c-0.7,0-1.4,0.1-2.1,0.2l-0.4-0.7c0.5,0.1,1.1,0.1,1.8,0.1h1.7v-1c-1.2,0-2.4,0-3.6-0.1l0-0.2c1.2-0.1,2.4-0.3,3.6-0.5v-0.8
			c0-0.3,0-0.6,0-0.8c0.8,0.2,1.4,0.3,1.7,0.4c0.2,0,0.4,0.1,0.6,0.3c0,0,0,0.1-0.1,0.2l-0.2,0.2v0.3c0.8-0.2,1.4-0.4,1.9-0.6
			l1.3,1.5c-0.2,0.1-0.4,0.1-0.8,0c-0.6,0.1-1.4,0.2-2.4,0.3v1.1h1.7l0.4-0.5l0.1-0.2c0.2-0.2,0.3-0.3,0.3-0.3
			c0.3,0.1,0.6,0.3,0.8,0.5c0.4,0.3,0.6,0.6,0.6,0.7c0,0.1-0.2,0.2-0.4,0.2h-3.6v1.2h2.8l0.4-0.6c0,0,0.1-0.1,0.1-0.1
			c0.2-0.3,0.3-0.4,0.4-0.4c0.3,0.1,0.6,0.3,0.8,0.6c0.5,0.4,0.7,0.6,0.7,0.7s-0.1,0.2-0.4,0.2h-4.9v0.6c0,0.1-0.2,0.2-0.5,0.3
			C58.8,34.3,58.5,34.4,58.1,34.4z M54.9,38.7c-0.2,0-0.3-0.1-0.3-0.3c0-0.3,0.1-0.8,0.1-1.3v-0.8c0-0.8,0-1.6-0.2-2.5l2.1,0.8h4.4
			l0.4-0.5c0-0.1,0.1-0.1,0.1-0.2c0.2-0.2,0.3-0.3,0.3-0.3c0.3,0.1,0.6,0.3,0.9,0.6c0.5,0.4,0.8,0.6,0.8,0.7
			c-0.1,0.2-0.3,0.3-0.5,0.3v0.9c0,0.1,0,0.3,0,0.6c0,0.5,0,0.9,0.1,1.2c0,0.1-0.3,0.2-0.6,0.3c-0.3,0.1-0.7,0.2-1,0.2
			c-0.3,0-0.4-0.1-0.4-0.3c0,0,0-0.1,0-0.2c0,0,0-0.1,0-0.1v-0.3h-4.6v0.4c0,0.1-0.2,0.2-0.5,0.4C55.6,38.7,55.2,38.7,54.9,38.7
			L54.9,38.7z M56.5,37.4h4.6v-2.2h-4.6L56.5,37.4z"/>
		<path class="st0" d="M94.3,36.4c-0.1,0-0.2,0-0.3-0.1c-0.1,0-0.1-0.1-0.1-0.2c0.1-1.2,0.1-2.4,0.2-3.6v-3.1c0-0.9,0-1.9-0.2-2.8
			l2,0.8h0.5l0.4-0.5c0,0,0.1-0.1,0.1-0.1c0.2-0.2,0.3-0.3,0.4-0.3c0.3,0.1,0.6,0.3,0.9,0.6c0.5,0.4,0.7,0.6,0.7,0.7
			c-0.1,0.2-0.3,0.3-0.5,0.3v1.7h0.9v-0.6c0-0.9,0-1.9-0.2-2.8c0.8,0.1,1.3,0.3,1.7,0.4c0.2,0,0.4,0.1,0.6,0.2c0,0,0,0.1-0.1,0.2
			l-0.2,0.2v2.5h0.7v-1.4c0-0.9,0-1.9-0.2-2.8c0.8,0.1,1.4,0.3,1.7,0.4c0.2,0,0.4,0.1,0.6,0.2c0,0,0,0.1-0.1,0.2l-0.2,0.2v1.1h0.2
			L104,27l0.1-0.2c0.2-0.3,0.3-0.4,0.4-0.4s0.4,0.2,0.8,0.6s0.7,0.6,0.7,0.7c0,0.1-0.2,0.2-0.4,0.2h-2.2v1.8h0.4l0.4-0.6
			c0-0.1,0.1-0.1,0.2-0.2c0.2-0.3,0.3-0.4,0.4-0.4s0.4,0.2,0.9,0.6s0.7,0.7,0.7,0.8s-0.2,0.2-0.4,0.2h-7.8v1.7
			c0,1.1,0.1,2.2,0.1,3.3c-0.2,0.2-0.4,0.3-0.6,0.3c-0.3,0.1-0.6,0.2-0.9,0.2c-0.2,0-0.4-0.1-0.4-0.3c0-0.1,0-0.3,0.1-0.5
			c0-0.1,0-0.2,0-0.3V34h-0.7v0.6c0,0.1,0,0.3,0,0.5c0,0.3,0,0.5,0,0.6c0,0.1-0.2,0.3-0.5,0.5C95.1,36.3,94.7,36.4,94.3,36.4z
			 M95.8,33.6h0.7v-5.8h-0.7V33.6z M103.1,38.8c0-0.4-0.1-0.9-0.3-1.3c-0.3-0.3-0.7-0.5-1.1-0.6v-0.2l1.5,0.1c0.1,0,0.2-0.1,0.3-0.2
			c0,0,0,0,0-0.1v-1.3h-2.6v1c0,0.8,0,1.4,0.1,1.8c0,0.1-0.2,0.3-0.5,0.4c-0.3,0.2-0.7,0.2-1.1,0.2c-0.1,0-0.2,0-0.3-0.1
			c-0.1,0-0.1-0.1-0.1-0.2c0-0.1,0-0.1,0-0.2c0.1-1,0.1-2.1,0.1-3.1v-1.8c0-0.9,0-1.9-0.2-2.8l2.1,0.8h2.4l0.4-0.5
			c0,0,0.1-0.1,0.1-0.1c0.2-0.2,0.3-0.3,0.4-0.3c0.3,0.1,0.6,0.3,0.9,0.6c0.5,0.4,0.8,0.6,0.8,0.7c-0.1,0.2-0.3,0.3-0.5,0.3v4.7
			c0,0.7-0.1,1.1-0.4,1.4C104.6,38.5,104,38.7,103.1,38.8L103.1,38.8z M100.9,33h2.6v-1.3h-2.6V33z M100.9,34.8h2.6v-1.4h-2.6V34.8z
			"/>
		<path class="st0" d="M108.2,36.4c-0.1,0-0.2,0-0.3-0.1c-0.1,0-0.1-0.1-0.1-0.2c0.1-1.2,0.1-2.4,0.2-3.6v-3c0-0.9,0-1.9-0.2-2.8
			l1.9,0.8h0.5l0.8-0.9l1.6,1.3h2.2c0-0.7,0-1.5-0.1-2.2c0.7,0.1,1.5,0.3,2.2,0.5c0.2,0.1,0.3,0.2,0.1,0.3l-0.2,0.1v1.3h0.7l0.5-0.7
			c0-0.1,0.1-0.1,0.2-0.2c0.2-0.3,0.3-0.4,0.4-0.4c0.1,0,0.4,0.2,0.9,0.7s0.8,0.7,0.8,0.8c0,0.1-0.2,0.2-0.4,0.2h-7.8V32
			c0.7-1,1.3-2.2,1.6-3.4c0.6,0.3,1.2,0.6,1.8,0.9c0.2,0.1,0.2,0.2,0,0.3l-0.3,0.1c-0.8,1.2-1.9,2.1-3.2,2.6v0.9c0,0.1,0,0.3,0,0.5
			c0,0.5,0,0.9,0.1,1.1c-0.2,0.2-0.4,0.3-0.6,0.3c-0.3,0.1-0.6,0.2-0.9,0.2c-0.2,0-0.3-0.1-0.3-0.3c0-0.1,0-0.1,0-0.3
			c0-0.1,0-0.2,0-0.2v-0.4h-0.7v0.5c0,0.1,0,0.2,0,0.4c0,0.2,0,0.4,0,0.5c0,0.1-0.2,0.3-0.5,0.4C108.9,36.3,108.6,36.4,108.2,36.4z
			 M109.6,34h0.7v-6.1h-0.7V34z M110.6,38.8l-0.1-0.2c1.9-0.7,3.5-1.9,4.6-3.6c-0.4-0.9-0.6-1.8-0.8-2.8c-0.2,0.4-0.4,1-0.7,1.6
			c0.1,0.2,0,0.3-0.1,0.4l-0.9-1.3c0.6-0.3,1.1-0.7,1.6-1.1l0.1-0.6l0.6,0.2l-0.4,0.5c0.2,0.8,0.6,1.6,1.1,2.3
			c0.5-0.9,0.9-1.9,1.1-2.9c0.7,0.3,1.4,0.6,2.1,0.9c0.2,0.1,0.2,0.2,0,0.3l-0.3,0.1c-0.4,1-1,1.9-1.7,2.7c1.1,0.7,2.2,1.1,3.5,1.3
			v0.2c-0.8,0.2-1.4,0.8-1.6,1.8c-1.1-0.5-2.1-1.3-2.9-2.3C114.6,37.5,112.8,38.3,110.6,38.8L110.6,38.8z M118.6,31.9
			c-0.5-1.1-1.2-2.2-2.1-3l0.1-0.1c0.9,0.1,1.8,0.4,2.6,0.9c0.5,0.3,0.8,0.8,0.9,1.3c0.1,0.4-0.1,0.8-0.4,1
			C119.4,32.2,119,32.2,118.6,31.9L118.6,31.9z"/>
		<path class="st0" d="M132.8,38.8c-1-0.3-1.9-0.8-2.6-1.5c-0.8-0.8-1.3-1.8-1.5-2.9h-1.3v2l1.9-0.2v0.2c-1.4,0.7-2.8,1.4-4.2,2
			c-0.1,0.2-0.2,0.3-0.4,0.3l-0.9-2.1c0.6,0,1.2-0.1,1.8-0.1v-2.2h-0.9c-0.3,1.8-1.4,3.3-3,4.1l-0.1-0.1c0.6-0.9,1-1.9,1.1-3
			c0.2-1,0.2-1.9,0.2-2.9v-1.9l0.4,0.1v-1.8c0-0.9,0-1.9-0.2-2.8l2.1,0.8h0.6c0-0.5,0-0.9-0.1-1.4c0.6,0.1,1.3,0.3,1.9,0.5
			c0.2,0.1,0.2,0.2,0.1,0.2l-0.2,0.1v0.5h0.8c0-0.5,0-0.9-0.1-1.4c0.6,0.1,1.3,0.3,1.9,0.5c0.2,0.1,0.2,0.2,0.1,0.2l-0.2,0.1v0.5
			h0.7l0.4-0.5c0-0.1,0.1-0.1,0.1-0.2c0.2-0.2,0.3-0.3,0.3-0.3c0.3,0.1,0.6,0.3,0.9,0.6c0.5,0.4,0.8,0.6,0.8,0.7
			c-0.1,0.2-0.3,0.3-0.5,0.3v2.9c0.5,0.5,0.9,0.8,1.2,1.1c0,0.1-0.2,0.2-0.4,0.2h-1.9c0.4,0.3,0.9,0.7,1.3,1.1
			c0,0.1-0.1,0.2-0.2,0.2c0.5,0.4,1,0.8,1.5,1.2c0,0.1-0.2,0.2-0.4,0.2h-1.8c0.5,0.2,0.9,0.5,1.3,0.8c0.1,0.1,0.1,0.2,0,0.2h-0.2
			c-0.7,0.3-1.4,0.5-2.1,0.6c1.1,0.4,2.3,0.7,3.4,0.7V37C133.4,37.2,133,37.8,132.8,38.8z M125,31.4h6.3l0.4-0.6
			c-0.2,0-0.5,0.1-0.7,0.1h-0.3v-0.5H125v0.2c0,0.1-0.1,0.1-0.2,0.2c-0.2,0.1-0.4,0.2-0.6,0.2L125,31.4z M124.7,34.1h6.9l0.8-1h-4.9
			c-0.7,0-1.4,0.1-2.1,0.2l-0.4-0.7c0.5,0.1,1.1,0.1,1.8,0.1h3.6l0.7-0.9h-6.4v0.8C124.8,33,124.7,33.5,124.7,34.1L124.7,34.1z
			 M125,28.5h0.7v-1.2H125L125,28.5z M125,30h0.7v-1.2H125L125,30z M127.4,28.5h0.8v-1.2h-0.8V28.5z M127.4,30h0.8v-1.2h-0.8V30z
			 M130.2,35.8c0.4-0.4,0.8-0.9,1.2-1.4h-2.5C129.2,35,129.7,35.5,130.2,35.8L130.2,35.8z M129.9,28.5h0.8v-1.2h-0.8V28.5z
			 M129.9,30h0.8v-1.2h-0.8V30z"/>
		<path class="st0" d="M137.3,38.8c-0.3,0-0.5-0.1-0.5-0.3c0.1-1.2,0.1-2.4,0.2-3.6v-3.2c-0.5,0.5-1.1,1-1.7,1.5l-0.1-0.1
			c0.9-1.5,1.6-3,2.1-4.6c0.2-0.5,0.3-1,0.4-1.5c0.1-0.5,0.2-1,0.2-1.5c0.9,0.3,1.5,0.5,1.9,0.7c0.2,0.1,0.4,0.2,0.6,0.3
			c0,0.1,0,0.1-0.1,0.2l-0.3,0.1c-0.4,1.1-1,2.1-1.6,3.1c0.3,0.1,0.5,0.3,0.7,0.5c0.1,0.1,0,0.2-0.1,0.2l-0.2,0.1v4.2
			c0,1.1,0.1,2.2,0.1,3.3c-0.2,0.2-0.4,0.3-0.6,0.4C138,38.7,137.6,38.8,137.3,38.8z M142.7,38.7c-0.4,0-0.5-0.1-0.5-0.3
			c0.1-1.2,0.1-2.4,0.2-3.6v-5.7c-0.8,1.3-1.9,2.4-3.2,3.3l-0.1-0.1c0.7-1.2,1.3-2.5,1.8-3.9c0.2-0.5,0.3-1,0.4-1.5
			c0.1-0.5,0.2-1,0.2-1.5c0.9,0.3,1.5,0.5,1.9,0.7c0.2,0.1,0.4,0.2,0.6,0.3c0,0.1,0,0.1-0.1,0.1l-0.3,0.1c-0.3,0.7-0.6,1.3-1,1.9
			h2.5l1-1.4c0.2,0.2,0.4,0.4,0.7,0.5c0.5,0.4,0.9,0.7,1.2,1c0,0.1-0.2,0.2-0.4,0.2h-3.2v2.6h0.5l0.4-0.6c0,0,0.1-0.1,0.2-0.2
			c0.2-0.3,0.3-0.4,0.4-0.4c0.1,0,0.4,0.2,0.9,0.6c0.5,0.4,0.8,0.7,0.8,0.8c0,0.1-0.2,0.2-0.4,0.2h-2.8v2.6h0.6l1-1.4l1.8,1.6
			c0,0.1-0.2,0.2-0.4,0.2h-3v1.1c0,0.9,0,1.5,0.1,2c-0.1,0.1-0.2,0.2-0.5,0.3C143.6,38.7,143.2,38.7,142.7,38.7L142.7,38.7z"/>
		<path class="st0" d="M151.7,38.8c-0.3,0-0.5-0.1-0.5-0.3c0.1-0.8,0.1-1.8,0.1-2.8v-1.5c-0.4,0.3-0.8,0.5-1.1,0.7
			c-0.1,0.2-0.2,0.3-0.4,0.4l-0.7-2.2c0.6-0.1,1.4-0.3,2.2-0.5v-3.1h-0.8c-0.3,0.8-0.7,1.6-1.2,2.3l-0.2-0.1
			c0.1-0.7,0.2-1.4,0.3-2.1c0-0.3,0-0.7,0-1.3s0-1,0-1.3s0-0.4-0.1-0.2l2,0.3c0-0.5,0-1-0.1-1.5c0.7,0.2,1.3,0.3,1.7,0.4
			c0.2,0,0.4,0.1,0.5,0.3c0,0,0,0.1-0.1,0.2l-0.3,0.2V29l0.6-1.1l0.8,0.9c0.1-0.2,0.1-0.3,0.1-0.4c0.3-0.9,0.4-1.9,0.4-2.8
			c0.7,0.2,1.5,0.5,2.2,0.7c0.2,0.1,0.2,0.2,0.1,0.3l-0.3,0.1c-0.2,0.6-0.4,1.1-0.7,1.7h3l0.5-0.5c0,0,0.1-0.1,0.2-0.2
			c0.2-0.2,0.3-0.3,0.4-0.3c0.1,0,0.4,0.2,0.9,0.7c0.5,0.5,0.7,0.7,0.7,0.8c-0.2,0.2-0.4,0.3-0.6,0.3c0,2.1-0.2,4.1-0.4,6.2
			c-0.2,1.3-0.5,2.2-0.9,2.6c-0.3,0.3-0.6,0.5-0.9,0.6c-0.4,0.1-0.8,0.2-1.3,0.2c0-0.7-0.1-1.1-0.3-1.4c-0.3-0.3-0.7-0.6-1.5-0.7
			v-0.2c0.9,0.1,1.6,0.1,2,0.1c0.2,0,0.4-0.1,0.5-0.2c0.4-0.4,0.7-2.4,0.9-6.1c-1,3.6-2.9,6.1-5.8,7.6l-0.1-0.1
			c1.3-1.1,2.3-2.5,3-4.1c0.7-1.5,1.1-3.2,1.3-4.8c-0.4,1.2-0.9,2.4-1.6,3.4c-0.7,1.1-1.6,2-2.7,2.7l-0.1-0.1
			c0.7-0.9,1.3-1.8,1.8-2.9c0.5-1,0.8-2.1,1-3.2c-0.7,1.1-1.6,2.1-2.7,2.8l-0.1-0.1c0.4-0.6,0.7-1.2,0.9-1.8h-1.2v2.6
			c0.2-0.1,0.6-0.2,1.1-0.3c0.2-0.1,0.4-0.1,0.5-0.1l0,0.1h0c-0.6,0.5-1.2,0.9-1.6,1.2v1.9c0,1.1,0.1,2.2,0.1,3.3
			c-0.1,0.2-0.3,0.3-0.6,0.4C152.4,38.7,152,38.8,151.7,38.8z M150.7,29.1h0.7v-1.8l-0.2,0C150.9,28.2,150.8,28.7,150.7,29.1
			L150.7,29.1z"/>
		<path class="st0" d="M94.3,59.5c-0.3,0-0.4-0.1-0.4-0.3c0.1-0.8,0.1-1.6,0.1-2.4v-1.4c-0.3,0.4-0.6,0.8-0.9,1.1L93,56.4
			c0.8-1.7,1.3-4.2,1.5-7.4H94c-0.3,0-0.5,0.1-0.8,0.2l-0.4-0.7c0.5,0.1,1.1,0.1,1.8,0.1h1.7l0.4-0.6l0.1-0.2
			c0.2-0.3,0.3-0.4,0.4-0.4c0.3,0.1,0.6,0.3,0.8,0.6c0.5,0.4,0.7,0.6,0.7,0.7c0,0.1-0.1,0.2-0.4,0.2h-2.1c-0.1,1.2-0.4,2.4-0.8,3.6
			l0.3,0.1h0.5l0.3-0.4c0,0,0.1-0.1,0.1-0.1c0.2-0.2,0.3-0.3,0.3-0.3c0.3,0.1,0.6,0.3,0.8,0.5c0.4,0.4,0.7,0.6,0.7,0.7
			c-0.1,0.1-0.3,0.2-0.5,0.2V55c0,1.1,0.1,2.2,0.1,3.2c-0.2,0.2-0.4,0.3-0.6,0.3c-0.3,0.1-0.6,0.2-0.9,0.2c-0.2,0-0.3-0.1-0.3-0.3
			c0,0,0-0.1,0-0.1c0,0,0-0.1,0-0.1V58h-0.8v0.4c0,0.1,0,0.2,0,0.3c0,0.2,0,0.3,0,0.3c-0.1,0.2-0.2,0.3-0.4,0.4
			C95,59.5,94.7,59.5,94.3,59.5z M95.6,57.6h0.8v-4.5h-0.8V57.6z M98.1,60.4L98,60.3c1.4-0.6,2.7-1.7,3.6-3
			c-0.5-1.3-0.8-2.7-0.9-4.1h-0.3v0.1c0,1.2-0.1,2.5-0.4,3.6c-0.4,1.4-1.3,2.5-2.5,3.3l-0.1-0.1c0.6-1,1-2.1,1.1-3.3
			c0.2-1.2,0.2-2.4,0.2-3.6v-2.1c0-0.7,0-1.5-0.1-2.2l2.1,0.8h0.5c0-0.8,0-1.6-0.2-2.4c0.7,0.2,1.3,0.3,1.6,0.4
			c0.2,0,0.4,0.1,0.5,0.2c0,0,0,0.1-0.1,0.2l-0.2,0.2v1.4h0.7l0.4-0.4c0-0.1,0.1-0.1,0.1-0.2c0.2-0.2,0.3-0.3,0.3-0.3
			c0.1,0,0.3,0.2,0.8,0.7s0.7,0.7,0.7,0.8c-0.1,0.1-0.3,0.2-0.5,0.2c-0.5,0.5-1.1,1-1.8,1.4l-0.1-0.1c0-0.2,0.1-0.7,0.2-1.3
			c0-0.2,0-0.3,0-0.4h-0.8v2.7h0.3l0.4-0.5c0,0,0.1-0.1,0.1-0.2c0.2-0.2,0.3-0.3,0.4-0.3s0.4,0.2,0.8,0.6s0.7,0.7,0.7,0.8
			c-0.1,0.1-0.3,0.2-0.5,0.3c-0.3,1.3-0.9,2.6-1.7,3.7c0.8,0.6,1.7,1.1,2.6,1.4l0,0.2c-0.8,0.1-1.3,0.7-1.7,1.7
			c-0.8-0.6-1.5-1.2-2-2.1C101,59.4,99.6,60.1,98.1,60.4z M100.3,52.8h0.8v-2.7h-0.8V52.8z M102.2,56.2c0.5-0.9,0.8-2,0.9-3h-2.3
			C101.1,54.3,101.6,55.3,102.2,56.2L102.2,56.2z"/>
		<path class="st0" d="M112,60.4l-1-1.8c0.5,0,1-0.1,1.6-0.2v-1.1c-0.9,0.2-1.8,0.4-2.7,0.5l-0.1-0.2c0.9-0.3,1.7-0.7,2.4-1.1
			c0.7-0.4,1.2-0.9,1.8-1.4c-0.1,0.1-0.2,0.1-0.3,0.1h-2.4l-0.1-0.3c-1,1-2.1,2-3.3,2.9c0,0.2-0.2,0.4-0.3,0.4l-0.9-2.2
			c0,0,0,0,0.1,0c0.6-0.1,1-0.3,1.4-0.4v-4.1h-0.4c-0.2,0-0.5,0.1-0.7,0.2l-0.4-0.7c0.3,0.1,0.6,0.1,1,0.1h0.5v-0.9
			c0-0.9,0-1.9-0.2-2.8c0.8,0.2,1.4,0.3,1.7,0.4c0.2,0,0.4,0.1,0.6,0.2c0,0,0,0.1-0.1,0.2l-0.2,0.2v2.5l0.5-0.9
			c0.1,0.1,0.3,0.3,0.4,0.4c0.3,0.3,0.5,0.6,0.7,0.9c0-0.6,0-1.3-0.1-1.9l1.8,0.7h4l0.7-0.8h-4.7c-0.7,0-1.4,0.1-2.1,0.2l-0.3-0.7
			c0.5,0.1,1.1,0.1,1.8,0.1h1.7c0-0.6,0-1.2-0.1-1.8c0.7,0.1,1.3,0.3,1.6,0.4c0.2,0,0.4,0.1,0.5,0.2c0,0,0,0.1-0.1,0.2l-0.2,0.2V49
			h1.1l0.4-0.6c0.1-0.1,0.1-0.1,0.1-0.2c0.2-0.3,0.3-0.4,0.4-0.4s0.4,0.2,0.9,0.6c0.5,0.4,0.7,0.7,0.7,0.8c0,0.1-0.2,0.2-0.4,0.2
			H118c0.4,0.3,0.9,0.6,1.3,1c0.1,0.1,0.1,0.2,0,0.3l-0.3,0.1v0.6c0,0.1,0,0.3,0,0.5c0,0.3,0,0.5,0,0.6c0,0.1-0.2,0.2-0.5,0.3
			c-0.3,0.1-0.6,0.1-0.9,0.2h-0.3v-0.4h-4.2v0.1c0,0.1-0.1,0.2-0.4,0.3c-0.3,0.1-0.6,0.2-0.9,0.2c-0.1,0-0.3-0.1-0.3-0.2
			c0,0,0,0,0-0.1c0-0.1,0-0.3,0.1-0.5c0-0.1,0-0.2,0-0.2v-0.5c-0.1,0.1-0.2,0.1-0.3,0.1H110v3.5c0.2-0.1,0.5-0.2,0.8-0.3l0.6-0.2
			l0,0.1l-0.1,0.1h1l0.6-0.8l1.1,1c0,0,0,0.1-0.1,0.1c0.1-0.1,0.2-0.2,0.2-0.2c0,0,0,0,0.1-0.1l0,0c0-0.7,0-1.5-0.1-2.2
			c0.6,0.1,1.3,0.3,1.9,0.5c0.2,0.1,0.2,0.2,0.1,0.2l-0.2,0.1V55c0,0.1-0.2,0.2-0.5,0.2l1.2,0.4c-0.1,0.2-0.3,0.3-0.7,0.3l-0.1,0
			c0.2,0.4,0.5,0.8,0.8,1.1c0.4-0.5,0.7-1,1-1.5l1.7,1.3c-0.1,0.1-0.2,0.2-0.5,0.1c-0.2,0.1-0.7,0.2-1.4,0.4l-0.5,0.1
			c0.8,0.6,1.6,1,2.6,1.3l0,0.2c-0.7,0.2-1.1,0.8-1.3,1.7c-0.7-0.4-1.3-1-1.7-1.8c-0.5-0.8-0.8-1.7-1-2.6c-0.4,0.3-0.9,0.5-1.3,0.7
			v1.5c0.7-0.1,1.3-0.2,1.9-0.2v0.2c-1,0.6-2.2,1.2-3.9,1.9C112.3,60.3,112.2,60.4,112,60.4z M111.6,54.2l-0.4-0.7
			c0.3,0.1,0.6,0.1,0.9,0.1h0.4l0.3-0.4c0,0,0-0.1,0.1-0.1c0.1-0.2,0.2-0.3,0.3-0.3s0.3,0.1,0.6,0.4c0.3,0.3,0.4,0.4,0.4,0.5
			c0,0.2-0.1,0.2-0.3,0.2h-1.6C112,54.1,111.8,54.1,111.6,54.2z M113.1,52.1h0.4v-1.6h-0.4V52.1z M114.9,52.1h0.5v-1.6h-0.5V52.1z
			 M116.5,54.2l-0.3-0.7c0.3,0.1,0.6,0.1,0.9,0.1h0.4l0.2-0.4c0,0,0-0.1,0.1-0.1c0.1-0.2,0.2-0.3,0.3-0.3s0.3,0.1,0.6,0.4
			c0.3,0.3,0.5,0.4,0.5,0.5c0,0.2-0.2,0.2-0.3,0.2h-1.7C117,54.1,116.8,54.1,116.5,54.2z M116.5,55.5l-0.3-0.7
			c0.3,0.1,0.6,0.1,0.9,0.1h0.4l0.3-0.4c0,0,0.1-0.1,0.1-0.1c0.1-0.2,0.2-0.3,0.3-0.3s0.3,0.1,0.6,0.4c0.3,0.3,0.5,0.5,0.5,0.6
			c0,0.1-0.2,0.2-0.3,0.2h-0.8C117.6,55.3,117,55.3,116.5,55.5L116.5,55.5z M116.8,52.1h0.5v-1.6h-0.5V52.1z"/>
		<path class="st0" d="M123.9,60.5l-0.1-0.1c1.5-1,2.5-2.6,2.7-4.4c-0.4,0.5-0.8,0.8-1.1,1.1c-0.1,0.2-0.2,0.3-0.4,0.4l-0.7-2.2
			c0.6-0.1,1.4-0.2,2.3-0.4c0-0.3,0-0.6,0-0.8v-0.8h-0.5c-0.3,0-0.5,0.1-0.8,0.2l-0.4-0.7c0.4,0.1,0.7,0.1,1.1,0.1h0.5v-2.3h-1.2
			l0.2,0.2c0,0.1-0.1,0.2-0.3,0.2h-1.5v2c0.2-0.1,0.5-0.1,0.8-0.3c0.2-0.1,0.4-0.1,0.5-0.2l0,0.1c-0.4,0.4-0.9,0.8-1.4,1.2v4.5
			c0,0.7-0.1,1.2-0.3,1.4c-0.3,0.3-0.9,0.6-1.7,0.6c0-0.4-0.1-0.9-0.2-1.3c-0.2-0.3-0.5-0.5-0.9-0.6v-0.2c0.4,0,0.8,0,1.3,0.1
			c0.2,0,0.2-0.1,0.2-0.2v-3l-0.5,0.3c0,0.2-0.2,0.3-0.4,0.4l-0.7-2.2c0.2,0,0.5-0.1,1.1-0.3c0.2-0.1,0.4-0.1,0.5-0.1V51h-0.4
			c-0.2,0-0.5,0.1-0.7,0.2l-0.4-0.7c0.3,0.1,0.7,0.1,1,0.1h0.5V50c0-0.9,0-1.9-0.2-2.8c0.8,0.2,1.3,0.3,1.7,0.4
			c0.2,0,0.4,0.1,0.6,0.3c0,0,0,0.1-0.1,0.2l-0.2,0.2v2.4l0.7-1.3c0.2,0.3,0.5,0.6,0.7,0.9l0-0.1h1.4c0-0.9,0-1.9-0.2-2.8
			c0.8,0.2,1.4,0.3,1.7,0.4c0.2,0,0.4,0.1,0.6,0.2c0,0,0,0.1-0.1,0.2l-0.2,0.2V54c0,1.6-0.4,2.9-1,3.9
			C126.7,59.1,125.5,59.9,123.9,60.5z M129.6,60.4c-0.3,0-0.5-0.1-0.5-0.3c0.1-1.2,0.1-2.4,0.2-3.6v-6.4c0-0.9,0-1.9-0.2-2.8
			c0.8,0.2,1.4,0.3,1.8,0.4c0.2,0,0.4,0.1,0.6,0.2c0,0,0,0.1-0.1,0.2l-0.2,0.2v1.8h0.1l0.4-0.6c0,0,0.1-0.1,0.1-0.2
			c0.2-0.3,0.3-0.4,0.3-0.4c0.1,0,0.3,0.2,0.7,0.6c0.4,0.4,0.6,0.7,0.6,0.8c0,0.2-0.1,0.2-0.4,0.2h-2v2.4h0.1l0.3-0.6
			c0-0.1,0.1-0.1,0.1-0.2c0.2-0.3,0.3-0.4,0.3-0.4s0.3,0.2,0.7,0.6c0.4,0.4,0.6,0.7,0.6,0.8c0,0.1-0.2,0.2-0.4,0.2h-1.9v2.8h0.2
			l0.4-0.7l0.2-0.2c0.2-0.3,0.3-0.4,0.3-0.4s0.3,0.2,0.8,0.7c0.4,0.4,0.6,0.7,0.6,0.8s-0.2,0.2-0.4,0.2h-2.1v1.1
			c0,0.9,0,1.6,0.1,2.1c0,0.1-0.2,0.3-0.6,0.5C130.3,60.3,129.9,60.4,129.6,60.4L129.6,60.4z"/>
		<path class="st0" d="M139.4,60.4c-0.1-0.7-0.2-1.2-0.4-1.4c-0.1-0.2-0.3-0.3-0.5-0.4c-0.3-0.1-0.6-0.2-0.9-0.3v-0.2l2,0.1
			c0.2,0,0.3-0.1,0.3-0.3v-5.9l-0.3,0c-0.7,3.3-2.4,5.7-5.1,7l-0.1-0.1c0.9-0.9,1.7-2,2.2-3.2c0.5-1.2,0.9-2.6,1.1-3.9h-0.9
			c-0.6,0-1.1,0.1-1.7,0.2l-0.4-0.7c0.5,0.1,1.1,0.1,1.8,0.1h1l0.9-1l1.4,1.2v-1.6c0-0.9,0-1.9-0.2-2.8c0.8,0.2,1.4,0.3,1.8,0.4
			c0.2,0,0.4,0.1,0.6,0.2c0,0,0,0.1-0.1,0.2l-0.2,0.2v1.3c0.2,1.2,0.6,2.4,1.1,3.5c0.7-1.1,1.4-2.3,1.9-3.5l2.1,1.5
			c-0.1,0.2-0.2,0.2-0.5,0.2c-1,0.9-2.2,1.6-3.4,2.3c0.9,1.6,2.4,2.9,4.1,3.6l-0.1,0.2c-0.4,0.1-0.8,0.3-1,0.6
			c-0.3,0.3-0.5,0.8-0.6,1.2c-1-0.9-1.8-2-2.4-3.3c-0.6-1.3-1-3.1-1.3-5.3v7.7c0,0.8-0.1,1.3-0.4,1.6
			C141.1,60.1,140.4,60.3,139.4,60.4z"/>
		<path class="st0" d="M148.7,50.7l-0.4-0.7c0.5,0.1,1.1,0.1,1.8,0.1h2.2l0.4-0.5c0,0,0.1-0.1,0.1-0.2c0.2-0.2,0.3-0.3,0.3-0.3
			s0.3,0.2,0.7,0.5c0.4,0.4,0.6,0.6,0.6,0.7s-0.1,0.2-0.4,0.2h-3.8C149.8,50.5,149.2,50.6,148.7,50.7z M149.3,60.4
			c-0.2,0-0.3-0.1-0.3-0.3c0-0.4,0.1-0.9,0.1-1.6v-0.9c0-0.9,0-1.9-0.2-2.8l1.9,0.8h0.9l0.4-0.4c0.1-0.1,0.1-0.1,0.1-0.2
			c0.2-0.2,0.3-0.3,0.3-0.3c0.3,0.1,0.6,0.3,0.8,0.5c0.5,0.4,0.7,0.6,0.7,0.7c-0.1,0.1-0.3,0.2-0.5,0.3v1c0,0.9,0,1.5,0.1,2
			c-0.2,0.2-0.4,0.3-0.6,0.3c-0.3,0.1-0.6,0.2-0.9,0.2c-0.2,0-0.4-0.1-0.4-0.3c0-0.1,0-0.1,0-0.2c0-0.1,0-0.1,0-0.1V59h-1.1v0.3
			c0,0.1,0,0.2,0,0.3c0,0.1,0,0.1,0,0.2c0,0.1-0.2,0.3-0.5,0.4C150,60.4,149.7,60.4,149.3,60.4L149.3,60.4z M149.4,52.5l-0.4-0.7
			c0.5,0.1,1.1,0.1,1.8,0.1h0.8l0.3-0.5l0.1-0.2c0.2-0.2,0.3-0.4,0.3-0.4c0.1,0,0.3,0.2,0.7,0.5s0.6,0.6,0.6,0.7
			c0,0.1-0.2,0.2-0.4,0.2h-2.8C150.2,52.3,149.8,52.4,149.4,52.5L149.4,52.5z M149.4,54.3l-0.4-0.7c0.5,0.1,1.1,0.1,1.8,0.1h0.8
			l0.3-0.5c0,0,0.1-0.1,0.1-0.2c0.2-0.2,0.3-0.4,0.3-0.4c0.1,0,0.3,0.2,0.7,0.5s0.6,0.6,0.6,0.7s-0.2,0.2-0.4,0.2h-2.8
			C150.2,54.1,149.8,54.2,149.4,54.3L149.4,54.3z M149.4,48.9l-0.4-0.7c0.5,0.1,1,0.1,1.7,0.1h0.8l0.3-0.5l0.1-0.2
			c0.2-0.2,0.3-0.3,0.3-0.3c0.1,0,0.3,0.2,0.7,0.5c0.4,0.4,0.6,0.6,0.6,0.7c0,0.1-0.1,0.2-0.4,0.2h-1.9
			C150.8,48.7,150.1,48.8,149.4,48.9L149.4,48.9z M150.8,58.7h1.1v-2.6h-1.1L150.8,58.7z M153,60.4l-0.1-0.2
			c1.3-0.6,2.4-1.6,3.3-2.7c-0.6-1.1-1.1-2.3-1.3-3.5h-0.3c-0.2,0-0.3,0.1-0.4,0.2l-0.4-0.7c0.5,0.1,1.1,0.1,1.8,0.1h2.1l0.5-0.5
			c0,0,0.1-0.1,0.1-0.1c0.2-0.3,0.4-0.4,0.5-0.4s0.4,0.2,0.9,0.7c0.5,0.5,0.8,0.7,0.8,0.8c-0.1,0.2-0.3,0.2-0.6,0.2
			c-0.4,1.1-1,2.1-1.7,3c1,0.5,2,0.9,3,1.1l0,0.2c-0.8,0.2-1.4,0.8-1.6,1.8c-1-0.4-1.9-1.1-2.6-1.9C155.8,59.4,154.5,60.1,153,60.4
			L153,60.4z M153.9,53.4l-0.1-0.1c0.4-0.6,0.7-1.3,0.8-2c0.1-0.6,0.1-1.3,0.1-1.9v-0.9c0-0.3,0-0.6-0.1-0.9l2.1,0.8h0.6l0.4-0.4
			c0-0.1,0.1-0.1,0.1-0.2c0.2-0.2,0.3-0.3,0.3-0.3c0.3,0.1,0.5,0.3,0.8,0.5c0.4,0.4,0.6,0.6,0.6,0.7c-0.1,0.1-0.2,0.2-0.4,0.2v1.8
			c0,0.1,0,0.2,0.1,0.2h0.4c0.1,0,0.2-0.1,0.2-0.1c0.2-0.5,0.4-1,0.6-1.5h0.1l0,1.5c0.1,0.1,0.3,0.2,0.3,0.3
			c0.1,0.1,0.1,0.3,0.1,0.4c0,0.7-0.6,1.1-1.8,1.1h-0.6c-0.5,0-0.9-0.1-1-0.3c-0.2-0.4-0.2-0.7-0.2-1.1v-2.3h-1.1v0.6
			C156.4,51.3,155.6,52.6,153.9,53.4L153.9,53.4z M156.9,56.5c0.4-0.8,0.8-1.6,1-2.5h-2.7C155.5,55,156.1,55.8,156.9,56.5
			L156.9,56.5z"/>
		<path class="st0" d="M162.3,60.4l-0.2-0.2c0.7-1.3,1.2-2.8,1.4-4.4c0.2-1.6,0.2-3.1,0.2-4.7v-0.6h-0.5c-0.3,0-0.5,0.1-0.7,0.2
			l-0.4-0.7c0.5,0.1,0.9,0.1,1.4,0.1h0.7v-0.1c0-0.9,0-1.9-0.2-2.8c0.7,0.1,1.5,0.3,2.2,0.5c0.2,0.1,0.3,0.2,0.1,0.2l-0.2,0.1v2h0.1
			l0.9-1.4l1.3,1.2c0.2-0.5,0.3-1,0.3-1.4c0.1-0.4,0.1-0.9,0.1-1.4c0.8,0.3,1.5,0.5,1.9,0.6c0.2,0.1,0.4,0.2,0.6,0.3
			c0,0,0,0.1-0.1,0.1l-0.3,0.1c-0.2,0.5-0.5,1-0.8,1.5h2.1l0.4-0.7c0.1-0.1,0.1-0.1,0.1-0.2c0.2-0.3,0.4-0.5,0.4-0.5
			c0.1,0,0.4,0.2,0.9,0.7s0.8,0.7,0.8,0.8c0,0.1-0.2,0.2-0.4,0.2H170c-0.4,0.5-0.8,0.9-1.2,1.3c0.5,0.1,1,0.2,1.5,0.4
			c0.1,0.1,0.1,0.2,0,0.2l-0.2,0.2v1.2l0.7-0.3v-1.3c0-0.5,0-0.9-0.1-1.4c0.6,0.1,1.2,0.3,1.7,0.5c0.2,0.1,0.2,0.2,0,0.3l-0.2,0.2
			v1.2l0.5-0.2l0.1,0l0.3-0.4c0,0,0.1-0.1,0.1-0.1c0.2-0.2,0.3-0.3,0.3-0.3c0.3,0.1,0.5,0.3,0.7,0.5c0.4,0.3,0.6,0.6,0.6,0.7
			c-0.1,0.1-0.3,0.2-0.5,0.2c0,0.9,0,1.9-0.1,2.8c0,0.4-0.2,0.8-0.5,1.1c-0.4,0.3-0.8,0.4-1.3,0.4c0-0.4,0-0.7-0.1-1.1
			c-0.1-0.1-0.1-0.2-0.2-0.3v0.5c0,0.1,0,0.2,0,0.4c0,0.2,0,0.4,0,0.5s-0.2,0.2-0.4,0.3c-0.2,0.1-0.5,0.2-0.8,0.2
			c-0.3,0-0.4-0.1-0.4-0.3c0.1-0.8,0.1-1.7,0.1-2.5v-1.4l-0.7,0.3v4.2c0,0.1,0,0.2,0.1,0.3c0.2,0.1,0.3,0.1,0.5,0.1h1.4
			c0.5,0,0.9,0,1.1,0c0.2,0,0.3-0.1,0.4-0.2c0.3-0.4,0.5-0.8,0.6-1.3h0.2l0.1,1.3c0.4,0.2,0.6,0.4,0.6,0.7c0,0.4-0.3,0.7-0.6,0.8
			c-0.5,0.2-1.3,0.3-2.5,0.3h-1.5c-0.7,0-1.2-0.1-1.5-0.3c-0.2-0.2-0.4-0.6-0.4-1.2v-4.1l-0.7,0.3c0,1.1-0.1,2.3-0.3,3.4
			c-0.1,0.5-0.3,1.1-0.7,1.5c-0.5,0.4-1.1,0.6-1.8,0.6c0-0.6-0.1-1-0.2-1.2c-0.2-0.3-0.5-0.5-0.9-0.6
			C163.5,59.2,162.9,59.9,162.3,60.4z M165.1,58.4c0.2,0,0.3,0,0.4-0.2c0.2-0.2,0.3-0.7,0.4-1.5s0.2-2.2,0.2-4h-0.7
			c-0.1,2.4-0.6,4.2-1.4,5.6c0.1,0,0.2,0,0.4,0C164.8,58.4,165,58.4,165.1,58.4L165.1,58.4z M167.8,54.4l0.7-0.3v-2.5
			c-0.2,0.2-0.5,0.3-0.7,0.5l-0.1-0.1c0.3-0.5,0.5-1,0.7-1.5h-2.8c0,0.8,0,1.4-0.1,1.8h0.5l0.4-0.5c0,0,0.1-0.1,0.1-0.1
			c0.2-0.2,0.4-0.3,0.4-0.3c0.1,0,0.4,0.2,0.8,0.6c0.4,0.4,0.7,0.7,0.7,0.8c-0.1,0.2-0.4,0.3-0.6,0.3
			C167.9,53.5,167.8,54,167.8,54.4L167.8,54.4z M172.1,55.6h0.3c0.1,0,0.2,0,0.3-0.1c0.1-0.2,0.1-0.5,0.1-0.7c0-0.3,0-1,0-2.1
			l-0.7,0.3L172.1,55.6z"/>
		<path class="st0" d="M89.8,82.1L89.7,82c1.1-1.4,1.8-3.4,1.9-5.8c-0.3,0.6-0.6,1.2-1,1.9c0,0.2-0.1,0.4-0.3,0.5l-0.9-2.2
			c0.5-0.2,1.2-0.6,2.3-1.2c0-0.2,0-0.6,0-1V72c0-0.7,0-1.5-0.1-2.2l2.3,1h1.9c0-0.6,0-1.3-0.1-1.9c0.9,0.1,1.5,0.3,1.9,0.4
			c0.2,0,0.4,0.1,0.6,0.2c0,0,0,0.1-0.1,0.2l-0.3,0.2v0.9h1.9l0.4-0.6c0,0,0.1-0.1,0.1-0.2c0.2-0.3,0.4-0.5,0.4-0.5
			c0.1,0,0.4,0.2,0.9,0.6c0.5,0.4,0.7,0.7,0.7,0.8c0,0.2-0.2,0.2-0.4,0.2h-8.3v3c0,1.4-0.1,2.8-0.6,4.2
			C92.4,79.9,91.3,81.3,89.8,82.1z M90.1,74.2c0.1-0.9,0-1.9-0.4-2.8l0.1-0.1c0.6,0.3,1.2,0.7,1.5,1.3c0.2,0.4,0.3,0.8,0.2,1.2
			c-0.1,0.3-0.3,0.6-0.6,0.7C90.7,74.6,90.3,74.5,90.1,74.2L90.1,74.2z M99.4,82.1c0-0.4-0.1-0.8-0.3-1.2c-0.3-0.3-0.7-0.5-1.2-0.6
			v-0.2l1.7,0.1c0.2,0,0.3-0.1,0.3-0.3v-1.5c-0.1,0.2-0.3,0.4-0.6,0.4c-0.3,0-0.6-0.1-0.8-0.3c0-0.7-0.1-1.3-0.4-1.9
			c-0.4,1.2-1.3,2.1-2.4,2.7l-0.2-0.2c0.4-0.5,0.7-1.2,0.9-1.8c0.2-0.7,0.3-1.4,0.3-2.2h-1.2v2.9c0,1.1,0.1,2.2,0.1,3.3
			c-0.1,0.2-0.3,0.4-0.6,0.4c-0.3,0.2-0.7,0.2-1,0.2c-0.1,0-0.2,0-0.3-0.1c-0.1,0-0.1-0.1-0.1-0.2c0,0,0-0.1,0-0.2
			c0.1-1,0.1-2,0.1-3v-1.8c0-0.9,0-1.9-0.2-2.8l2,0.8h1.1c0-0.2,0-0.6,0-1.1v-0.6h-0.9c-0.6,0-1.2,0.1-1.7,0.2l-0.3-0.7
			c0.5,0.1,1.1,0.1,1.8,0.1h4.2l0.4-0.6c0,0,0.1-0.1,0.2-0.2c0.2-0.3,0.3-0.4,0.3-0.4c0.1,0,0.4,0.2,0.8,0.6
			c0.5,0.4,0.7,0.6,0.7,0.7c0,0.1-0.2,0.2-0.4,0.2h-3.4c0,0.8,0,1.4-0.1,1.7h1.4l0.4-0.5c0,0,0.1-0.1,0.1-0.1
			c0.2-0.2,0.3-0.3,0.4-0.3c0.3,0.1,0.6,0.3,0.9,0.6c0.5,0.4,0.8,0.6,0.8,0.7c-0.1,0.2-0.3,0.3-0.5,0.3v4.7c0,0.6-0.1,1.1-0.4,1.3
			C100.9,81.9,100.3,82,99.4,82.1L99.4,82.1z M99.8,77.4v-2.2h-1.5c0,0.3-0.1,0.7-0.2,0.9C99,76.5,99.5,76.9,99.8,77.4L99.8,77.4z"
			/>
		<path class="st0" d="M109.6,82.1c0-0.7-0.1-1.1-0.2-1.3c-0.3-0.3-0.6-0.5-1.1-0.6v-0.2c0.5,0,0.9,0,1.4,0.1c0.2,0,0.2-0.1,0.2-0.2
			v-3.2h-0.8V77c0,0.1-0.1,0.2-0.3,0.3c-0.2,0.1-0.5,0.2-0.7,0.3c0.5,0.2,1,0.5,1.5,0.8c0.1,0.1,0.1,0.2,0,0.2l-0.2,0.1
			c-0.5,0.6-1.1,1.2-1.7,1.6c-0.7,0.5-1.5,0.9-2.4,1.2l-0.1-0.1c0.6-0.5,1.1-1.1,1.5-1.8c0.4-0.6,0.7-1.3,1-2c-0.1,0-0.1,0-0.2,0
			h-0.3v-3.4c0-0.9,0-1.9-0.2-2.8l2.1,0.8h0.6c0-0.6,0.1-1.2,0-1.8h-3.4v2.9c0,1.5-0.1,3-0.4,4.4c-0.4,1.6-1.3,3.1-2.6,4.2l-0.1-0.1
			c0.6-1.3,0.9-2.8,1.1-4.2c0.1-1.1,0.2-2.5,0.2-4.4v-2.1c0-0.7,0-1.5-0.1-2.2l2.3,1h6.4l0.5-0.7c0.1-0.1,0.1-0.2,0.2-0.2
			c0.2-0.3,0.3-0.4,0.4-0.4s0.4,0.2,0.9,0.7c0.5,0.4,0.8,0.7,0.8,0.8c0,0.1-0.2,0.2-0.4,0.2h-4.8c0.4,0.1,0.9,0.2,1.3,0.3
			c0.1,0.1,0.1,0.1,0,0.2l-0.2,0.1c-0.1,0.1-0.1,0.2-0.3,0.3c-0.2,0.3-0.5,0.6-0.8,0.9h1.8l0.4-0.5c0,0,0.1-0.1,0.2-0.2
			c0.2-0.2,0.3-0.3,0.3-0.3c0.3,0.1,0.6,0.4,0.9,0.6c0.5,0.4,0.8,0.7,0.8,0.8c-0.1,0.2-0.3,0.3-0.5,0.3v1.3c0,1,0,1.8,0.1,2.4
			c-0.2,0.2-0.4,0.3-0.6,0.4c-0.3,0.1-0.7,0.2-1,0.2h-0.3v-0.5h-0.8V80c0,0.7-0.1,1.2-0.4,1.5C111.2,81.8,110.5,82,109.6,82.1z
			 M109.2,74.3h3.5v-1.6h-3.5V74.3z M109.2,76.3h3.5v-1.7h-3.5V76.3z M114.1,81c-0.2-0.6-0.4-1.1-0.8-1.6c-0.3-0.5-0.7-1-1.1-1.4
			l0.1-0.1c0.9,0.1,1.8,0.4,2.6,0.9c0.5,0.3,0.8,0.8,0.8,1.3c0.1,0.4-0.1,0.8-0.5,1C114.9,81.4,114.5,81.3,114.1,81z"/>
		<path class="st0" d="M125.5,82.1c0-0.4-0.1-0.9-0.2-1.3c-0.2-0.3-0.5-0.5-0.9-0.6v-0.1c-0.1,0.3-0.3,0.6-0.7,0.7
			c-0.4,0.1-0.8,0-1.1-0.3c0-0.7-0.2-1.4-0.6-2.1l0.1-0.1c0.7,0,1.3,0.3,1.9,0.7c0.3,0.2,0.5,0.6,0.4,1c0.5,0,0.9,0.1,1.2,0.1
			c0.1,0,0.2-0.1,0.2-0.2v-1.6h-2.6c-0.7,0-1.4,0.1-2.1,0.2l-0.4-0.7c0.5,0.1,1.1,0.1,1.8,0.1h3.2c0-0.5,0-0.9-0.1-1.4
			c0.7,0.1,1.4,0.3,2.1,0.5c0.2,0.1,0.2,0.2,0.1,0.2l-0.2,0.1v0.5h0.1l0.7-0.9c-0.2-0.3-0.4-0.7-0.7-1c-1.1,0.3-3,0.8-5.6,1.4
			c-0.1,0.2-0.2,0.3-0.4,0.3l-0.7-1.9c0.6,0,1.7,0,3.4-0.1v-1h-0.9v0.2c0,0.1-0.2,0.2-0.5,0.4c-0.4,0.2-0.7,0.2-1.1,0.2
			c-0.2,0-0.3-0.1-0.3-0.3c0-0.4,0.1-0.8,0.1-1.3v-0.8c0-0.8,0-1.6-0.2-2.4l2.1,0.8h0.8v-0.9h-3.1l-0.1-0.3
			c-0.3,0.8-0.7,1.6-1.2,2.4c0.2,0.1,0.4,0.3,0.6,0.5c0,0.1,0,0.2-0.1,0.2l-0.2,0.1v4.4c0,1.1,0.1,2.2,0.1,3.3
			c-0.2,0.2-0.4,0.3-0.6,0.4c-0.3,0.1-0.7,0.2-1,0.2c-0.3,0-0.5-0.1-0.5-0.3c0.1-1.2,0.1-2.4,0.2-3.6v-3c-0.4,0.5-0.9,0.9-1.3,1.3
			l-0.1-0.1c0.7-1.5,1.3-3,1.7-4.6c0.1-0.5,0.3-1,0.3-1.5c0.1-0.5,0.1-1,0.2-1.4c0.9,0.3,1.5,0.5,1.9,0.6c0.2,0.1,0.5,0.2,0.7,0.3
			c0,0,0,0.1-0.1,0.1l-0.3,0.1l-0.2,0.4h3.1c0-0.5,0-1.1-0.1-1.6c0.8,0.2,1.4,0.3,1.7,0.4c0.2,0,0.4,0.1,0.6,0.2c0,0,0,0.1-0.1,0.2
			l-0.2,0.2v0.6h1l0.4-0.7c0,0,0.1-0.1,0.1-0.2c0.2-0.3,0.4-0.5,0.4-0.5c0.1,0,0.4,0.2,0.9,0.7s0.8,0.7,0.8,0.8
			c0,0.1-0.2,0.2-0.4,0.2H128l1.7,1.3c-0.1,0.1-0.3,0.2-0.5,0.3v2.4c0,0-0.1,0.1-0.4,0.2c-0.2,0.1-0.5,0.1-0.7,0.2
			c0.5,0,1,0.3,1.4,0.6c0.2,0.2,0.3,0.6,0.3,0.9c-0.1,0.3-0.3,0.5-0.6,0.6c0.4,0.3,0.7,0.6,1.1,0.9c0,0.1-0.2,0.2-0.4,0.2h-2.2v1.6
			c0,0.7-0.1,1.2-0.4,1.4C127,81.9,126.4,82.1,125.5,82.1z M123.6,73.1h0.9v-1h-0.9V73.1z M123.6,74.5h0.9v-1h-0.9V74.5z
			 M126.3,71.7h0.8l0.8-0.9h-1.6V71.7z M126.3,73.1h0.9v-1h-0.9V73.1z M126.3,74.5h0.9v-1h-0.9V74.5z M126.3,75.9l1.1,0
			c-0.2-0.2-0.4-0.4-0.6-0.6l0.1-0.1c0.1,0,0.2,0,0.3,0v-0.2h-0.9L126.3,75.9z"/>
		<path class="st0" d="M136.8,82.1c-0.3,0-0.5-0.1-0.5-0.3c0-0.4,0.1-1,0.1-1.7v-1c-1.3,1.2-3,2-5.2,2.6l-0.1-0.1
			c0.9-0.5,1.7-1.1,2.4-1.8c0.7-0.7,1.2-1.4,1.7-2.2h-1.6c-0.7,0-1.4,0.1-2.1,0.2l-0.3-0.7c0.5,0.1,1.1,0.1,1.8,0.1h3.4
			c0-0.6,0-1.1-0.1-1.7c0.8,0.2,1.5,0.3,1.9,0.4c0.2,0,0.4,0.1,0.6,0.2c0,0,0,0.1-0.1,0.2l-0.3,0.2v0.7h2.4l0.5-0.6
			c0.1-0.1,0.1-0.2,0.2-0.3c0.2-0.3,0.3-0.4,0.4-0.4c0.1,0,0.4,0.2,0.9,0.7c0.5,0.4,0.8,0.7,0.8,0.8c0,0.1-0.2,0.2-0.4,0.2h-4.6
			c0.7,0.6,1.5,1.1,2.3,1.4c0.9,0.4,1.9,0.6,2.8,0.7l0,0.2c-0.4,0.1-0.7,0.3-0.9,0.7c-0.3,0.4-0.5,0.8-0.5,1.2
			c-0.9-0.3-1.6-0.9-2.3-1.5c-0.6-0.7-1.2-1.4-1.5-2.3v1.3c0,1.1,0.1,1.9,0.1,2.4c-0.1,0.1-0.3,0.2-0.6,0.4
			C137.6,82.1,137.2,82.1,136.8,82.1z M132.1,72.4c0-0.3-0.1-0.6-0.2-0.9c-0.1-0.3-0.3-0.5-0.5-0.7l0.1-0.1c0.9-0.1,1.5,0,1.9,0.3
			c0.3,0.2,0.5,0.5,0.4,0.9c-0.1,0.3-0.3,0.6-0.6,0.7C132.8,72.7,132.4,72.6,132.1,72.4L132.1,72.4z M133.1,76.5
			c-0.2,0-0.3,0-0.5-0.1c-0.1-0.1-0.3-0.2-0.3-0.4c0.2-1,0.1-1.5-0.2-1.7c-0.2-0.1-0.4-0.2-0.6-0.2v-0.2h0.7c0.1,0,0.2,0,0.3,0
			c0.1-0.1,0.2-0.1,0.2-0.2c0.3-0.3,1.3-1.5,3.2-3.7l0.2,0.1c-0.1,0.3-0.4,0.8-0.9,1.5c-0.6,1-0.9,1.6-1,1.8
			c-0.2,0.3-0.2,0.6-0.3,0.9c0,0.2,0.1,0.3,0.2,0.5c0.2,0.3,0.3,0.6,0.3,0.9c0,0.2-0.1,0.5-0.3,0.6
			C133.8,76.4,133.5,76.5,133.1,76.5L133.1,76.5z M133.6,70.8c-0.2-0.6-0.5-1.2-1.1-1.5l0.1-0.1c0.8-0.2,1.5-0.2,1.9,0.1
			c0.3,0.1,0.5,0.4,0.5,0.8c0,0.3-0.2,0.6-0.4,0.8C134.3,70.9,133.9,71,133.6,70.8L133.6,70.8z M134.5,76.2l-0.1-0.2
			c1.6-1.1,2.6-2.6,2.8-4.7h-0.6c-0.3,0-0.6,0.1-0.9,0.2l-0.4-0.7c0.4,0.1,0.8,0.1,1.3,0.1h0.6c0-0.7,0-1.4-0.1-2.1
			c0.8,0,1.4,0.1,1.8,0.1c0.2,0,0.4,0.1,0.6,0.2c0,0,0,0.1-0.1,0.2l-0.2,0.2c0,0.5-0.1,1-0.1,1.5h0.6l0.4-0.5c0-0.1,0.1-0.1,0.1-0.2
			c0.2-0.2,0.3-0.3,0.4-0.3c0.3,0.1,0.6,0.3,0.8,0.6c0.5,0.4,0.7,0.6,0.7,0.7c-0.1,0.1-0.3,0.2-0.4,0.2v2c0,0.1,0.1,0.2,0.2,0.2h0.4
			c0.1,0,0.2,0,0.2-0.1c0.2-0.4,0.4-0.9,0.6-1.3h0.1l0,1.4c0.2,0.1,0.3,0.2,0.4,0.3c0.1,0.1,0.1,0.3,0.1,0.4c0,0.7-0.6,1.1-1.9,1.1
			h-0.6c-0.6,0-1-0.1-1.1-0.3C140,75,140,74.6,140,74v-2.6h-0.8c-0.2,1-0.6,2-1.3,2.8C137.1,75.1,136,75.8,134.5,76.2L134.5,76.2z"
			/>
		<path class="st0" d="M150.6,82.1c-2.7-1.6-4.1-3.8-4.1-6.6c0-2.8,1.4-5,4.1-6.6l0.2,0.2c-0.8,0.7-1.5,1.6-1.9,2.5
			c-1,2.4-1,5.2,0,7.6c0.5,1,1.1,1.8,1.9,2.5L150.6,82.1z"/>
		<path class="st0" d="M153.1,74.6c-0.1-0.4-0.2-0.8-0.5-1.2c-0.2-0.4-0.4-0.7-0.7-1l0.1-0.1c0.7,0,1.5,0.2,2.1,0.5
			c0.4,0.2,0.6,0.6,0.6,1c0,0.3-0.2,0.7-0.5,0.8C153.8,74.9,153.4,74.8,153.1,74.6z M153.9,82.1c-0.4,0-0.8-0.3-0.9-0.7
			c0.1-0.6,0.2-1.3,0.2-1.9c0-0.6-0.1-0.9-0.3-1c-0.2-0.2-0.5-0.2-0.7-0.2v-0.2h0.7c0.1,0,0.2,0,0.2,0c0.1-0.1,0.2-0.1,0.2-0.2
			c0.2-0.3,0.4-0.7,0.7-1.3c0.3-0.6,1.2-2.4,2.8-5.4l0.2,0.1c-0.3,0.9-0.7,2-1.2,3.4c-0.4,1.3-0.7,2.2-0.9,2.6
			c-0.1,0.5-0.2,0.9-0.3,1.4c0,0.3,0.1,0.6,0.3,0.9c0.2,0.5,0.4,1,0.3,1.5c0,0.3-0.1,0.7-0.4,0.9C154.6,82,154.2,82.1,153.9,82.1
			L153.9,82.1z M154.5,71.6c-0.1-0.4-0.3-0.8-0.6-1.2c-0.2-0.4-0.5-0.7-0.8-1l0.1-0.1c0.8,0,1.5,0.1,2.2,0.5c0.4,0.2,0.6,0.6,0.6,1
			c0,0.3-0.2,0.7-0.5,0.8C155.3,71.8,154.8,71.8,154.5,71.6L154.5,71.6z M155.4,82.1l-0.1-0.2c2.3-0.8,4.3-2.3,5.7-4.4
			c0.3-0.5,0.5-1,0.7-1.5c0.2-0.5,0.3-1,0.4-1.5l1.3,0.7c0.4,0.1,0.7,0.3,1,0.6c0.1,0.1,0,0.2-0.1,0.2l-0.3,0.1
			c-0.8,1.7-2,3.2-3.6,4.2C159,81.4,157.2,82,155.4,82.1L155.4,82.1z M159,77.9c0-0.5-0.1-0.9-0.3-1.4c-0.3-0.3-0.7-0.6-1.1-0.6
			v-0.2l1.5,0.1c0.2,0,0.3-0.1,0.3-0.2V72c-0.1,0-0.2,0-0.3,0c-0.8,1.9-1.8,3.4-3.2,4.4l-0.2-0.1c0.3-0.8,0.6-1.5,0.9-2.4
			c0.1-0.5,0.2-1,0.3-1.5c0.1-0.5,0.1-1,0.1-1.5l2.3,0.7c0-0.9,0-1.8-0.2-2.6c0.8,0.2,1.4,0.3,1.7,0.4c0.2,0,0.4,0.1,0.6,0.2
			c0,0,0,0.1-0.1,0.2l-0.2,0.2v5.8c0,0.7-0.1,1.2-0.4,1.5C160.6,77.6,160,77.9,159,77.9z M162.9,74.5c-0.1-0.6-0.2-1.3-0.5-1.9
			c-0.2-0.6-0.6-1.1-0.9-1.6l0.1-0.1c0.9,0.2,1.8,0.6,2.5,1.3c0.4,0.4,0.7,0.9,0.6,1.5c0,0.4-0.2,0.8-0.6,1
			C163.8,75,163.4,74.9,162.9,74.5z"/>
		<path class="st0" d="M166.5,82.1v-10c0-0.9,0-1.9-0.2-2.8l2.1,0.9h1.2l0.4-0.4c0,0,0.1-0.1,0.1-0.1c0.2-0.2,0.3-0.3,0.4-0.3
			c0.3,0.1,0.6,0.3,0.8,0.5c0.5,0.4,0.7,0.6,0.7,0.7c-0.1,0.2-0.3,0.2-0.5,0.3v1.4c0,1.2,0.1,2.1,0.1,2.7c-0.2,0.2-0.4,0.3-0.6,0.3
			c-0.3,0.1-0.6,0.2-0.9,0.2c-0.2,0-0.4-0.1-0.4-0.3c0,0,0-0.1,0-0.2c0,0,0-0.1,0-0.1v-0.3h-1.4v6.8c0,0.1-0.2,0.3-0.5,0.5
			c-0.3,0.2-0.7,0.3-1.1,0.3L166.5,82.1z M168.4,72.2h1.4v-1.6h-1.4V72.2z M168.4,74.2h1.4v-1.7h-1.4V74.2z M175.2,82.1
			c-0.1-0.7-0.2-1.2-0.5-1.4c-0.2-0.2-0.4-0.3-0.6-0.4c-0.3-0.1-0.7-0.2-1-0.3v-0.2l2.4,0.1c0.2,0,0.3-0.1,0.3-0.2c0,0,0,0,0-0.1v-5
			h-1.5v0.2c0,0.1-0.2,0.2-0.5,0.3c-0.3,0.2-0.7,0.2-1.1,0.2c-0.2,0-0.3-0.1-0.3-0.3c0-0.5,0.1-1.1,0.1-1.9v-1.1
			c0-0.9,0-1.9-0.2-2.8l2,0.8h1.3l0.4-0.5c0,0,0.1-0.1,0.2-0.2c0.2-0.2,0.3-0.3,0.3-0.3c0.3,0.2,0.6,0.4,0.9,0.6
			c0.5,0.4,0.8,0.7,0.8,0.8c-0.1,0.2-0.3,0.3-0.5,0.3v9c0,0.7-0.1,1.2-0.4,1.5C176.9,81.8,176.2,82,175.2,82.1L175.2,82.1z
			 M174.3,72.2h1.5v-1.6h-1.5V72.2z M174.3,74.2h1.5v-1.7h-1.5V74.2z"/>
		<path class="st0" d="M190.9,82.1c-0.5-0.1-0.9-0.3-1.3-0.6c-1.9-1.3-3-3.5-3.4-6.5h-2.8v4.3c1.5-0.2,2.7-0.4,3.7-0.6l0,0.1
			c-1.8,1.1-3.7,2-5.6,2.8c-0.1,0.2-0.2,0.3-0.4,0.3l-1.3-2.2c0.5,0,1-0.1,1.6-0.2v-6.9c0-0.9,0-1.9-0.2-2.8l2.3,0.9
			c1.1-0.3,2.1-0.6,3.2-0.9c0.9-0.3,1.7-0.6,2.5-1l1.9,1.9c-0.2,0.2-0.5,0.2-1,0c-0.7,0.1-1.4,0.2-2.3,0.3c0,1.2,0,2.4,0.2,3.6h1.4
			l1.1-1.4c0.6,0.5,1.3,1,1.9,1.5c0,0.1-0.2,0.2-0.4,0.2h-3.9c0.4,2.2,1.2,3.7,2.5,4.5c0.1,0.1,0.4,0.1,0.5,0c0,0,0,0,0,0
			c0.3-0.5,0.6-1.1,0.9-1.7l0.1,0l-0.3,2.3c0.2,0.3,0.4,0.6,0.5,0.9c0.1,0.2,0,0.5-0.2,0.7C191.9,82.1,191.4,82.2,190.9,82.1z
			 M183.4,74.7h2.7c-0.1-1.2-0.2-2.3-0.2-3.5c-0.9,0.1-1.8,0.1-2.5,0.1L183.4,74.7z"/>
		<path class="st0" d="M197.2,72.3c-0.2,0-0.4-0.1-0.4-0.3c0-0.1,0-0.2,0-0.3c0-0.1,0-0.2,0-0.3V71h-1.1c-0.7,0-1.3,0.1-2,0.2
			l-0.3-0.7c0.5,0.1,1.1,0.1,1.8,0.1h1.6c0-0.6,0-1.2-0.1-1.7c0.8,0.2,1.3,0.3,1.7,0.4c0.2,0,0.4,0.1,0.6,0.2c0,0,0,0.1-0.1,0.2
			l-0.2,0.1v0.8h2.1c0-0.6,0-1.2-0.1-1.7c0.8,0.1,1.4,0.3,1.7,0.4c0.2,0,0.4,0.1,0.6,0.2c0,0,0,0.1-0.1,0.2l-0.2,0.2v0.8h0.9
			l0.4-0.6c0.1-0.1,0.1-0.1,0.1-0.2c0.2-0.3,0.3-0.4,0.4-0.4c0.1,0,0.4,0.2,0.8,0.6s0.7,0.7,0.7,0.8c0,0.1-0.2,0.2-0.4,0.2h-3v0.3
			c0,0.1,0,0.2,0,0.3c0,0.1,0,0.1,0,0.2c0,0.1-0.2,0.2-0.5,0.3c-0.4,0.1-0.8,0.2-1.1,0.2c-0.2,0-0.4-0.1-0.4-0.3c0-0.1,0-0.2,0-0.3
			c0-0.1,0-0.2,0-0.2V71h-2.1v0.3c0,0.1,0,0.2,0,0.3s0,0.2,0,0.2c0,0.1-0.2,0.2-0.5,0.3C197.9,72.3,197.6,72.3,197.2,72.3z
			 M194.9,82.1c-0.1,0-0.2,0-0.3-0.1c-0.1,0-0.1-0.1-0.1-0.2c0.1-1.2,0.1-2.4,0.2-3.6v-3.4c0-0.9,0-1.9-0.2-2.8l2.2,0.9h6.4l0.4-0.5
			c0,0,0.1-0.1,0.1-0.1c0.2-0.3,0.3-0.4,0.4-0.4c0.1,0,0.4,0.2,0.9,0.6c0.5,0.4,0.8,0.7,0.8,0.8c-0.1,0.2-0.3,0.3-0.5,0.3v4.6
			c0,1.1,0.1,2.2,0.1,3.3c-0.2,0.2-0.4,0.3-0.6,0.4c-0.3,0.1-0.7,0.2-1.1,0.2c-0.2,0-0.4-0.1-0.4-0.3c0-0.1,0-0.1,0-0.2
			c0-0.1,0-0.1,0-0.2V81h-6.7v0.5c0,0.1-0.2,0.3-0.5,0.4C195.7,82,195.3,82.1,194.9,82.1L194.9,82.1z M196.5,80.6h6.7v-7.3h-6.7v6.1
			c0.9-0.8,1.6-1.8,2-3h-0.6c-0.4,0-0.7,0.1-1.1,0.2l-0.4-0.7c0.5,0.1,1,0.1,1.7,0.1h0.8v-1c-0.8,0-1.5,0.1-2.1,0.1l0-0.2
			c0.8-0.2,1.6-0.4,2.4-0.7c0.7-0.2,1.3-0.5,2-0.9l1.4,1.5c-0.2,0.1-0.5,0.1-0.8,0c-0.3,0.1-0.7,0.1-1.2,0.2V76h0.5l0.3-0.5
			c0,0,0.1-0.1,0.1-0.2c0.2-0.2,0.3-0.3,0.3-0.3c0.1,0,0.3,0.2,0.7,0.5c0.4,0.3,0.6,0.6,0.6,0.7c0,0.1-0.2,0.2-0.4,0.2h-2.2V77
			c0.7,0,1.3,0.2,1.8,0.6c0.3,0.2,0.5,0.6,0.5,0.9c0,0.3-0.2,0.6-0.4,0.7c-0.3,0.2-0.7,0.1-0.9-0.1c-0.1-0.7-0.5-1.4-0.9-1.9v0.9
			c0,0.1,0,0.3,0,0.5c0,0.5,0,0.9,0.1,1.1c-0.1,0.1-0.3,0.3-0.4,0.3c-0.3,0.1-0.7,0.2-1,0.2c-0.2,0-0.4-0.1-0.4-0.3
			c0-0.2,0-0.4,0.1-0.8c0-0.1,0-0.3,0-0.4v-0.7c-0.7,0.6-1.6,1.2-2.5,1.5l0-0.1L196.5,80.6z"/>
		<path class="st0" d="M207.5,82.1l-0.2-0.2c0.8-0.7,1.5-1.6,1.9-2.5c1-2.4,1-5.2,0-7.6c-0.5-1-1.1-1.8-1.9-2.5l0.2-0.2
			c2.7,1.6,4.1,3.8,4.1,6.6C211.6,78.4,210.2,80.6,207.5,82.1z"/>
		<polygon class="st0" points="85,31.7 79.3,28.4 79.3,35 		"/>
		<polygon class="st0" points="85,53.3 79.3,50 79.3,56.6 		"/>
		<polygon class="st0" points="85,74.9 79.3,71.6 79.3,78.2 		"/>
	</g>
</g>
</svg>
