<?xml version="1.0" encoding="utf-8"?>
<!-- Generator: Adobe Illustrator 25.4.1, SVG Export Plug-In . SVG Version: 6.00 Build 0)  -->
<svg version="1.1" id="圖層_1" xmlns="http://www.w3.org/2000/svg" xmlns:xlink="http://www.w3.org/1999/xlink" x="0px" y="0px"
	 viewBox="0 0 283.5 44.1" style="enable-background:new 0 0 283.5 44.1;" xml:space="preserve">
<style type="text/css">
	.st0{fill:#333333;}
	.st1{fill:none;stroke:#333333;stroke-miterlimit:10;}
</style>
<g id="圖層_2_00000143606113522675020900000009801469782916947120_">
	<g id="尾巴標示">
		<path class="st0" d="M4.3,41l-0.9-2.1l1-0.3l0.4-0.2v-3.1H4.2c-0.3,0-0.5,0.1-0.7,0.2l-0.3-0.7c0.3,0.1,0.6,0.1,0.9,0.1h0.4
			l0.9-1.2l1.8,1.5c-0.2,0.2-0.4,0.3-0.7,0.3v2.3c0.2,0.2,0.5,0.4,0.8,0.6v-2.7c0-0.9,0-1.9-0.2-2.8l2,0.8h1.3v-1.3H9.7v0.2
			c0,0.1-0.2,0.2-0.5,0.3c-0.3,0.1-0.7,0.2-1,0.2c-0.2,0-0.3-0.1-0.3-0.3C7.9,32.5,8,32,8,31.4v-0.8c0-0.9,0-1.8-0.2-2.7l2,0.8h2.9
			l0.4-0.5c0,0,0.1-0.1,0.1-0.1c0.2-0.2,0.3-0.3,0.3-0.3c0.3,0.1,0.6,0.3,0.9,0.6c0.5,0.4,0.7,0.6,0.7,0.7c-0.1,0.2-0.3,0.3-0.5,0.3
			v1c0,0.8,0,1.5,0.1,2c-0.2,0.2-0.4,0.3-0.6,0.3c-0.3,0.1-0.6,0.2-1,0.2h-0.3v-0.5h-0.7v1.3h1.3l0.4-0.4c0.1-0.1,0.1-0.1,0.1-0.2
			c0.2-0.2,0.3-0.3,0.3-0.3c0.3,0.1,0.6,0.3,0.9,0.6c0.5,0.4,0.7,0.6,0.7,0.7c-0.1,0.2-0.3,0.3-0.5,0.3V37c0,0.4-0.1,0.9-0.3,1.3
			c-0.3,0.3-0.9,0.5-1.7,0.6c0-0.4-0.1-0.8-0.2-1.1c-0.2-0.3-0.5-0.5-0.9-0.5V37c0.4,0,0.8,0,1.1,0.1c0.1,0,0.2-0.1,0.2-0.2v-0.2
			c-0.1,0.1-0.3,0.1-0.5,0.1c-0.2,0-0.4-0.2-0.5-0.3c0-0.2,0-0.4,0-0.6c-0.5,0.2-1.4,0.6-2.6,1c-0.1,0.2-0.2,0.3-0.4,0.3L9,35.6v2.4
			c0,0.1-0.1,0.2-0.4,0.3c-0.3,0.1-0.6,0.2-0.9,0.2c0.4,0.1,0.9,0.2,1.3,0.2c0.4,0,1.1,0.1,1.9,0.1c2.4,0,4.1,0,5.2-0.1V39
			c-0.7,0.2-1.1,0.7-1.2,1.6h-4c-1.3,0-2.3-0.2-2.9-0.5c-0.6-0.3-1.2-1-1.6-2.1c-0.5,0.9-1.2,1.7-1.8,2.5C4.5,40.8,4.4,40.9,4.3,41z
			 M5.1,33.1c-0.2-0.4-0.4-0.8-0.7-1.1c-0.3-0.3-0.6-0.6-0.9-0.9l0.1-0.1c0.7-0.1,1.5,0,2.2,0.3c0.4,0.2,0.7,0.5,0.7,0.9
			c0.1,0.3-0.1,0.7-0.3,0.8C5.8,33.2,5.4,33.3,5.1,33.1z M5.6,30.2c-0.2-0.4-0.4-0.8-0.7-1.1c-0.2-0.3-0.5-0.7-0.8-0.9L4.2,28
			c0.7-0.1,1.5,0,2.1,0.3c0.4,0.2,0.6,0.5,0.7,0.9c0,0.3-0.1,0.7-0.4,0.8C6.3,30.3,5.9,30.4,5.6,30.2z M10.4,35.4v-1.3H9v1.3
			C9.2,35.4,9.7,35.4,10.4,35.4z M9.7,30.4h0.7v-1.3H9.7V30.4z M9.7,32.1h0.7v-1.3H9.7V32.1z M12.1,30.4h0.7v-1.3h-0.7V30.4z
			 M12.1,32.1h0.7v-1.3h-0.7V32.1z M12.1,35.4h0.4c-0.1-0.3-0.2-0.7-0.3-1l0.1-0.1c0.5,0.1,0.9,0.4,1.2,0.7v-1h-1.5V35.4z"/>
		<path class="st0" d="M17.3,41L17.3,41c0.6-1,1-2,1.2-3.2c0.2-1.1,0.3-2.2,0.2-3.2v-2.2c-0.5,0.3-1,0.6-1.6,0.8L17.1,33
			c0.9-0.7,1.7-1.6,2.3-2.7c0.5-0.8,0.9-1.7,1.1-2.7c0.8,0.2,1.6,0.4,2.4,0.7c0.2,0.1,0.3,0.2,0.1,0.2l-0.3,0.1l-0.1,0.1
			c-0.1,0.2-0.2,0.3-0.3,0.4h2.2l0.4-0.4l0.1-0.1c0.2-0.2,0.3-0.3,0.4-0.3c0.3,0.1,0.6,0.3,0.8,0.6c0.4,0.4,0.7,0.6,0.7,0.7
			c-0.1,0.1-0.3,0.2-0.5,0.2c-0.1,0.4-0.2,0.8-0.4,1.2c-0.2,0.3-0.4,0.5-0.7,0.7c-0.3,0.1-0.6,0.2-0.9,0.2H27l1-1.4l0.7,0.6
			c0.5,0.4,0.9,0.8,1.2,1c0,0.1-0.2,0.2-0.4,0.2h-8.7v2.2c0,1.1-0.1,2.3-0.5,3.3C19.6,39.2,18.6,40.3,17.3,41z M21,32h2.6
			c0-0.2,0-0.3-0.1-0.5c0-0.1-0.1-0.2-0.2-0.3c-0.2-0.2-0.6-0.4-1.3-0.5l0-0.2c0.6,0.1,1.1,0.1,1.7,0.1c0.1,0,0.3,0,0.4-0.1
			c0.2-0.1,0.3-0.4,0.5-0.9h-2.6c-0.6,0.7-1.4,1.4-2.2,2L21,32z M23.9,40.7c-0.9,0-1.6-0.1-1.9-0.3s-0.5-0.7-0.5-1.4v-3.3
			c0-0.9,0-1.9-0.2-2.8l2.2,0.9h2.1l0.4-0.4c0,0,0.1-0.1,0.2-0.2c0.2-0.2,0.3-0.3,0.3-0.3c0.3,0.1,0.6,0.3,0.8,0.6
			c0.4,0.4,0.7,0.6,0.7,0.7c-0.1,0.1-0.3,0.2-0.5,0.2c0,0.7-0.1,1.5-0.2,2.2c-0.1,0.4-0.3,0.7-0.6,1c-0.5,0.3-1,0.4-1.6,0.4
			c0-0.6-0.1-1-0.2-1.2c-0.2-0.3-0.6-0.5-0.9-0.5v-0.2c0.4,0,0.8,0.1,1.2,0.1c0.1,0,0.2,0,0.3-0.1c0.1-0.1,0.2-0.8,0.2-1.9h-2.4v4.5
			c0,0.1,0,0.2,0.1,0.3c0.2,0.1,0.4,0.1,0.6,0.1h2c0.8,0,1.3,0,1.5,0c0.2,0,0.4-0.1,0.6-0.2c0.3-0.4,0.6-0.9,0.8-1.5H29l0.1,1.4
			c0.2,0.1,0.4,0.2,0.6,0.3c0.1,0.1,0.2,0.3,0.2,0.4c0,0.5-0.3,0.8-0.8,0.9c-0.5,0.2-1.6,0.3-3.2,0.3L23.9,40.7z"/>
		<path class="st0" d="M42.5,40.9c-0.4-0.2-0.8-0.4-1.1-0.7c-0.3-0.3-0.5-0.6-0.8-0.9c-0.9,0.7-2,1.3-3.2,1.6l-0.1-0.2
			c1.1-0.6,2-1.4,2.7-2.4c-0.4-0.8-0.7-1.7-0.9-2.6h-0.9c0,0.4-0.1,0.8-0.2,1.2c0.5,0.1,0.9,0.3,1.3,0.7c0.2,0.2,0.3,0.6,0.2,0.8
			c-0.1,0.3-0.3,0.5-0.6,0.5c-0.3,0.1-0.6,0-0.9-0.2c0-0.4,0-0.8-0.2-1.1c-0.5,1.5-1.6,2.8-3,3.5l-0.1-0.2c0.7-0.7,1.1-1.6,1.4-2.6
			c0.2-0.8,0.3-1.7,0.3-2.6h-0.5c-0.1,0.3-0.3,0.4-0.5,0.5c-0.3,0.1-0.6,0-0.8-0.3c0-0.7-0.1-1.4-0.4-2.1v3.3c0,1.1,0.1,2.2,0.1,3.3
			c-0.1,0.2-0.3,0.3-0.5,0.4c-0.3,0.1-0.6,0.2-0.9,0.2c-0.3,0-0.5-0.1-0.5-0.3c0-0.1,0-0.1,0-0.2c0.1-1,0.1-1.9,0.1-2.9v-1.7
			c-0.4,0.7-1,1.3-1.6,1.8l-0.2-0.1c0.7-1.4,1.2-3.3,1.5-5.8H32c-0.2,0-0.4,0.1-0.6,0.2L31,31.2c0.3,0.1,0.7,0.1,1.1,0.1h0.5v-0.8
			c0-0.9,0-1.9-0.2-2.8c0.8,0.2,1.3,0.3,1.7,0.4c0.2,0,0.4,0.1,0.6,0.2c0,0,0,0.1-0.1,0.2l-0.2,0.2v2.4l0.2-0.5c0,0,0.1-0.1,0.1-0.1
			c0.1-0.2,0.2-0.3,0.3-0.3s0.3,0.2,0.6,0.6c0.2,0.2,0.4,0.5,0.5,0.8c0,0.1-0.1,0.2-0.3,0.2h-1.3v1.7c0.5,0.2,1,0.5,1.3,0.9
			c0.2,0.3,0.4,0.6,0.4,0.9h3c0-0.1-0.1-0.3-0.1-0.6l-0.1-0.5c-0.1,0.1-0.3,0.1-0.4,0.1c-0.2,0-0.4-0.1-0.5-0.3c0-0.2,0-0.4,0-0.6
			c-0.4,0.3-0.9,0.6-1.4,1c-0.1,0.2-0.2,0.3-0.4,0.3L35.3,33c0.1,0,0.3,0,0.5,0s0.4,0,0.5,0c0.1-0.2,0.2-0.5,0.3-0.8
			c0.1-0.3,0.1-0.5,0.2-0.6c-0.3,0.1-0.6,0-0.8-0.2c0-0.3-0.1-0.6-0.2-0.9c-0.1-0.3-0.3-0.5-0.4-0.7l0.1-0.1c0.2,0,0.5,0.1,0.7,0.1
			c0.1-0.7,0.2-1.3,0.2-2c0.6,0.2,1.1,0.4,1.7,0.7c0.2,0.1,0.2,0.2,0,0.2l-0.2,0.1c-0.4,0.5-0.8,0.9-1.1,1.2
			c0.2,0.1,0.3,0.3,0.5,0.4l0.2-0.7l1.2,0.5c0-1.1,0-1.9,0-2.4c0.6,0,1.2,0.1,1.9,0.3c0.2,0.1,0.2,0.1,0.1,0.2l-0.2,0.2
			c0,0.3,0,0.7,0,1.2l0,0c0.2,0,0.4,0.1,0.5,0.1c0.1-0.6,0.2-1.3,0.2-2c0.6,0.2,1.2,0.4,1.7,0.7c0.2,0.1,0.2,0.2,0,0.3l-0.3,0.1
			c-0.4,0.4-0.7,0.7-1.1,1.1c0.2,0.1,0.3,0.2,0.5,0.4l0.1-0.4l0-0.1c0.1-0.2,0.1-0.3,0.2-0.3c0.3,0.1,0.6,0.2,0.9,0.3
			c0.5,0.2,0.8,0.4,0.8,0.5c-0.1,0.2-0.3,0.3-0.5,0.2c-0.2,0.2-0.5,0.6-0.8,1h0.1c0.5,0.2,0.9,0.5,1.2,0.9c0.2,0.3,0.2,0.6,0.2,0.9
			c-0.1,0.2-0.2,0.4-0.5,0.5c-0.3,0-0.6-0.1-0.7-0.3c0-0.2,0-0.4,0-0.7c-0.4,0.3-0.8,0.5-1.3,0.8c0.4,0,0.7,0.1,1,0.3
			c0.2,0.1,0.2,0.4,0.1,0.6c-0.1,0.2-0.2,0.4-0.5,0.4c-0.3,0.1-0.5,0-0.8-0.1c0-0.3-0.1-0.6-0.3-0.8c0,0-0.1,0-0.1,0l-0.5-1.5
			c0.1,0.9,0.2,1.8,0.4,2.7h1.4l0.3-0.5c0,0,0.1-0.1,0.1-0.2c0.1-0.2,0.2-0.3,0.3-0.3c0.1,0,0.3,0.2,0.6,0.5
			c0.3,0.3,0.5,0.6,0.5,0.7c0,0.1-0.1,0.2-0.3,0.2h-1.8c0.5,0.2,0.9,0.4,1.4,0.7c0.1,0.1,0.1,0.2-0.1,0.2l-0.3,0.1
			c-0.2,0.5-0.5,1-0.9,1.4c0.1,0.2,0.3,0.3,0.5,0.5c0.1,0.1,0.2,0.1,0.2,0.1c0.1,0,0.1-0.1,0.2-0.2c0.3-0.6,0.6-1.1,0.8-1.7l0.2,0
			l-0.3,2.4c0.4,0.8,0.5,1.3,0.3,1.6C43.4,41,43,41.1,42.5,40.9z M36.8,33l0.9-0.1c0-0.2-0.1-0.4-0.2-0.7v0c0,0.1-0.1,0.1-0.1,0.2
			L36.8,33z M38.6,32.5c0-0.2,0-0.6-0.1-1.1c0-0.2,0-0.4,0-0.5c-0.1,0.1-0.2,0.2-0.3,0.4c-0.2,0.3-0.4,0.5-0.5,0.6
			C38,32.1,38.3,32.3,38.6,32.5z M40.2,32.5h0.7c0.1-0.2,0.2-0.5,0.3-0.9c-0.2,0-0.5,0-0.7-0.2c0-0.3,0-0.5-0.1-0.8
			c-0.1-0.3-0.2-0.5-0.4-0.7C40.1,30.8,40.2,31.7,40.2,32.5z M41,36.4c0.1-0.2,0.2-0.4,0.3-0.8h-0.6C40.8,35.9,40.9,36.2,41,36.4z
			 M41.5,32.4l0.9,0c-0.1-0.3-0.1-0.5-0.2-0.8C41.9,32,41.7,32.3,41.5,32.4z"/>
		<path class="st0" d="M48,41c-0.3,0-0.4-0.1-0.4-0.3c0.1-0.9,0.1-1.9,0.1-3v-1.6c-0.2,0.1-0.4,0.1-0.7,0.1h-0.3v-3.7
			c-0.5,0.2-1.1,0.4-1.6,0.6L45,33c1.4-0.8,2.7-1.9,3.8-3.2c0.6-0.6,0.9-1.4,1.1-2.2c0.9,0.3,1.6,0.4,2,0.6c0.2,0.1,0.4,0.2,0.6,0.3
			c0,0.1,0,0.1-0.2,0.2L52,28.8c0.6,0.5,1.4,0.9,2.6,1.3c1,0.3,2,0.4,3,0.5v0.2c-0.4,0.1-0.7,0.4-0.9,0.8c-0.2,0.3-0.4,0.7-0.4,1.2
			c-0.2-0.1-0.4-0.2-0.5-0.2l0.4,0.3c-0.1,0.1-0.2,0.1-0.3,0.2v0.8c0,0.1,0,0.3,0,0.5c0,0.5,0,0.8,0.1,1.1c0,0.1-0.2,0.2-0.6,0.3
			c-0.3,0.1-0.6,0.2-0.9,0.2H54v-0.4h-5.7v0c0,0.1-0.1,0.2-0.2,0.3l1.5,0.6h3.1l0.4-0.4c0,0,0.1-0.1,0.1-0.1
			c0.2-0.2,0.3-0.3,0.4-0.3c0.3,0.1,0.6,0.3,0.8,0.5c0.5,0.3,0.7,0.6,0.7,0.7C55,36.9,54.9,37,54.8,37v1.1c0,0.9,0,1.6,0.1,2.2
			c-0.1,0.1-0.3,0.3-0.6,0.4c-0.3,0.2-0.7,0.2-1,0.2c-0.3,0-0.4-0.1-0.4-0.3c0,0,0-0.1,0-0.1c0,0,0-0.1,0-0.1v-0.3h-3.2v0.2
			c0,0.1-0.2,0.2-0.5,0.4C48.7,40.9,48.3,41,48,41z M48.6,32.4H54l0.5-0.6c-1.2-0.7-2.1-1.7-2.7-2.9c-0.5,0.6-1.1,1.2-1.7,1.7
			c-0.8,0.6-1.6,1.1-2.4,1.5L48.6,32.4z M48.4,35.2h2v-2.4h-2L48.4,35.2z M48.8,34.7c0.1-0.6,0-1.2-0.3-1.7l0.1-0.1
			c0.5,0.1,1,0.4,1.3,0.8c0.2,0.2,0.3,0.5,0.2,0.8c-0.1,0.2-0.3,0.4-0.5,0.5C49.3,35.1,49,35,48.8,34.7L48.8,34.7z M49.6,31.9
			l-0.4-0.7c0.5,0.1,1,0.1,1.5,0.1h0.7l0.3-0.5c0,0,0.1-0.1,0.1-0.2c0.2-0.2,0.3-0.3,0.3-0.3c0.1,0,0.3,0.2,0.7,0.5
			c0.4,0.3,0.6,0.6,0.6,0.7c0,0.1-0.1,0.2-0.3,0.2h-2.4C50.3,31.7,49.9,31.8,49.6,31.9L49.6,31.9z M49.6,38.1h3.3v-1.3h-3.3
			L49.6,38.1z M49.6,39.8h3.3v-1.3h-3.3L49.6,39.8z M52,35.2h0.2c0.2-0.8,0.3-1.5,0.3-2.3l1.6,0.6v-0.6H52L52,35.2z M52.6,35.2h1.5
			v-1.4H54C53.6,34.3,53.1,34.7,52.6,35.2L52.6,35.2z"/>
		<path class="st0" d="M60.8,40.9v-8.7c0-0.9,0-1.9-0.2-2.8l2.3,0.9h0.8c0.1-0.9,0.1-1.8,0.1-2.7c0.9,0.1,1.7,0.3,2.6,0.5
			c0.3,0.1,0.3,0.2,0.2,0.2l-0.2,0.1c-0.6,0.6-1.2,1.2-1.9,1.8h3.2l0.9-1.1l1.8,1.5c-0.2,0.2-0.4,0.3-0.6,0.3v5.8
			c0,1.1,0.1,2.2,0.1,3.3c-0.2,0.2-0.4,0.3-0.7,0.4c-0.4,0.2-0.8,0.2-1.2,0.2c-0.2,0-0.4-0.1-0.4-0.3c0-0.1,0-0.1,0-0.2
			c0-0.1,0-0.2,0-0.2v-0.4h-4.9v0.4c0,0.1-0.2,0.3-0.5,0.5c-0.4,0.2-0.8,0.3-1.2,0.3L60.8,40.9z M62.8,33.3h4.9v-2.5h-4.9V33.3z
			 M62.8,36.3h4.9v-2.6h-4.9V36.3z M62.8,39.4h4.9v-2.7h-4.9V39.4z"/>
		<path class="st0" d="M83.7,40.7c-0.5-0.2-0.9-0.5-1.2-0.9c-0.3-0.4-0.5-0.8-0.8-1.2c-1,1-2.1,1.8-3.4,2.4l-0.1-0.2
			c0.4-0.3,0.8-0.7,1.2-1h-3.9v0.5c0,0.1-0.1,0.2-0.4,0.3c-0.3,0.2-0.7,0.2-1,0.2c-0.3,0-0.5-0.1-0.5-0.3c0,0,0-0.1,0-0.2
			c0.1-1,0.1-2,0.1-3v-1.7c-0.3,0.3-0.7,0.5-1,0.7l-0.2-0.1c0.3-0.5,0.6-1,0.8-1.5c0.2-0.5,0.4-1,0.5-1.5c0.1-0.5,0.2-0.9,0.3-1.4
			c0.7,0.2,1.3,0.5,1.9,0.8c0.2,0.1,0.2,0.2,0,0.3L75.9,33c-0.2,0.3-0.4,0.6-0.6,0.9l0.4,0.1h0.6c0.1-0.7,0.2-1.4,0.2-2.1
			c0.7,0.1,1.3,0.3,1.9,0.6c0.2,0.1,0.2,0.2,0.1,0.2l-0.2,0.1c-0.5,0.4-1,0.8-1.6,1.2H78l0.4-0.5c0-0.1,0.1-0.1,0.1-0.2
			c0.2-0.2,0.3-0.3,0.3-0.3c0.3,0.1,0.5,0.3,0.7,0.5c0.4,0.3,0.6,0.6,0.6,0.7s-0.1,0.2-0.4,0.2H78v1.2l0.3-0.5l0.1-0.1
			c0.2-0.2,0.3-0.4,0.3-0.4c0.1,0,0.3,0.2,0.7,0.5s0.6,0.6,0.6,0.7s-0.2,0.2-0.4,0.2H78v1.3l0.3-0.5l0.1-0.1
			c0.2-0.2,0.3-0.4,0.3-0.4c0.1,0,0.3,0.2,0.7,0.5s0.6,0.6,0.6,0.7c0,0.1-0.2,0.2-0.4,0.2H78v1.5h0.1l0.8-1.1
			c0.4,0.3,0.7,0.6,1.1,0.9c0.5-0.6,0.9-1.2,1.2-1.8c-0.7-1.8-1.1-3.6-1.3-5.5h-4.9c-0.7,0-1.4,0.1-2.1,0.2l-0.4-0.7
			c0.5,0.1,1.1,0.1,1.8,0.1h1.1v-1.6h-0.7c-0.4,0-0.9,0.1-1.3,0.2l-0.4-0.7c0.5,0.1,1,0.1,1.6,0.1h0.8c0-0.6,0-1.2-0.1-1.8
			c0.8,0.1,1.3,0.3,1.7,0.4c0.2,0,0.4,0.1,0.6,0.2c0,0,0,0.1-0.1,0.2l-0.2,0.2v0.9h0.3l0.8-1.1c0.4,0.4,0.9,0.8,1.3,1.2
			c0-0.8,0-1.4,0-1.8c0.7,0,1.4,0.1,2.1,0.2c0.2,0.1,0.2,0.1,0.1,0.2l-0.2,0.2c0,1,0,2.1,0.1,3.1h0.7l0.8-1
			c-0.1-0.1-0.2-0.1-0.3-0.2c-0.1-0.7-0.3-1.4-0.8-1.9l0.1-0.1c0.9,0.1,1.5,0.3,1.9,0.6c0.3,0.2,0.4,0.6,0.4,1
			c-0.1,0.3-0.3,0.6-0.7,0.6c0.2,0.1,0.6,0.4,1.1,0.9c0.2,0.1,0.3,0.2,0.4,0.3c0,0.1-0.2,0.2-0.4,0.2h-3.2c0.1,1,0.2,2,0.5,2.9
			c0.3-0.8,0.4-1.7,0.4-2.6c0.7,0.2,1.4,0.4,2.1,0.7c0.2,0.1,0.2,0.2,0.1,0.2l-0.3,0.1c-0.4,1.2-0.9,2.4-1.5,3.5
			c0.2,0.4,0.5,0.8,0.8,1.1c0.1,0.2,0.3,0.2,0.4,0c0.4-0.5,0.7-1.1,0.9-1.7l0.1,0L85,38.8c0.5,1.1,0.5,1.7,0.2,1.9
			C84.8,41,84.2,41,83.7,40.7z M75.6,35.7h0.8v-1.3h-0.8L75.6,35.7z M75.6,37.5h0.8v-1.4h-0.8L75.6,37.5z M75.6,39.4h0.8v-1.5h-0.8
			L75.6,39.4z M77.4,31.5h2.5c0-0.4-0.1-0.9-0.1-1.6c-0.1,0-0.2,0.1-0.2,0.1h-2.2L77.4,31.5z"/>
		<path class="st0" d="M86.8,40.5l-0.4-0.7c0.5,0.1,1.1,0.1,1.8,0.1h2.2v-8.3h-1.2c-0.7,0-1.4,0.1-2.1,0.2l-0.3-0.7
			c0.5,0.1,1.1,0.1,1.8,0.1h4.9c0-0.1,0.1-0.2,0.1-0.4c0-0.1,0.1-0.2,0.1-0.3c0.2-0.9,0.4-1.9,0.4-2.8c0.9,0.3,1.5,0.4,1.9,0.6
			c0.2,0.1,0.4,0.2,0.6,0.3c0,0,0,0.1-0.1,0.1l-0.3,0.1c-0.7,0.9-1.5,1.7-2.3,2.4H96l1-1.3c0.6,0.5,1.3,1,1.9,1.5
			c0,0.1-0.2,0.2-0.4,0.2h-3.2v8.3h0.9l1.1-1.5c0.7,0.5,1.3,1.1,2,1.6c0,0.1-0.2,0.2-0.4,0.2h-9.9C88.2,40.3,87.5,40.4,86.8,40.5z
			 M88.5,37.4c0-1.5-0.2-3.1-0.6-4.5l0.2-0.1c0.8,0.5,1.5,1.2,1.9,2.1c0.3,0.6,0.4,1.2,0.3,1.9c-0.1,0.5-0.3,0.9-0.7,1
			C89.3,37.9,88.9,37.8,88.5,37.4z M90.5,30.7c-0.1-1-0.5-2-1.1-2.8l0.1-0.1c1,0.2,1.8,0.5,2.3,0.9c0.4,0.3,0.6,0.8,0.5,1.3
			c0,0.4-0.3,0.7-0.6,0.9C91.3,31.1,90.8,31,90.5,30.7L90.5,30.7z M92.5,39.9h0.8v-8.3h-0.8V39.9z M95.6,37.9l-0.2-0.1
			c0.1-0.7,0.3-1.5,0.4-2.2c0.2-1,0.3-2,0.2-3l1.4,0.4c0.4,0.1,0.7,0.2,1,0.3c0.1,0.1,0.1,0.1-0.1,0.2l-0.3,0.1
			C97.5,35.2,96.7,36.6,95.6,37.9L95.6,37.9z"/>
		<path class="st0" d="M100.7,41l-0.1-0.1c0.8-0.4,1.5-1,2.2-1.6c0.6-0.5,1.1-1.1,1.6-1.8h-1.5c-0.7,0-1.4,0.1-2.1,0.2l-0.4-0.7
			c0.5,0.1,1.1,0.1,1.8,0.1h0.9v-6.1c0-0.9,0-1.9-0.2-2.8l2.3,0.9h3.3l0.4-0.5l0.1-0.1c0.2-0.3,0.4-0.4,0.4-0.4s0.4,0.2,0.9,0.6
			s0.8,0.7,0.8,0.8c-0.1,0.2-0.3,0.3-0.5,0.3V37h0l1-1.6c0.2,0.2,0.4,0.4,0.6,0.6c0.5,0.5,0.8,0.8,1.1,1.1c0,0.1-0.2,0.2-0.4,0.2
			h-8.5l2.2,1.2c-0.1,0.2-0.4,0.3-0.8,0.2c-0.7,0.5-1.5,0.9-2.3,1.3C102.6,40.5,101.7,40.8,100.7,41z M105,30.9h3.6v-1.6H105V30.9z
			 M105,32.9h3.6v-1.6H105V32.9z M105,34.9h3.6v-1.6H105V34.9z M105,37h3.6v-1.7H105V37z M110.7,40.5c-0.8-1.1-1.9-2-3.2-2.5
			l0.1-0.2c1.2,0,2.4,0.2,3.6,0.6c0.7,0.3,1.2,0.6,1.5,1c0.2,0.3,0.2,0.7,0,0.9c-0.2,0.3-0.5,0.5-0.8,0.5
			C111.4,41,111,40.8,110.7,40.5z"/>
		<path class="st0" d="M119.2,41c-0.3,0-0.5-0.1-0.5-0.3c0.1-0.9,0.1-2,0.1-3.1v-1.7c-0.4,0.3-0.8,0.6-1.3,0.8V38c0,1,0,1.8,0.1,2.3
			c-0.1,0.2-0.3,0.3-0.6,0.4c-0.3,0.1-0.7,0.2-1,0.2c-0.3,0-0.5-0.1-0.5-0.3c0.1-1.2,0.1-2.4,0.2-3.6v-3.1c-0.4,0.4-0.8,0.8-1.3,1.2
			l-0.1-0.1c0.7-1.4,1.3-2.9,1.7-4.4c0.1-0.5,0.2-1,0.3-1.6c0.1-0.5,0.1-1,0.1-1.5c0.9,0.3,1.5,0.5,1.9,0.6c0.2,0.1,0.5,0.2,0.7,0.3
			c0,0,0,0.1-0.1,0.1l-0.3,0.1c-0.3,1-0.7,1.9-1.2,2.8l0.6,0.2c0,0,0,0.1,0,0.1h1.8v-1.8h-0.4c-0.2,0-0.4,0.1-0.6,0.2l-0.3-0.7
			c0.3,0.1,0.6,0.1,0.9,0.1h0.4c0-0.7,0-1.3-0.1-1.9c0.8,0.2,1.3,0.3,1.7,0.4c0.2,0,0.4,0.1,0.6,0.2c0,0,0,0.1-0.1,0.2l-0.2,0.2v1
			h1.3c0-0.7,0-1.3-0.1-1.9c0.8,0.2,1.3,0.3,1.7,0.4c0.2,0,0.4,0.1,0.5,0.2c0,0,0,0.1-0.1,0.2l-0.2,0.2v1h0.1l0.4-0.6
			c0,0,0.1-0.1,0.1-0.2c0.2-0.2,0.3-0.4,0.3-0.4c0.1,0,0.3,0.2,0.7,0.6c0.4,0.4,0.6,0.6,0.6,0.7c0,0.1-0.1,0.2-0.4,0.2h-1.9V32h0.4
			l0.4-0.6c0.1-0.1,0.1-0.1,0.1-0.2c0.2-0.2,0.3-0.4,0.3-0.4c0.1,0,0.3,0.2,0.7,0.6c0.4,0.4,0.6,0.6,0.6,0.7s-0.2,0.2-0.4,0.2h-5.1
			v0c-0.2,0.4-0.4,0.8-0.6,1.2h3.2l0.4-0.5l0.1-0.1c0.2-0.2,0.3-0.3,0.4-0.3c0.3,0.1,0.6,0.3,0.9,0.6c0.5,0.4,0.8,0.6,0.8,0.7
			c-0.1,0.2-0.3,0.3-0.6,0.3v4.9c0,0.6-0.1,1.1-0.3,1.3c-0.2,0.3-0.8,0.5-1.5,0.6v-0.2c0-0.3,0-0.7-0.1-1c0-0.1-0.1-0.2-0.1-0.3
			c-0.1-0.1-0.2-0.2-0.4-0.2v-0.2c0.2,0,0.3,0,0.5,0s0.2-0.1,0.2-0.2v-1.3h-1v0.8c0,0.1,0,0.3,0,0.5c0,0.5,0,0.8,0.1,1
			c-0.1,0.2-0.3,0.3-0.4,0.3c-0.3,0.1-0.7,0.2-1.1,0.2c-0.3,0-0.4-0.1-0.4-0.3c0-0.4,0.1-1,0.1-1.6v-0.9h-0.9v0.9c0,0.1,0,0.3,0,0.6
			c0,0.5,0,0.9,0.1,1.2c-0.1,0.2-0.3,0.3-0.5,0.4C120,41,119.6,41,119.2,41z M117.6,36.5c1-1.2,1.7-2.6,2.1-4.1H118l-0.1-0.4
			c0,0.1-0.2,0.1-0.4,0.2L117.6,36.5z M120.7,35.5h0.9V34h-0.8l-0.1,0.1L120.7,35.5z M120.7,37.3h0.9v-1.4h-0.9V37.3z M121.5,32h1.3
			v-1.8h-1.3V32z M123.4,35.5h1V34h-1L123.4,35.5z M123.4,37.3h1v-1.4h-1L123.4,37.3z"/>
		<path class="st0" d="M130.2,41c-0.3,0-0.5-0.1-0.5-0.3c0.1-0.8,0.1-1.6,0.1-2.5v-1.4h-0.5c-0.3,0-0.6,0.1-0.9,0.2l-0.4-0.7
			c0.4,0.1,0.8,0.1,1.2,0.1h0.5v-3.1c0-0.9,0-1.9-0.2-2.8l2.3,0.9h1.5v-1.8H131c-0.7,0-1.4,0.1-2.1,0.2l-0.3-0.7
			c0.5,0.1,1.1,0.1,1.8,0.1h7.2l1-1.3l1.9,1.5c0,0.1-0.2,0.2-0.4,0.2h-4.7v1.8h1.7l0.9-1l1.8,1.5c-0.1,0.2-0.4,0.3-0.6,0.3v4
			l0.2-0.4l0.1-0.1c0.1-0.2,0.2-0.3,0.3-0.3c0.1,0,0.3,0.2,0.7,0.6c0.4,0.4,0.6,0.6,0.6,0.7c0,0.1-0.1,0.2-0.3,0.2h-1.6v1.8
			c0,0.7-0.1,1.2-0.4,1.5c-0.3,0.4-1,0.6-2,0.7c0-0.7-0.2-1.2-0.4-1.4c-0.3-0.4-0.8-0.6-1.2-0.7v-0.2c0.6,0,1.2,0.1,1.8,0.1
			c0.2,0,0.3-0.1,0.3-0.3v-1.6h-5.5V38c0,1,0,1.7,0.1,2.3c-0.1,0.2-0.3,0.3-0.5,0.4C131,40.9,130.6,41,130.2,41z M131.8,33.8h1.7
			v-2.1h-1.7V33.8z M131.8,36.4h1.7v-2.2h-1.7V36.4z M135.4,33.8h1.8v-2.1h-1.8V33.8z M135.4,36.4h1.8v-2.2h-1.8V36.4z"/>
		<path class="st0" d="M142.4,40.4l-0.4-0.7c0.5,0.1,1.1,0.1,1.8,0.1h3.5v-4.3h-1.3c-0.7,0-1.4,0.1-2.1,0.2l-0.4-0.7
			c0.5,0.1,1.1,0.1,1.8,0.1h1.8v-3.6h-2c-0.8,1.4-1.9,2.6-3.2,3.5L142,35c0.7-1.2,1.2-2.5,1.6-3.8c0.2-0.5,0.3-1,0.3-1.5
			c0.1-0.5,0.1-1,0.1-1.5c0.9,0.3,1.6,0.5,2,0.6c0.2,0.1,0.5,0.2,0.7,0.3c0.1,0.1,0,0.1-0.1,0.2l-0.3,0.1c-0.2,0.6-0.5,1.3-0.8,1.9
			h1.8v-0.5c0-0.9,0-1.9-0.2-2.8c0.9,0.2,1.5,0.3,2,0.4c0.2,0,0.5,0.1,0.7,0.3c0.1,0,0,0.1-0.1,0.2l-0.2,0.2v2.4h1.6l1.1-1.3
			c0.2,0.2,0.4,0.3,0.7,0.5c0.5,0.4,0.9,0.7,1.2,1c0,0.1-0.2,0.2-0.4,0.2h-4.2v3.6h1.2l1.1-1.4l1.9,1.6c0,0.1-0.2,0.2-0.4,0.2h-3.8
			v4.3h2.2l1.1-1.5c0.7,0.5,1.3,1.1,2,1.6c0,0.1-0.2,0.2-0.4,0.2h-9.9C143.8,40.2,143.1,40.3,142.4,40.4z"/>
		<path class="st0" d="M157.1,40.9c-0.1,0-0.2,0-0.3-0.1c-0.1,0-0.1-0.1-0.1-0.2c0.1-1.2,0.1-2.4,0.2-3.6v-4.5
			c-0.1,0.1-0.2,0.1-0.3,0.2l-0.7-2c0.7,0,1.3,0,1.9,0c0,0,0,0,0,0c0,0,0,0,0,0c0.2-0.9,0.3-1.9,0.2-2.8c0.8,0.1,1.6,0.4,2.3,0.6
			c0.2,0.1,0.3,0.2,0.1,0.3l-0.2,0.1c-0.5,0.7-1.1,1.3-1.7,1.9h0.2c0.9,0,1.6,0,2.1-0.1c-0.2-0.5-0.5-0.9-0.8-1.3l0.1-0.1
			c0.8,0.1,1.5,0.4,2.2,0.8c0.4,0.3,0.6,0.7,0.6,1.2c0,0.4-0.2,0.7-0.5,0.8c-0.4,0.2-0.8,0.1-1.1-0.2c0-0.4-0.1-0.7-0.3-1.1
			c-0.9,0.4-2.2,0.9-3.7,1.4l1.6,0.7h1.3l0.4-0.5c0.1-0.1,0.1-0.1,0.2-0.2c0.2-0.2,0.3-0.3,0.3-0.3c0.3,0.2,0.6,0.4,0.9,0.6
			c0.5,0.4,0.8,0.7,0.8,0.8c-0.1,0.2-0.3,0.3-0.5,0.3v5.1c0,0.7-0.1,1.2-0.3,1.5c-0.3,0.4-0.9,0.6-1.8,0.7c0-0.5,0-0.9-0.2-1.4
			c-0.1-0.3-0.4-0.6-0.8-0.6v-0.2c0.3,0,0.7,0,1,0c0.1,0,0.2-0.1,0.2-0.2v-1.4h-1.5v1c0,0.9,0,1.5,0.1,2c0,0.1-0.2,0.3-0.5,0.4
			C157.8,40.8,157.5,40.9,157.1,40.9z M158.6,34.9h1.5v-1.5h-1.5V34.9z M158.6,36.8h1.5v-1.5h-1.5V36.8z M164.8,34.1
			c-0.7,0-1.2-0.1-1.4-0.3c-0.2-0.2-0.3-0.6-0.3-1.3v-2.3c0-0.8,0-1.6-0.1-2.3c0.7,0.1,1.4,0.3,2.1,0.5c0.2,0.1,0.2,0.2,0.1,0.3
			l-0.2,0.1v1.4c0.6-0.5,1.2-1.1,1.8-1.7l1.7,1.5c-0.2,0.1-0.5,0.1-0.9,0c-0.9,0.3-1.8,0.5-2.6,0.6V32c0,0.1,0,0.1,0.1,0.2
			c0.1,0,0.2,0.1,0.3,0.1h1.5c0.1,0,0.3-0.1,0.4-0.2c0.3-0.4,0.5-0.9,0.6-1.4h0.1l0.1,1.4c0.2,0.1,0.3,0.2,0.5,0.4
			c0.1,0.1,0.1,0.3,0.1,0.4c0,0.4-0.2,0.7-0.6,0.9c-0.7,0.2-1.4,0.3-2.1,0.3L164.8,34.1z M164.8,40.6c-0.7,0-1.2-0.1-1.4-0.3
			c-0.2-0.2-0.3-0.6-0.3-1.3v-2.2c0-0.8,0-1.6-0.1-2.3c0.7,0.1,1.4,0.3,2.1,0.5c0.2,0.1,0.2,0.2,0.1,0.3l-0.2,0.1v1.2
			c0.6-0.6,1.2-1.2,1.7-1.8l1.9,1.5c-0.1,0.2-0.4,0.2-0.9,0.1c-0.9,0.3-1.8,0.6-2.8,0.8v1.4c0,0.1,0,0.1,0.1,0.2
			c0.1,0,0.2,0.1,0.3,0h0.9c0.4,0,0.6,0,0.7,0c0.1,0,0.3,0,0.4-0.2c0.3-0.5,0.5-1,0.7-1.5h0.1l0.1,1.5c0.2,0.1,0.3,0.2,0.5,0.3
			c0.1,0.1,0.1,0.3,0.1,0.4c0,0.4-0.2,0.7-0.6,0.9c-0.7,0.2-1.4,0.3-2.1,0.3L164.8,40.6z"/>
		<path class="st0" d="M170.1,41l-0.1-0.2c1.5-1.1,2.7-2.5,3.5-4.2c0.6-1.5,0.9-3.1,1-4.8h-1.6c-0.7,0-1.4,0.1-2.1,0.2l-0.4-0.7
			c0.5,0.1,1.1,0.1,1.8,0.1h2.2c0-0.2,0-0.4,0-0.8c0-1,0-1.9-0.2-2.9c0.9,0.1,1.5,0.2,2,0.2c0.2,0,0.4,0.1,0.6,0.2
			c0.1,0,0,0.1-0.1,0.2l-0.2,0.2c0,0.2,0,0.6,0,1c0,0.9,0,1.5-0.1,2h2.7l0.5-0.5c0,0,0.1-0.1,0.2-0.2c0.2-0.2,0.3-0.3,0.4-0.3
			s0.4,0.2,0.9,0.7c0.5,0.5,0.8,0.8,0.8,0.9c-0.2,0.2-0.4,0.3-0.6,0.3c0,1.8-0.2,3.6-0.4,5.4c-0.2,1.3-0.5,2.1-0.9,2.5
			c-0.3,0.3-0.6,0.5-0.9,0.6c-0.5,0.1-0.9,0.2-1.4,0.2c0-0.7-0.1-1.2-0.4-1.4c-0.3-0.3-0.9-0.6-1.8-0.8v-0.1
			c1.3,0.1,2.1,0.1,2.5,0.1c0.2,0,0.4-0.1,0.5-0.2c0.2-0.2,0.4-0.9,0.6-2.1c0.1-1,0.2-2.6,0.3-4.6h-2.9c-0.1,2.2-0.6,3.9-1.4,5.2
			C174.2,38.6,172.5,40,170.1,41z"/>
		<path class="st0" d="M81.7,15.4l-0.1-0.1c0.7-1.2,1.2-2.6,1.4-4c0.2-1.4,0.3-2.8,0.2-4.3V4.7c0-0.8,0-1.6-0.2-2.4l2.4,0.8h5.6
			l0.4-0.5c0,0,0.1-0.1,0.2-0.2c0.2-0.2,0.3-0.3,0.3-0.3c0.3,0.1,0.7,0.4,0.9,0.6c0.5,0.4,0.8,0.7,0.8,0.8c-0.1,0.2-0.3,0.3-0.5,0.3
			v0.7c0,0.1,0,0.3,0,0.4c0,0.4,0,0.7,0.1,0.9c0,0.1-0.3,0.2-0.6,0.3c-0.3,0.1-0.7,0.2-1,0.2h-0.3V6h-0.9l1.7,1.6
			c-0.2,0.2-0.5,0.2-0.9,0c-0.6,0.2-1.2,0.3-1.8,0.4v1.5l2.1-0.3l0.3-0.6c0,0,0.1-0.1,0.1-0.2c0.2-0.3,0.3-0.5,0.3-0.5
			C92.5,8,92.8,8.2,93,8.4c0.5,0.3,0.7,0.5,0.7,0.6c0,0.1-0.1,0.2-0.3,0.3l-4.1,0.6v1.7l2.5-0.3l0.4-0.7c0,0,0.1-0.1,0.1-0.2
			c0.2-0.3,0.3-0.5,0.4-0.5c0.3,0.1,0.6,0.3,0.9,0.5c0.5,0.4,0.8,0.6,0.8,0.7c0,0.1-0.1,0.2-0.3,0.3L89.3,12v1.1
			c0,0.1,0,0.2,0.1,0.3c0.1,0.1,0.3,0.1,0.4,0.1h1.3c0.5,0,0.9,0,1,0c0.2,0,0.3-0.1,0.5-0.2c0.3-0.5,0.5-0.9,0.7-1.4h0.1l0.1,1.5
			c0.2,0.1,0.4,0.2,0.5,0.3c0.1,0.1,0.1,0.3,0.1,0.4c0,0.4-0.3,0.7-0.6,0.8c-0.5,0.2-1.3,0.3-2.6,0.3h-1.5c-0.8,0-1.3-0.1-1.6-0.3
			c-0.3-0.2-0.4-0.7-0.4-1.3v-1.3l-2.7,0.4l-0.2-0.4l2.9-0.4v-1.7L85,10.5l0-0.1C84.5,12.6,83.4,14.3,81.7,15.4z M85,10.1l2.5-0.3
			V8.3c-0.9,0.1-1.7,0.2-2.3,0.2C85.1,9,85.1,9.6,85,10.1L85,10.1z M85.2,8.2c0.9-0.3,1.8-0.6,2.7-1C88.6,6.8,89.3,6.4,90,6h-4.8V7
			C85.2,7.6,85.2,7.9,85.2,8.2z M85.2,5.6h6v-2h-6V5.6z"/>
		<path class="st0" d="M100.1,14.9c-1.2,0-2.1-0.2-2.6-0.6c-0.5-0.4-0.8-1.1-0.8-2.2V5.5c0-0.9,0-1.9-0.2-2.8l2.3,0.9h5.9l0.9-1
			l1.8,1.5c-0.2,0.2-0.4,0.3-0.6,0.3v1.5c0,1.3,0.1,2.2,0.1,2.9c-0.2,0.2-0.4,0.3-0.7,0.3c-0.3,0.1-0.7,0.2-1.1,0.2
			c-0.3,0-0.4-0.1-0.4-0.3c0,0,0-0.1,0-0.2c0-0.1,0-0.1,0-0.2V8.3h-6.2v4c0,0.2,0.1,0.5,0.3,0.6c0.4,0.1,0.7,0.2,1.1,0.2h4.2
			c0.3,0,0.7,0,1-0.1c0.2,0,0.4-0.2,0.6-0.3c0.4-0.7,0.8-1.4,1.1-2.1h0.1l0,2.1c0.3,0.1,0.6,0.2,0.9,0.4c0.2,0.1,0.2,0.3,0.2,0.4
			c0,0.5-0.3,0.9-0.7,1.1c-0.6,0.3-1.6,0.4-3,0.4L100.1,14.9z M98.6,7.9h2.2V4h-2.2V7.9z M102.7,7.9h2.1V4h-2.1L102.7,7.9z"/>
		<line class="st1" x1="72" y1="8.5" x2="3.5" y2="8.5"/>
	</g>
</g>
</svg>
