<?xml version="1.0" encoding="utf-8"?>
<!-- Generator: Adobe Illustrator 25.4.1, SVG Export Plug-In . SVG Version: 6.00 Build 0)  -->
<svg version="1.1" id="圖層_1" xmlns="http://www.w3.org/2000/svg" xmlns:xlink="http://www.w3.org/1999/xlink" x="0px" y="0px"
	 viewBox="0 0 283.5 75.9" style="enable-background:new 0 0 283.5 75.9;" xml:space="preserve">
<style type="text/css">
	.st0{fill:#333333;}
	.st1{fill:none;stroke:#333333;stroke-miterlimit:10;}
	.st2{fill:#E9E9E9;}
</style>
<g id="圖層_2_00000101094394541435710440000002219266200096778892_">
	<g id="嘴巴標示">
		<path class="st0" d="M83.9,15.1L83.8,15c0.7-0.4,1.3-1.1,1.7-1.8c0.3-0.7,0.4-1.4,0.4-2.2v-1c-0.5,0.3-1,0.5-1.5,0.7l-0.1-0.1
			c0.6-0.5,1.1-1,1.5-1.6c0.4-0.6,0.8-1.3,1.1-2c-0.1,0-0.2,0.1-0.3,0.1l-0.7,0.3c-0.1,0.2-0.2,0.3-0.4,0.3l-0.7-1.6v1.3
			c0,1.1,0.1,1.9,0.1,2.5c-0.1,0.1-0.3,0.3-0.5,0.3c-0.3,0.1-0.5,0.2-0.8,0.2c-0.2,0-0.3-0.1-0.3-0.3c0,0,0-0.1,0-0.2
			c0,0,0-0.1,0-0.1V9.6h-0.5v0.5c0,0.1,0,0.3,0,0.4c0,0.2,0,0.4,0,0.5c0,0.1-0.2,0.3-0.4,0.4c-0.3,0.1-0.6,0.2-0.9,0.2
			c-0.1,0-0.2,0-0.3-0.1c-0.1,0-0.1-0.1-0.1-0.2c0.1-1.2,0.1-2.4,0.2-3.6V5.6c0-0.9,0-1.9-0.2-2.8l1.7,0.7h0.4l0.3-0.4l0.1-0.1
			c0.2-0.2,0.3-0.3,0.3-0.3c0.3,0.1,0.5,0.3,0.7,0.5c0.4,0.3,0.6,0.5,0.6,0.6C85,4,84.9,4.1,84.7,4.1v1.8l0.5,0V4.5
			c0-0.5,0-1-0.1-1.5c0.5,0.1,0.9,0.2,1.4,0.4c0.1,0.1,0.2,0.1,0.1,0.2l-0.1,0.1v2.1l0.4,0V4c0-0.6,0-1.2-0.1-1.8
			c0.6,0.1,1.1,0.3,1.6,0.5c0.2,0.1,0.2,0.2,0.1,0.2l-0.2,0.1v0.9l0.4-0.7l0.7,0.7c0-0.6,0-1.2-0.1-1.7c0.6,0.1,1.2,0.3,1.7,0.5
			c0.2,0.1,0.2,0.2,0.1,0.2L91,3v0.9c0.4-0.4,0.7-0.7,0.9-0.9l1.3,1.3c-0.1,0.1-0.2,0.1-0.5,0c-0.3,0.1-0.9,0.2-1.8,0.3v1.1
			c0,0.1,0,0.1,0,0.2c0,0,0.1,0,0.2,0H92c0.1,0,0.2,0,0.3-0.1c0.2-0.2,0.3-0.5,0.4-0.7h0.1l0.1,0.7C93,5.7,93.1,5.8,93.2,6
			c0.1,0.1,0.1,0.2,0.1,0.4c0,0.3-0.2,0.6-0.4,0.7c-0.5,0.2-1,0.3-1.5,0.2h-0.7c-0.2,0-0.3,0-0.5,0c0.4,0.3,0.7,0.6,1,0.9
			c0.1,0.1,0.1,0.2-0.1,0.2l-0.2,0c-0.5,0.3-1,0.6-1.5,0.8H91l0.3-0.4c0,0,0.1-0.1,0.1-0.1c0.1-0.2,0.2-0.3,0.3-0.3
			c0.3,0.1,0.6,0.3,0.8,0.5c0.4,0.4,0.7,0.6,0.7,0.7c-0.1,0.2-0.3,0.3-0.5,0.3v3.5c0,0.4-0.1,0.9-0.4,1.2c-0.3,0.3-0.9,0.4-1.7,0.5
			c0-0.4-0.1-0.7-0.3-1c-0.3-0.3-0.7-0.5-1.2-0.6v-0.2l1.7,0.1c0.2,0,0.2-0.1,0.2-0.2v-0.7h-3.8C86.7,13.7,85.6,14.6,83.9,15.1z
			 M82.7,9.2h0.5V3.9h-0.5V9.2z M87.7,9.2h1.1c0.2-0.3,0.3-0.7,0.4-1h-1.2c-0.2,0.3-0.5,0.6-0.8,0.8L87.7,9.2z M87.3,12.1h1.1v-1.1
			h-0.9C87.5,11.4,87.4,11.8,87.3,12.1z M87.5,10.7h0.9v-1h-0.9V10.7z M88.4,7.8h0.9l0.7-0.7c-0.2-0.1-0.3-0.2-0.4-0.4
			c-0.1-0.3-0.1-0.5-0.1-0.8V5.8l-0.1,0.1c-0.7,0.3-1.3,0.6-1.8,0.8C88.9,7,89.4,7.2,89,7.3l-0.3,0.1C88.7,7.5,88.5,7.7,88.4,7.8
			L88.4,7.8z M88.3,5.6l1.1-0.1v-1h-1.1V5.6z M90,10.7H91v-1H90V10.7z M90,12.1H91v-1.1H90V12.1z"/>
		<path class="st0" d="M99.2,14.6c-1.2,0-2.1-0.2-2.6-0.6s-0.8-1.1-0.8-2.1V5.4c0-0.9,0-1.9-0.2-2.8l2.3,0.9h5.8l0.9-1l1.8,1.4
			c-0.1,0.2-0.4,0.3-0.6,0.3v1.5c0,1.2,0.1,2.2,0.1,2.9c-0.2,0.2-0.4,0.3-0.7,0.3c-0.3,0.1-0.7,0.2-1,0.2c-0.3,0-0.4-0.1-0.4-0.3
			c0,0,0-0.1,0-0.2c0-0.1,0-0.1,0-0.2V8.1h-6.1V12c0,0.2,0.1,0.5,0.3,0.6c0.4,0.1,0.7,0.2,1.1,0.2h4.2c0.3,0,0.7,0,1-0.1
			c0.2,0,0.4-0.2,0.6-0.3c0.4-0.6,0.8-1.3,1-2.1h0.1l0,2.1c0.3,0.1,0.6,0.2,0.9,0.4c0.1,0.1,0.2,0.3,0.2,0.4c0,0.5-0.3,0.9-0.7,1.1
			c-0.6,0.3-1.6,0.4-3,0.4L99.2,14.6z M97.7,7.7h2.2V3.8h-2.2V7.7z M101.8,7.7h2V3.8h-2.1L101.8,7.7z"/>
		<line class="st1" x1="71.3" y1="8.4" x2="3.5" y2="8.4"/>
		<rect x="3.5" y="26" class="st0" width="67.8" height="22.2"/>
		<rect x="3.5" y="51.4" class="st0" width="67.8" height="22.2"/>
		<path class="st2" d="M14.4,43.7l-0.1-0.2c0.8-0.8,1.5-1.7,2-2.7c-0.1,0.3-0.4,0.4-0.7,0.5c-0.4,0-0.7-0.2-0.9-0.4c0-0.3,0-0.7,0-1
			c-0.8,0.5-1.9,1.2-3.2,1.9c-0.1,0.2-0.2,0.3-0.4,0.4l-0.9-2.3c0.4,0,0.9-0.1,1.5-0.2c0.7-1.3,1.3-2.6,1.8-3.9
			c0.3-0.8,0.6-1.7,0.7-2.6l1.9,0.9h1.3v-0.6c0-1,0-1.9-0.2-2.8c0.8,0.1,1.4,0.1,1.8,0.2c0.2,0,0.4,0.1,0.6,0.2c0,0,0,0.1-0.1,0.2
			l-0.2,0.2c0,0.2,0,0.5,0,0.9c0,0.8,0,1.5,0,1.9h1.3l0.5-0.5l0.2-0.2c0.2-0.2,0.3-0.3,0.4-0.3s0.4,0.2,0.8,0.7
			c0.5,0.4,0.7,0.7,0.7,0.8c-0.2,0.2-0.4,0.3-0.6,0.3c-0.1,2.7-0.2,4.7-0.3,5.7c-0.2,1.1-0.4,1.9-0.8,2.3c-0.5,0.5-1.3,0.7-2,0.7
			c0-0.6-0.1-1.1-0.3-1.3c-0.3-0.4-0.8-0.6-1.2-0.7v-0.2c0.7,0.1,1.2,0.1,1.6,0.1c0.2,0,0.3-0.1,0.5-0.2c0.2-0.2,0.4-0.8,0.5-2
			c0.1-1,0.2-2.6,0.2-4.9h-1.5c0,1.2-0.2,2.5-0.4,3.7c-0.2,1.1-0.7,2.1-1.4,3.1C16.5,42.3,15.5,43.1,14.4,43.7z M11.3,36.6
			c-0.1-1-0.5-1.9-1-2.7l0.1-0.1c0.5,0.1,0.9,0.2,1.4,0.4c0-0.1,0.1-0.2,0.1-0.4c0.1-0.3,0.1-0.5,0.2-0.6c0.2-0.9,0.4-1.9,0.5-2.8
			c0.8,0.3,1.4,0.5,1.8,0.7c0.2,0.1,0.4,0.2,0.6,0.3c0,0.1,0,0.1-0.1,0.2l-0.3,0.1c-0.7,1-1.4,2-2.3,2.9c0.4,0.3,0.7,0.7,0.7,1.2
			c0,0.4-0.2,0.8-0.5,0.9C12,37,11.6,36.9,11.3,36.6L11.3,36.6z M12.3,39.6c0.4,0,1.1-0.1,2-0.3l0.2,0c-0.1-0.6-0.2-1.2-0.5-1.8
			C13.4,38.3,12.8,39,12.3,39.6L12.3,39.6z M16.3,40.5c0.4-0.9,0.6-1.8,0.7-2.8c0.1-1.1,0.2-2.1,0.2-3.2h-0.9
			c-0.1,0.1-0.3,0.1-0.4,0.1c-0.5,1-1.2,1.9-1.8,2.8l0,0c0.8,0.3,1.5,0.9,1.9,1.6C16.4,39.4,16.4,40,16.3,40.5L16.3,40.5z"/>
		<path class="st2" d="M30,43.7c-0.3,0-0.4-0.1-0.4-0.3c0,0,0-0.1,0-0.2c0.1-1,0.1-2,0.1-3v-1.8c-0.3,0.5-0.7,1-1.2,1.5
			c0.4,0.5,0.7,1.1,0.7,1.7c0,0.4-0.2,0.8-0.5,1c-0.3,0.2-0.7,0.1-1-0.3c0-0.4,0.1-0.8,0-1.2c-0.7,0.5-1.6,1.1-2.6,1.7
			c-0.1,0.2-0.2,0.3-0.4,0.3l-0.8-2c0.4,0,0.9-0.1,1.7-0.2v-2.8h-0.1v0.3c0,0.1-0.1,0.2-0.3,0.2c-0.2,0.1-0.5,0.2-0.7,0.2
			c-0.2,0-0.3-0.1-0.3-0.3c0-0.5,0.1-1.1,0.1-1.9v-1.1c0-0.9,0-1.9-0.2-2.8l1.4,0.6h0.1v0c0-0.9,0-1.9-0.2-2.8
			c0.6,0.1,1.2,0.3,1.8,0.5c0.2,0.1,0.2,0.2,0.1,0.3l-0.2,0.1v2l0.3-0.4c0,0,0.1-0.1,0.1-0.1c0.1-0.2,0.2-0.2,0.3-0.2
			c0.1,0,0.3,0.1,0.6,0.5c0.3,0.3,0.5,0.5,0.5,0.6c-0.1,0.1-0.3,0.2-0.4,0.2v0.3h1.2v-0.9c0-0.9,0-1.9-0.2-2.8
			c0.6,0.1,1.2,0.3,1.8,0.5c0.2,0.1,0.2,0.2,0.1,0.3l-0.2,0.1v2.7l0.5-1c0.2,0.2,0.4,0.5,0.6,0.7c0-0.7,0-1.5-0.1-2.2l1.5,0.6
			c0.5-0.5,1-1,1.4-1.6l1.6,1.7c-0.1,0.1-0.3,0.1-0.5,0c-0.8,0.2-1.5,0.3-2.3,0.4v2.8h0.9L35,35c0-0.1,0.1-0.1,0.1-0.2
			c0.2-0.3,0.3-0.4,0.3-0.4c0.1,0,0.3,0.2,0.7,0.6c0.4,0.4,0.6,0.6,0.6,0.7S36.6,36,36.4,36h-0.7v4c0,1.1,0.1,2.2,0.1,3.2
			c-0.1,0.1-0.3,0.2-0.4,0.3c-0.3,0.1-0.6,0.2-0.9,0.2c-0.1,0-0.2,0-0.3-0.1c-0.1,0-0.1-0.1-0.1-0.2c0.1-1.2,0.1-2.4,0.1-3.6V36
			h-0.4v0.5c0,1.2-0.1,2.5-0.3,3.7c-0.3,1.3-1,2.5-2,3.4l-0.2-0.1c0.5-1.2,0.8-2.8,0.9-4.8c-0.3,0-0.6-0.1-0.7-0.3
			c0-0.7-0.1-1.3-0.3-1.9v3.4c0,1.1,0.1,2.2,0.1,3.2c-0.1,0.2-0.3,0.3-0.5,0.4C30.5,43.6,30.2,43.7,30,43.7z M25.6,37.8h0.3v-4h-0.3
			V37.8z M26.9,37.8h0.3v-4h-0.3V37.8z M27.1,40.8l0.6-0.1c0-0.5-0.1-1.1-0.2-1.6l0.2-0.1c0.2,0.2,0.5,0.4,0.7,0.6
			c0.5-1.1,0.9-2.8,1.1-5h-0.8l0-0.2v1.3c0,1.1,0.1,1.9,0.1,2.5c-0.1,0.1-0.3,0.2-0.5,0.3c-0.2,0.1-0.5,0.1-0.7,0.1h-0.2v-0.5h-0.1
			L27.1,40.8C27.1,40.8,27.1,40.8,27.1,40.8z M32.3,36.6v-2h-1.1v1.3C31.6,36.1,31.9,36.3,32.3,36.6z"/>
		<path class="st2" d="M38.5,42.2c-0.1,0-0.2,0-0.4-0.1c-0.1,0-0.1-0.1-0.1-0.2c0.1-1.2,0.1-2.4,0.1-3.6v-4.3c0-0.9,0-1.9-0.2-2.8
			l2.1,0.8h0.5l0.4-0.5c0,0,0.1-0.1,0.2-0.2c0.2-0.2,0.3-0.3,0.3-0.3c0,0,0.4,0.2,0.9,0.6c0.5,0.4,0.7,0.6,0.7,0.7
			c-0.1,0.2-0.3,0.3-0.5,0.3v5c0,1.1,0.1,2.2,0.1,3.2c-0.2,0.2-0.4,0.3-0.6,0.4c-0.3,0.1-0.6,0.2-1,0.2c-0.2,0-0.3-0.1-0.3-0.3
			c0-0.1,0-0.1,0-0.2c0-0.1,0-0.1,0-0.2v-0.3H40V41c0,0.1,0,0.2,0,0.3c0,0.2,0,0.3,0,0.4c0,0.1-0.2,0.3-0.4,0.4
			C39.3,42.2,38.9,42.2,38.5,42.2z M40,36h0.9v-3.6H40V36z M40,40.2h0.9v-3.8H40V40.2z M46.2,43.7c0-0.5-0.1-0.9-0.4-1.3
			c-0.3-0.3-0.8-0.6-1.2-0.6v-0.2l1.9,0.1c0.2,0,0.3-0.1,0.3-0.2v-3.7h-1.8c-0.7,0-1.4,0.1-2.1,0.2l-0.4-0.7
			c0.5,0.1,1.1,0.1,1.8,0.1h2.4c0-0.5,0-1.1-0.1-1.6c0.7,0.1,1.4,0.3,2,0.5c0.2,0.1,0.2,0.2,0.1,0.2l-0.2,0.1v0.7l0.3-0.5
			c0-0.1,0.1-0.1,0.1-0.1c0.2-0.2,0.3-0.4,0.3-0.4c0.1,0,0.3,0.2,0.7,0.6c0.4,0.4,0.6,0.6,0.6,0.7c0,0.1-0.1,0.2-0.4,0.2h-1.7v3.8
			c0,0.7-0.1,1.2-0.4,1.5C47.9,43.4,47.2,43.6,46.2,43.7z M42.9,35.9l-0.4-0.7c0.5,0.1,1.1,0.1,1.8,0.1h0.9v-2h-0.7
			c-0.4,0-0.9,0.1-1.3,0.2l-0.3-0.7c0.4,0.1,1,0.1,1.6,0.1h0.8c0-0.7,0-1.5-0.1-2.2c0.8,0.1,1.4,0.3,1.7,0.4c0.2,0,0.4,0.1,0.6,0.2
			c0,0,0,0.1-0.1,0.2l-0.2,0.2v1.3h0.6l0.4-0.6c0-0.1,0.1-0.1,0.2-0.2c0.2-0.3,0.3-0.4,0.3-0.4s0.4,0.2,0.8,0.6
			c0.5,0.4,0.7,0.7,0.7,0.8c0,0.1-0.2,0.2-0.4,0.2H47v2H48l0.4-0.6c0.1-0.1,0.1-0.1,0.2-0.2c0.2-0.3,0.3-0.4,0.4-0.4
			c0.1,0,0.4,0.2,0.9,0.7s0.7,0.7,0.7,0.8s-0.1,0.2-0.4,0.2h-5.2C44.3,35.7,43.6,35.8,42.9,35.9z M44,40.7c0-0.9-0.2-1.7-0.7-2.5
			l0.1-0.1c0.9,0.2,1.6,0.5,2,0.9c0.3,0.3,0.5,0.7,0.4,1.2c-0.1,0.4-0.3,0.6-0.7,0.7C44.7,41.1,44.3,41,44,40.7L44,40.7z"/>
		<path class="st2" d="M61.4,43.6c0-0.5-0.1-0.9-0.3-1.3c-0.3-0.3-0.6-0.6-1.1-0.6v-0.2c0.5,0,0.9,0,1.4,0.1c0.2,0,0.3-0.1,0.3-0.3
			v-3.1h-1.5c-0.1,1-0.4,2-0.9,2.9c-0.6,1-1.5,1.9-2.6,2.4l-0.1-0.1c1-1.2,1.6-2.6,1.8-4.1h-4.6c-0.7,0-1.4,0.1-2.1,0.2l-0.4-0.7
			c0.3,0.1,0.5,0.1,0.8,0.1h0.4v-5.7h-0.3c-0.1,0-0.3,0.1-0.4,0.2l-0.3-0.7c0.2,0.1,0.5,0.1,0.7,0.1h0.3c0-0.7,0-1.5-0.1-2.2
			c0.7,0.1,1.3,0.3,2,0.5c0.2,0.1,0.2,0.2,0.1,0.2l-0.2,0.1v1.3h1.2c0-0.7,0-1.5-0.1-2.2c0.7,0.1,1.4,0.3,2,0.5
			c0.2,0.1,0.2,0.2,0.1,0.3l-0.2,0.1v1.1l0.5-0.8c0.3,0.3,0.6,0.7,0.9,1c0-0.6,0-1.3-0.1-1.9l2.1,0.8h1l0.4-0.5c0,0,0.1-0.1,0.2-0.2
			c0.2-0.2,0.3-0.3,0.3-0.3c0.3,0.1,0.6,0.3,0.9,0.6c0.5,0.4,0.7,0.6,0.7,0.7c-0.1,0.2-0.3,0.3-0.5,0.3v9.1c0,0.7-0.1,1.2-0.4,1.5
			C62.9,43.3,62.3,43.6,61.4,43.6z M51.6,43.7l-0.1-0.1c0.3-0.4,0.6-0.9,0.8-1.3c0.2-0.5,0.4-0.9,0.6-1.4c0.1-0.5,0.2-0.9,0.3-1.4
			l1.2,0.6c0.3,0.1,0.6,0.2,0.9,0.4c0.1,0.1,0.1,0.2-0.1,0.2l-0.3,0.1C54.1,42,53,43,51.6,43.7L51.6,43.7z M54.3,34.8h1.2v-1.5h-1.2
			V34.8z M54.3,36.8h1.2v-1.6h-1.2V36.8z M54.3,39h1.2v-1.8h-1.2V39z M56.2,42.1c-0.1-0.8-0.4-1.7-0.9-2.4l0.1-0.1
			c0.7,0.1,1.4,0.4,1.9,0.8c0.3,0.3,0.5,0.7,0.4,1.1c0,0.3-0.3,0.6-0.6,0.7C56.8,42.4,56.4,42.3,56.2,42.1L56.2,42.1z M57.3,38.7
			l0.5-0.8c0.2,0.3,0.5,0.5,0.7,0.8c0.1-0.7,0.1-1.6,0.1-2.5v-2.9c-0.1,0-0.1,0-0.2,0h-1.1V38.7z M60.3,37.9h1.5v-2.7h-1.4v1
			C60.4,36.8,60.3,37.4,60.3,37.9L60.3,37.9z M60.4,34.8h1.4v-2.6h-1.4V34.8z"/>
		<path class="st0" d="M91.7,43.7c-0.3,0-0.4-0.1-0.4-0.3c0-0.4,0.1-0.8,0.1-1.4v-0.8c-0.7,0.7-1.4,1.2-2.3,1.7L89,42.7
			c1-1.1,1.7-2.3,2-3.7h-0.6c-0.3,0-0.7,0.1-1,0.2l-0.3-0.7c0.4,0.1,1,0.1,1.6,0.1h0.8V37l0.6,0.1L91.8,37c0.2-0.3,0.3-0.5,0.4-0.7
			c-0.1,0.1-0.3,0.1-0.4,0.1c-0.2,0-0.4-0.1-0.5-0.2c0-0.3,0-0.6-0.1-0.9c-0.4,0.9-1.1,1.6-1.9,2.1L89,37.3c0.3-0.4,0.5-0.8,0.6-1.2
			c0.2-0.5,0.3-1,0.4-1.5c0.1-0.5,0.1-1,0.1-1.4c0.6,0.1,1.2,0.3,1.8,0.5c0.2,0.1,0.2,0.2,0,0.2L91.6,34c-0.1,0.3-0.2,0.5-0.3,0.8
			c0.7,0.2,1.1,0.5,1.2,0.9c0.1-0.4,0.2-0.8,0.3-1.3c0.1-0.4,0.1-0.8,0-1.2c0.6,0.1,1.2,0.3,1.8,0.5c0.2,0.1,0.2,0.2,0,0.2L94.4,34
			c-0.1,0.3-0.2,0.6-0.4,0.9c0.3,0.1,0.6,0.2,0.8,0.4c0.3-0.6,0.5-1.2,0.7-1.8c0.2-0.5,0.3-1,0.4-1.5c0.1-0.5,0.1-1,0.1-1.4
			c0.7,0.2,1.4,0.5,2.1,0.7c0.2,0.1,0.2,0.2,0.1,0.3l-0.3,0.1c-0.2,0.6-0.6,1.2-0.9,1.8l0.5,0.2H98c0-0.1,0-0.1,0.1-0.2
			c0.3-0.9,0.4-1.8,0.5-2.8c0.7,0.2,1.3,0.4,1.9,0.7c0.2,0.1,0.2,0.2,0,0.2l-0.2,0.1c-0.6,0.7-1.2,1.4-1.9,2h1.1l0.4-0.5
			c0,0,0.1-0.1,0.1-0.2c0.2-0.2,0.3-0.3,0.3-0.3c0.3,0.1,0.5,0.3,0.8,0.5c0.4,0.4,0.6,0.6,0.6,0.7s-0.2,0.2-0.4,0.2h-1.5v2.2
			l0.2-0.4c0,0,0-0.1,0.1-0.1c0.1-0.2,0.2-0.3,0.3-0.3c0.1,0,0.3,0.2,0.7,0.5c0.3,0.4,0.5,0.6,0.5,0.7c0,0.1-0.2,0.2-0.4,0.2h-1.4
			v2.3l0.2-0.4l0.1-0.1c0.1-0.2,0.2-0.3,0.3-0.3c0.1,0,0.3,0.2,0.7,0.5c0.3,0.4,0.5,0.6,0.5,0.7c0,0.1-0.2,0.2-0.4,0.2h-1.4v2.5
			l0.3-0.5c0,0,0.1-0.1,0.1-0.2c0.1-0.2,0.2-0.3,0.3-0.3c0.1,0,0.3,0.2,0.8,0.6c0.4,0.4,0.6,0.6,0.6,0.7c0,0.1-0.2,0.2-0.4,0.2h-4.1
			v0.4c0,0.1-0.1,0.2-0.4,0.3c-0.3,0.1-0.7,0.2-1,0.2c-0.1,0-0.2,0-0.4-0.1c-0.1,0-0.1-0.1-0.1-0.2c0.1-1.2,0.1-2.4,0.2-3.6V35
			c-0.2,0.2-0.4,0.4-0.6,0.5c0.2,0.2,0.3,0.5,0.2,0.8c-0.1,0.3-0.2,0.5-0.5,0.5c-0.3,0.1-0.6,0-0.8-0.2c0-0.4-0.1-0.8-0.3-1.1
			c-0.4,0.7-1,1.2-1.7,1.6c0.5,0.1,0.9,0.2,1.4,0.4c0.1,0.1,0.1,0.2,0,0.2l-0.2,0.1v0.8h0.2l0.4-0.5c0,0,0-0.1,0.1-0.1
			c0.2-0.3,0.3-0.4,0.4-0.4s0.3,0.2,0.8,0.6s0.6,0.6,0.6,0.7c0,0.1-0.1,0.2-0.4,0.2h-2.1v0.5c0.7,0.1,1.3,0.4,1.8,0.8
			c0.3,0.3,0.5,0.6,0.4,1c0,0.3-0.2,0.6-0.5,0.7c-0.3,0.1-0.7,0.1-1-0.2c-0.1-0.7-0.3-1.5-0.8-2.1v1.2c0,0.9,0,1.7,0.1,2.2
			c0,0.1-0.2,0.2-0.5,0.3C92.4,43.6,92.1,43.7,91.7,43.7z M89.4,33.3l-0.3-0.7c0.4,0.1,1,0.1,1.6,0.1h0.7c0-0.7,0-1.3-0.1-2
			c0.8,0.1,1.3,0.3,1.7,0.4c0.2,0,0.4,0.1,0.6,0.2c0,0,0,0.1-0.1,0.2l-0.2,0.2v1.1h0.2l0.4-0.6c0,0,0.1-0.1,0.1-0.2
			c0.2-0.3,0.3-0.4,0.3-0.4s0.4,0.2,0.8,0.6c0.4,0.4,0.7,0.6,0.7,0.7s-0.2,0.2-0.4,0.2h-3.9C90.8,33.1,90.1,33.2,89.4,33.3
			L89.4,33.3z M97.4,36.5h0.8V34h-0.8V36.5z M97.4,39.4h0.8v-2.5h-0.8V39.4z M97.4,42.4h0.8v-2.7h-0.8V42.4z"/>
		<path class="st0" d="M104.6,43.7l-1.1-2.2c0.2,0,0.6,0,1.2-0.1l0.6,0v-6.2c-0.8,0.4-1.7,0.8-2.7,1.1l-0.1-0.2
			c0.8-0.5,1.5-1,2.1-1.6c0.7-0.6,1.3-1.2,1.8-1.9c0.5-0.6,0.9-1.4,1-2.2c0.9,0.3,1.6,0.5,2,0.6c0.2,0.1,0.5,0.2,0.7,0.3
			c0,0.1,0,0.1-0.1,0.2l-0.4,0.1c1,1,2.9,1.5,5.7,1.8v0.2c-0.4,0.1-0.7,0.4-1,0.8c-0.2,0.4-0.4,0.8-0.4,1.2
			c-2.2-0.9-3.7-2.2-4.4-3.9c-0.8,1.1-2,2-3.6,3l1.3,0.5h3.5l0.4-0.5c0,0,0.1-0.1,0.1-0.2c0.2-0.2,0.3-0.3,0.3-0.3
			c0.3,0.1,0.6,0.3,0.9,0.6c0.5,0.4,0.7,0.6,0.7,0.7c-0.1,0.1-0.2,0.2-0.4,0.2v2.7l1.8,1.4c-0.1,0.2-0.3,0.2-0.5,0.1
			c-0.8,0.3-1.6,0.6-2.5,0.7c1.2,0.4,2.4,0.6,3.6,0.6v0.2c-0.7,0.3-1.2,0.9-1.4,1.9c-0.8-0.2-1.6-0.5-2.3-0.9
			c-0.7-0.4-1.2-0.9-1.7-1.5c-1,0.5-2.6,1.2-4.9,2.1C104.9,43.5,104.8,43.7,104.6,43.7z M107.4,34.7L107,34c0.4,0.1,0.8,0.1,1.3,0.1
			h0.6l0.4-0.5c0,0,0-0.1,0.1-0.1c0.2-0.3,0.3-0.4,0.4-0.4c0.3,0.1,0.6,0.3,0.8,0.5c0.4,0.4,0.6,0.6,0.6,0.7c0,0.1-0.2,0.2-0.4,0.2
			h-2.4C108,34.5,107.7,34.6,107.4,34.7L107.4,34.7z M107.3,37h3.7v-1.2h-3.7L107.3,37z M107.3,38.6h3.7v-1.3h-3.7L107.3,38.6z
			 M107.3,41.2c0.4,0,1.1-0.1,2-0.2l0.5,0c-0.4-0.6-0.7-1.2-0.9-1.9h-1.6V41.2z M110.9,40.6c0.5-0.4,0.9-0.9,1.4-1.3
			c-0.3,0.1-0.7,0.2-1,0.2h-0.3v-0.5h-1.8C109.5,39.7,110.2,40.3,110.9,40.6L110.9,40.6z"/>
		<path class="st0" d="M117.1,37.1c-0.2,0-0.5-0.1-0.6-0.3c-0.1-0.2-0.1-0.4-0.1-0.6c0.1-0.2,0.2-0.4,0.4-0.5c0.2-0.3,0.4-0.6,0.5-1
			c0.1-0.4,0.2-0.9,0.2-1.4h0.2c0.3,0.7,0.4,1.4,0.5,2.1c0,0.5-0.1,1-0.3,1.4C117.6,36.9,117.3,37.1,117.1,37.1z M118.6,43.7
			c-0.3,0-0.5-0.1-0.5-0.3c0.1-1.2,0.1-2.4,0.1-3.6v-6.4c0-0.9,0-1.9-0.2-2.8c0.8,0.2,1.4,0.3,1.7,0.4c0.2,0,0.4,0.1,0.6,0.2
			c0,0,0,0.1-0.1,0.2l-0.2,0.2v1.4l0.1,0c0.7,0.3,1.2,0.6,1.4,1.1c0.1-0.8,0.2-1.7,0.1-2.5l2.2,0.7c0-0.5,0-1-0.1-1.5
			c0.7,0.1,1.4,0.3,2.1,0.5c0.2,0.1,0.2,0.2,0.1,0.3l-0.2,0.1v2.8h0.8l0.4-0.6c0-0.1,0.1-0.1,0.1-0.2c0.2-0.3,0.3-0.5,0.4-0.5
			s0.4,0.2,0.9,0.7s0.7,0.7,0.7,0.8s-0.2,0.2-0.4,0.2h-2.9v3.4h0.6l0.4-0.6c0.1-0.1,0.1-0.1,0.1-0.2c0.2-0.3,0.3-0.4,0.4-0.4
			c0.1,0,0.3,0.2,0.8,0.7c0.5,0.4,0.7,0.7,0.7,0.8c0,0.1-0.2,0.2-0.4,0.2h-2.6v4.2h0.9l0.4-0.7c0,0,0.1-0.1,0.1-0.2
			c0.2-0.3,0.4-0.5,0.4-0.5c0.1,0,0.4,0.2,0.9,0.7c0.5,0.5,0.8,0.7,0.8,0.8s-0.1,0.2-0.4,0.2h-6c-0.7,0-1.4,0.1-2.1,0.2l-0.4-0.7
			c0.5,0.1,1.1,0.1,1.8,0.1h1.5v-4.2h-0.7c-0.5,0-0.9,0.1-1.3,0.2l-0.4-0.7c0.5,0.1,1,0.1,1.6,0.1h0.8v-3.4h-1.1
			c-0.4,1-1.1,2-1.9,2.8l-0.2-0.1c0.3-0.8,0.5-1.7,0.7-2.6c-0.1,0.1-0.3,0.2-0.5,0.2c-0.2,0-0.4-0.1-0.5-0.3c0-0.6-0.1-1.2-0.3-1.7
			v6.8c0,1.1,0.1,2.2,0.1,3.2c-0.1,0.2-0.3,0.3-0.6,0.4C119.3,43.6,119,43.7,118.6,43.7z M122.9,34.4h1v-2c-0.1,0.1-0.2,0.1-0.4,0.1
			C123.4,33.1,123.2,33.8,122.9,34.4L122.9,34.4z"/>
		<path class="st2" d="M10.3,69L10.3,69c0.5-1.2,0.9-2.4,1-3.6c0.1-1.2,0.2-2.5,0.2-3.7v-1.9c0-0.6,0-1.3-0.1-1.9l2.3,0.8h3.1
			c0-1-0.1-2-0.1-2.8c0.7,0,1.4,0.1,2,0.2c0.2,0.1,0.2,0.1,0.1,0.2l-0.2,0.2c0,0.9,0,1.6,0,2.2h1.4l0.5-0.6c-0.1,0-0.2-0.1-0.3-0.1
			c-0.1-0.3-0.3-0.7-0.5-0.9c-0.2-0.3-0.4-0.5-0.7-0.8l0.1-0.1c0.6-0.1,1.2-0.1,1.7,0.1c0.3,0.1,0.6,0.4,0.7,0.7
			c0.1,0.3,0,0.5-0.1,0.7c0.1,0,0.1,0.1,0.3,0.2c0.5,0.4,0.9,0.7,1.1,0.9c0,0.1-0.2,0.2-0.4,0.2h-3.8c0.1,1.2,0.3,2.4,0.6,3.6
			c0.2-0.4,0.3-0.9,0.4-1.4c0.1-0.4,0.2-0.9,0.2-1.3c0.8,0.2,1.5,0.5,2.2,0.9c0.2,0.1,0.3,0.2,0.1,0.3l-0.2,0.1
			c-0.4,1.2-1.1,2.4-1.8,3.4c0.3,0.5,0.7,0.9,1.1,1.3c0.1,0.1,0.2,0.2,0.2,0.2s0.1-0.1,0.2-0.2c0.4-0.6,0.7-1.2,1-1.8l0.1,0
			l-0.4,2.5c0.5,0.9,0.6,1.5,0.3,1.8c-0.3,0.3-0.8,0.4-1.4,0.2c-0.5-0.2-0.9-0.4-1.3-0.8c-0.5-0.5-0.9-1-1.2-1.6
			c-1.2,1.1-2.6,2-4.1,2.5l-0.1-0.1c1.5-0.9,2.7-2.2,3.6-3.7c-0.7-1.5-1.1-3.5-1.3-5.9h-3.4v2.1h1.2l0.4-0.4c0,0,0.1-0.1,0.1-0.2
			c0.2-0.2,0.3-0.3,0.4-0.3c0.1,0,0.4,0.2,0.8,0.6s0.7,0.6,0.7,0.7c-0.1,0.1-0.3,0.2-0.5,0.2c0,1.1-0.1,2.1-0.2,3.2
			c-0.1,0.5-0.3,1-0.6,1.3c-0.5,0.3-1,0.5-1.6,0.5c0-0.4,0-0.8-0.2-1.2c-0.2-0.3-0.5-0.5-0.8-0.5v-0.1C12.7,66.7,11.7,68.1,10.3,69z
			 M14,65c0.1,0,0.2,0,0.3-0.1c0.2-0.2,0.3-1.3,0.4-3.3h-1.3v0c0,1.1-0.1,2.2-0.3,3.3C13.4,65,13.7,65,14,65z"/>
		<path class="st2" d="M30,68.9c-0.3,0-0.4-0.1-0.4-0.3c0,0,0-0.1,0-0.2c0.1-1,0.1-2,0.1-3v-1.8c-0.3,0.5-0.7,1-1.2,1.5
			c0.4,0.5,0.7,1.1,0.7,1.7c0,0.4-0.2,0.8-0.5,1c-0.3,0.2-0.7,0.1-1-0.3c0-0.4,0.1-0.8,0-1.2c-0.7,0.5-1.6,1.1-2.6,1.7
			c-0.1,0.2-0.2,0.3-0.4,0.3l-0.8-2c0.4,0,0.9-0.1,1.7-0.2v-2.8h-0.1v0.3c0,0.1-0.1,0.2-0.3,0.2c-0.2,0.1-0.5,0.2-0.7,0.2
			c-0.2,0-0.3-0.1-0.3-0.3c0-0.5,0.1-1.1,0.1-1.9v-1.1c0-0.9,0-1.9-0.2-2.8l1.4,0.6h0.1v0c0-0.9,0-1.9-0.2-2.8
			c0.6,0.1,1.2,0.3,1.8,0.5c0.2,0.1,0.2,0.2,0.1,0.3l-0.2,0.1v2l0.3-0.4c0,0,0.1-0.1,0.1-0.1c0.1-0.2,0.2-0.2,0.3-0.2
			s0.3,0.1,0.6,0.5c0.3,0.3,0.5,0.5,0.5,0.6c-0.1,0.1-0.3,0.2-0.4,0.2v0.3h1.2v-0.9c0-0.9,0-1.9-0.2-2.8c0.6,0.1,1.2,0.3,1.8,0.5
			c0.2,0.1,0.2,0.2,0.1,0.3l-0.2,0.1v2.7l0.5-1c0.2,0.2,0.4,0.5,0.6,0.7c0-0.7,0-1.5-0.1-2.2l1.5,0.6c0.5-0.5,1-1,1.4-1.6l1.6,1.7
			c-0.1,0.1-0.3,0.1-0.5,0c-0.8,0.2-1.5,0.3-2.3,0.4v2.8h0.9l0.3-0.6c0-0.1,0.1-0.1,0.1-0.2c0.2-0.3,0.3-0.4,0.3-0.4
			c0.1,0,0.3,0.2,0.7,0.6c0.4,0.4,0.6,0.6,0.6,0.7s-0.1,0.2-0.3,0.2h-0.7v4c0,1.1,0.1,2.2,0.1,3.2c-0.1,0.1-0.3,0.2-0.4,0.3
			c-0.3,0.1-0.6,0.2-0.9,0.2c-0.1,0-0.2,0-0.3-0.1c-0.1,0-0.1-0.1-0.1-0.2c0.1-1.2,0.1-2.4,0.1-3.6v-3.8h-0.4v0.5
			c0,1.2-0.1,2.5-0.3,3.7c-0.3,1.3-1,2.5-2,3.4l-0.2-0.1c0.5-1.2,0.8-2.8,0.9-4.8c-0.3,0-0.6-0.1-0.7-0.3c0-0.7-0.1-1.3-0.3-1.9v3.4
			c0,1.1,0.1,2.2,0.1,3.2c-0.1,0.2-0.3,0.3-0.5,0.4C30.5,68.8,30.2,68.9,30,68.9z M25.6,63.1h0.3v-4h-0.3V63.1z M26.9,63.1h0.3v-4
			h-0.3V63.1z M27.1,66.1l0.6-0.1c0-0.5-0.1-1.1-0.2-1.6l0.2-0.1c0.2,0.2,0.5,0.4,0.7,0.6c0.5-1.1,0.9-2.8,1.1-5h-0.8l0-0.2V61
			c0,1.1,0.1,1.9,0.1,2.5c-0.1,0.1-0.3,0.2-0.5,0.3c-0.2,0.1-0.5,0.1-0.7,0.1h-0.2v-0.5h-0.1L27.1,66.1
			C27.1,66.1,27.1,66.1,27.1,66.1L27.1,66.1z M32.3,61.9v-2h-1.1v1.3C31.6,61.3,31.9,61.6,32.3,61.9L32.3,61.9z"/>
		<path class="st2" d="M38.5,67.5c-0.1,0-0.2,0-0.4-0.1c-0.1,0-0.1-0.1-0.1-0.2c0.1-1.2,0.1-2.4,0.1-3.6v-4.3c0-0.9,0-1.9-0.2-2.8
			l2.1,0.8h0.5l0.4-0.5c0,0,0.1-0.1,0.2-0.2c0.2-0.2,0.3-0.3,0.3-0.3c0,0,0.4,0.2,0.9,0.6c0.5,0.4,0.7,0.6,0.7,0.7
			C43,57.8,42.8,58,42.6,58v5c0,1.1,0.1,2.2,0.1,3.2c-0.2,0.2-0.4,0.3-0.6,0.4c-0.3,0.1-0.6,0.2-1,0.2c-0.2,0-0.3-0.1-0.3-0.3
			c0-0.1,0-0.1,0-0.2c0-0.1,0-0.1,0-0.2v-0.3H40v0.4c0,0.1,0,0.2,0,0.3c0,0.2,0,0.3,0,0.4c0,0.1-0.2,0.3-0.4,0.4
			C39.3,67.4,38.9,67.5,38.5,67.5z M40,61.3h0.9v-3.6H40V61.3z M40,65.4h0.9v-3.8H40V65.4z M46.3,68.9c0-0.5-0.1-0.9-0.4-1.3
			c-0.3-0.3-0.8-0.5-1.2-0.6v-0.2l1.9,0.1c0.2,0,0.3-0.1,0.3-0.2V63h-1.8c-0.7,0-1.4,0.1-2.1,0.2l-0.4-0.7c0.5,0.1,1.1,0.1,1.8,0.1
			h2.4c0-0.5,0-1.1-0.1-1.6c0.7,0.1,1.4,0.3,2,0.5c0.2,0.1,0.2,0.2,0.1,0.2l-0.2,0.1v0.7l0.3-0.5c0-0.1,0.1-0.1,0.1-0.1
			c0.2-0.2,0.3-0.4,0.3-0.4c0.1,0,0.3,0.2,0.7,0.6c0.4,0.4,0.6,0.6,0.6,0.7S50.5,63,50.3,63h-1.7v3.8c0,0.7-0.1,1.2-0.4,1.5
			C47.9,68.6,47.2,68.9,46.3,68.9L46.3,68.9z M42.9,61.1l-0.4-0.7c0.5,0.1,1.1,0.1,1.8,0.1h0.9v-2h-0.7c-0.4,0-0.9,0.1-1.3,0.2
			L42.8,58c0.4,0.1,1,0.1,1.6,0.1h0.8c0-0.7,0-1.5-0.1-2.2c0.8,0.1,1.4,0.3,1.7,0.4c0.2,0,0.4,0.1,0.6,0.2c0,0,0,0.1-0.1,0.2
			l-0.2,0.1v1.3h0.6l0.4-0.6c0-0.1,0.1-0.1,0.2-0.2c0.2-0.3,0.3-0.4,0.3-0.4s0.4,0.2,0.8,0.6c0.5,0.4,0.7,0.7,0.7,0.8
			c0,0.1-0.2,0.2-0.4,0.2H47v2H48l0.4-0.6c0.1-0.1,0.1-0.1,0.2-0.2c0.2-0.3,0.3-0.4,0.4-0.4c0.1,0,0.4,0.2,0.9,0.7s0.7,0.7,0.7,0.8
			c0,0.1-0.1,0.2-0.4,0.2h-5.2C44.3,60.9,43.6,61,42.9,61.1L42.9,61.1z M44,65.9c0-0.9-0.2-1.7-0.7-2.5l0.1-0.1
			c0.9,0.2,1.6,0.5,2,0.9c0.3,0.3,0.5,0.7,0.4,1.2c-0.1,0.4-0.3,0.6-0.7,0.7C44.7,66.4,44.3,66.3,44,65.9L44,65.9z"/>
		<path class="st2" d="M61.4,68.9c0-0.5-0.1-0.9-0.3-1.3c-0.3-0.3-0.6-0.6-1.1-0.6v-0.2c0.5,0,0.9,0,1.4,0.1c0.2,0,0.3-0.1,0.3-0.3
			v-3.1h-1.5c-0.1,1-0.4,2-0.9,2.9c-0.6,1-1.5,1.9-2.6,2.4l-0.1-0.1c1-1.2,1.6-2.6,1.8-4.1h-4.6c-0.7,0-1.4,0.1-2.1,0.2l-0.4-0.7
			c0.3,0.1,0.5,0.1,0.8,0.1h0.4v-5.7h-0.3c-0.1,0-0.3,0.1-0.4,0.2l-0.3-0.7c0.2,0.1,0.5,0.1,0.7,0.1h0.3c0-0.7,0-1.5-0.1-2.2
			c0.7,0.1,1.3,0.3,2,0.5c0.2,0.1,0.2,0.2,0.1,0.2l-0.2,0.1v1.3h1.2c0-0.7,0-1.5-0.1-2.2c0.7,0.1,1.4,0.3,2,0.5
			c0.2,0.1,0.2,0.2,0.1,0.3l-0.2,0.1v1.1l0.5-0.8c0.3,0.3,0.6,0.7,0.9,1c0-0.6,0-1.3-0.1-1.9l2.1,0.8h1l0.4-0.5
			c0.1-0.1,0.1-0.1,0.2-0.2c0.2-0.2,0.3-0.3,0.3-0.3c0.3,0.1,0.6,0.3,0.9,0.6c0.5,0.4,0.7,0.6,0.7,0.7c-0.1,0.2-0.3,0.3-0.5,0.3v9.1
			c0,0.7-0.1,1.2-0.4,1.5C62.9,68.6,62.3,68.8,61.4,68.9z M51.6,68.9l-0.1-0.1c0.3-0.4,0.6-0.9,0.8-1.3c0.2-0.5,0.4-0.9,0.6-1.4
			c0.1-0.5,0.2-0.9,0.3-1.4l1.2,0.6c0.3,0.1,0.6,0.2,0.9,0.4c0.1,0.1,0.1,0.1-0.1,0.2l-0.3,0.1C54.1,67.2,53,68.3,51.6,68.9z
			 M54.3,60.1h1.2v-1.5h-1.2V60.1z M54.3,62.1h1.2v-1.6h-1.2V62.1z M54.3,64.3h1.2v-1.8h-1.2V64.3z M56.2,67.3
			c-0.1-0.8-0.4-1.7-0.9-2.4l0.1-0.1c0.7,0.1,1.4,0.4,1.9,0.8c0.3,0.3,0.5,0.7,0.4,1.1c0,0.3-0.3,0.6-0.6,0.7
			C56.8,67.7,56.4,67.6,56.2,67.3L56.2,67.3z M57.3,64l0.5-0.8c0.2,0.3,0.5,0.5,0.7,0.8c0.1-0.7,0.1-1.6,0.1-2.5v-2.9
			c-0.1,0-0.1,0-0.2,0h-1.1V64z M60.3,63.1h1.5v-2.7h-1.4v1C60.4,62,60.3,62.6,60.3,63.1L60.3,63.1z M60.4,60h1.4v-2.6h-1.4V60z"/>
		<path class="st0" d="M90.9,68.9c-0.3,0-0.5-0.1-0.5-0.3c0-0.1,0-0.1,0-0.2c0.1-1,0.1-1.9,0.1-2.9v-1.7c-0.4,0.6-0.9,1.1-1.4,1.6
			L89,65.3c0.7-1.4,1.2-3.3,1.5-5.8H90c-0.2,0-0.5,0.1-0.7,0.2L89,59c0.3,0.1,0.7,0.1,1,0.1h0.5v-0.5c0-0.9,0-1.9-0.2-2.8
			c0.8,0.2,1.4,0.3,1.7,0.4c0.2,0,0.4,0.1,0.6,0.2c0,0,0,0.1-0.1,0.2l-0.2,0.2v2.3l0.3-0.6c0-0.1,0.1-0.1,0.1-0.2
			c0.2-0.3,0.3-0.4,0.3-0.4s0.3,0.2,0.7,0.6c0.3,0.4,0.5,0.6,0.5,0.7c0,0.1-0.1,0.2-0.3,0.2h-1.6v1.2c0.5,0.2,0.9,0.5,1.2,0.9
			c0-0.6,0-1.2-0.1-1.8c0.6,0.1,1.3,0.3,1.9,0.5c0.2,0.1,0.2,0.2,0.1,0.2l-0.2,0.1v6.9h4.1l0.9-1.3c-0.3,0.1-0.5,0.1-0.8,0.1H99
			v-0.8h-1.4v0.7c0,0.1-0.1,0.2-0.4,0.3c-0.3,0.1-0.7,0.2-1,0.2c-0.3,0-0.5-0.1-0.5-0.3c0-0.1,0-0.1,0-0.2c0.1-1,0.1-1.9,0.1-2.9
			v-1.7c0-0.9,0-1.9-0.2-2.8l1.1,0.4l0-1.2h-1c-0.6,0-1.2,0.1-1.8,0.2l-0.4-0.7c0.5,0.1,1.1,0.1,1.8,0.1h1.2c0-0.6,0-1.3-0.1-1.9
			c0.8,0.1,1.4,0.1,1.7,0.2c0.2,0,0.4,0.1,0.6,0.2c0,0,0,0.1-0.1,0.2l-0.2,0.2c0,0.2-0.1,0.6-0.1,1.2h0.6l0.4-0.6
			c0-0.1,0.1-0.1,0.2-0.2c0.2-0.3,0.3-0.4,0.3-0.4s0.4,0.2,0.8,0.6s0.7,0.7,0.7,0.8c0,0.1-0.2,0.2-0.4,0.2h-2.7c0,0.1,0,0.3-0.1,0.6
			c0,0.4-0.1,0.8-0.1,0.9h0.5l0.4-0.5l0.1-0.2c0.2-0.2,0.3-0.3,0.4-0.3c0.3,0.1,0.6,0.3,0.8,0.5c0.5,0.4,0.7,0.6,0.7,0.7
			c-0.1,0.2-0.3,0.3-0.5,0.3v5.8c0,0-0.1,0.1-0.2,0.1c-0.1,0.1-0.3,0.2-0.5,0.2l0.2,0.1c0.7,0.6,1.1,1,1.4,1.3
			c0,0.1-0.2,0.2-0.4,0.2h-6.2v0.4c0,0.1-0.1,0.2-0.4,0.3c-0.3,0.1-0.6,0.2-0.9,0.2c-0.3,0-0.4-0.1-0.4-0.3c0-0.1,0-0.1,0-0.3
			c0.1-1,0.1-2.1,0.1-3.1v-1.8c-0.3,0.2-0.6,0.1-0.9-0.2c0-0.7-0.1-1.4-0.3-2v3.9c0,1.1,0.1,2.2,0.1,3.2c-0.1,0.2-0.3,0.3-0.5,0.4
			C91.5,68.8,91.2,68.9,90.9,68.9z M97.7,61.4H99V60h-1.4V61.4z M97.7,63.4H99v-1.5h-1.4V63.4z M97.7,65.2H99v-1.5h-1.4V65.2z"/>
		<path class="st0" d="M106.4,59.2c-0.2,0-0.4-0.1-0.4-0.3c0-0.1,0-0.2,0-0.3c0-0.1,0-0.2,0-0.3v-0.4h-1c-0.7,0-1.3,0.1-2,0.2
			l-0.3-0.7c0.5,0.1,1.1,0.1,1.8,0.1h1.6c0-0.6,0-1.2-0.1-1.7c0.8,0.2,1.3,0.3,1.7,0.4c0.2,0,0.4,0.1,0.6,0.2c0,0,0,0.1-0.1,0.2
			l-0.2,0.1v0.8h2.1c0-0.6,0-1.2-0.1-1.7c0.8,0.1,1.4,0.3,1.7,0.4c0.2,0,0.4,0.1,0.6,0.2c0,0,0,0.1-0.1,0.2l-0.2,0.1v0.8h0.9
			l0.4-0.6c0,0,0.1-0.1,0.1-0.2c0.2-0.3,0.3-0.4,0.4-0.4c0.1,0,0.4,0.2,0.8,0.6c0.5,0.4,0.7,0.7,0.7,0.8c0,0.1-0.2,0.2-0.4,0.2h-3
			v0.3c0,0.1,0,0.2,0,0.3c0,0.1,0,0.1,0,0.2c0,0.1-0.2,0.2-0.5,0.3c-0.4,0.1-0.7,0.2-1.1,0.1c-0.2,0-0.4-0.1-0.4-0.3
			c0-0.1,0-0.2,0-0.3c0-0.1,0-0.2,0-0.2v-0.4H108v0.3c0,0.1,0,0.2,0,0.3c0,0.1,0,0.2,0,0.2c0,0.1-0.2,0.2-0.5,0.3
			C107.2,59.2,106.8,59.2,106.4,59.2z M108.5,68.9c-0.3,0-0.4-0.1-0.4-0.3c0-0.4,0.1-0.9,0.1-1.6v-0.9h-2.9c-0.7,0-1.4,0.1-2.1,0.2
			l-0.4-0.7c0.5,0.1,1.1,0.1,1.8,0.1h3.5v-1.6h-1.5v0.4c0,0.1-0.2,0.2-0.5,0.4c-0.3,0.2-0.7,0.2-1.1,0.2c-0.2,0-0.4-0.1-0.4-0.3
			c0-0.5,0.1-1.2,0.1-2v-1.1c0-0.9,0-1.9-0.2-2.8l2.1,0.9h4.7l0.4-0.5c0.1-0.1,0.1-0.1,0.1-0.2c0.2-0.2,0.3-0.3,0.3-0.3
			c0.3,0.1,0.6,0.3,0.9,0.6c0.5,0.4,0.7,0.6,0.7,0.7c-0.1,0.1-0.3,0.2-0.5,0.3v1.3c0,1.1,0.1,1.9,0.1,2.5c-0.2,0.2-0.4,0.3-0.6,0.4
			c-0.3,0.1-0.7,0.2-1,0.2h-0.3v-0.7H110v1.6h2.7l0.4-0.6l0.2-0.2c0.2-0.3,0.3-0.4,0.4-0.4c0.1,0,0.4,0.2,0.9,0.6
			c0.5,0.4,0.7,0.7,0.7,0.8s-0.2,0.2-0.4,0.2H110V67c0,0.1,0,0.3,0,0.5c0,0.4,0,0.8,0.1,1c-0.1,0.2-0.3,0.3-0.5,0.3
			C109.2,68.9,108.9,68.9,108.5,68.9L108.5,68.9z M106.6,61.7h5v-1.6h-5L106.6,61.7z M106.6,63.7h5v-1.7h-5L106.6,63.7z"/>
		<path class="st0" d="M117.1,62.3c-0.2,0-0.5-0.1-0.6-0.3c-0.1-0.2-0.1-0.4-0.1-0.6c0.1-0.2,0.2-0.4,0.4-0.5c0.2-0.3,0.4-0.6,0.5-1
			c0.1-0.4,0.2-0.9,0.2-1.4h0.2c0.3,0.7,0.4,1.4,0.5,2.1c0,0.5-0.1,1-0.3,1.4C117.6,62.2,117.3,62.3,117.1,62.3z M118.6,68.9
			c-0.3,0-0.5-0.1-0.5-0.3c0.1-1.2,0.1-2.4,0.1-3.6v-6.4c0-0.9,0-1.9-0.2-2.8c0.8,0.2,1.4,0.3,1.7,0.4c0.2,0,0.4,0.1,0.6,0.2
			c0,0,0,0.1-0.1,0.2l-0.2,0.2v1.4l0.1,0c0.7,0.3,1.2,0.6,1.4,1.1c0.1-0.8,0.2-1.7,0.1-2.5l2.2,0.7c0-0.5,0-1-0.1-1.5
			c0.7,0.1,1.4,0.3,2.1,0.5c0.2,0.1,0.2,0.2,0.1,0.3l-0.2,0.1v2.8h0.8l0.4-0.6c0-0.1,0.1-0.1,0.1-0.2c0.2-0.3,0.3-0.5,0.4-0.5
			s0.4,0.2,0.9,0.7c0.5,0.4,0.7,0.7,0.7,0.8c0,0.1-0.2,0.2-0.4,0.2h-2.9v3.4h0.6l0.4-0.6c0.1-0.1,0.1-0.1,0.1-0.2
			c0.2-0.3,0.3-0.4,0.4-0.4c0.1,0,0.3,0.2,0.8,0.7c0.5,0.4,0.7,0.7,0.7,0.8c0,0.1-0.2,0.2-0.4,0.2h-2.6v4.2h0.9l0.4-0.7
			c0,0,0.1-0.1,0.1-0.2c0.2-0.3,0.4-0.5,0.4-0.5c0.1,0,0.4,0.2,0.9,0.7c0.5,0.5,0.8,0.7,0.8,0.8c0,0.1-0.1,0.2-0.4,0.2h-6
			c-0.7,0-1.4,0.1-2.1,0.2l-0.4-0.7c0.5,0.1,1.1,0.1,1.8,0.1h1.5v-4.2h-0.7c-0.5,0-0.9,0.1-1.3,0.2l-0.4-0.7c0.5,0.1,1,0.1,1.6,0.1
			h0.8v-3.4h-1.1c-0.4,1-1.1,2-1.9,2.8l-0.2-0.1c0.3-0.8,0.5-1.7,0.7-2.6c-0.1,0.1-0.3,0.2-0.5,0.2c-0.2,0-0.4-0.1-0.5-0.3
			c0-0.6-0.1-1.2-0.3-1.7v6.8c0,1.1,0.1,2.2,0.1,3.2c-0.1,0.2-0.3,0.3-0.6,0.4C119.3,68.8,119,68.9,118.6,68.9z M122.9,59.7h1v-2
			c-0.1,0.1-0.2,0.1-0.4,0.1C123.4,58.4,123.2,59,122.9,59.7L122.9,59.7z"/>
		<path class="st0" d="M134.6,70.3c-1.1-0.9-2-1.9-2.7-3.1c-0.6-1.2-1-2.5-0.9-3.9c0-1.4,0.3-2.7,0.9-3.9c0.7-1.2,1.6-2.3,2.7-3.1
			l0.3,0.3c-0.8,1-1.4,2.1-1.8,3.2c-0.3,1.1-0.5,2.3-0.5,3.5c0,1.2,0.2,2.4,0.5,3.5c0.4,1.2,1,2.3,1.8,3.2L134.6,70.3z"/>
		<path class="st0" d="M137.4,68c-0.3,0-0.4-0.1-0.4-0.3c0.1-0.8,0.1-1.6,0.1-2.4V64c-0.3,0.4-0.6,0.7-0.9,1.1l-0.2-0.1
			c0.8-1.7,1.3-4.2,1.5-7.4h-0.5c-0.3,0-0.5,0.1-0.8,0.2l-0.4-0.7c0.5,0.1,1.1,0.1,1.8,0.1h1.7l0.4-0.6c0,0,0.1-0.1,0.1-0.2
			c0.2-0.3,0.3-0.4,0.4-0.4c0.3,0.1,0.6,0.3,0.8,0.6c0.4,0.4,0.7,0.6,0.7,0.7s-0.1,0.2-0.4,0.2h-2.1c-0.1,1.2-0.4,2.4-0.8,3.6
			l0.3,0.1h0.5l0.3-0.4c0,0,0.1-0.1,0.1-0.1c0.2-0.2,0.3-0.3,0.3-0.3c0.3,0.1,0.6,0.3,0.8,0.5c0.4,0.3,0.7,0.6,0.7,0.7
			c-0.1,0.1-0.3,0.2-0.5,0.2v1.6c0,1.1,0.1,2.2,0.1,3.2c-0.2,0.1-0.4,0.3-0.6,0.3c-0.3,0.1-0.6,0.2-0.9,0.2c-0.2,0-0.3-0.1-0.3-0.3
			c0,0,0-0.1,0-0.1c0,0,0-0.1,0-0.1v-0.2h-0.8v0.3c0,0.1,0,0.2,0,0.3c0,0.2,0,0.3,0,0.3c-0.1,0.2-0.2,0.3-0.4,0.4
			C138.1,67.9,137.7,68,137.4,68z M138.7,66.1h0.8v-4.4h-0.8L138.7,66.1z M141.1,68.9l-0.1-0.2c1.4-0.6,2.7-1.7,3.6-3
			c-0.5-1.3-0.8-2.7-0.9-4.1h-0.3v0.1c0,1.2-0.1,2.4-0.4,3.6c-0.4,1.4-1.3,2.5-2.4,3.3l-0.1-0.1c0.6-1,1-2.1,1.1-3.3
			c0.2-1.2,0.2-2.4,0.2-3.5v-2.1c0-0.7,0-1.5-0.1-2.2l2,0.8h0.5c0-0.8,0-1.6-0.2-2.3c0.7,0.1,1.3,0.3,1.6,0.4c0.2,0,0.4,0.1,0.5,0.2
			c0,0,0,0.1-0.1,0.2l-0.2,0.2v1.4h0.7l0.4-0.4c0,0,0.1-0.1,0.1-0.1c0.2-0.2,0.3-0.3,0.3-0.3s0.3,0.2,0.8,0.6
			c0.4,0.4,0.7,0.7,0.7,0.8c-0.1,0.1-0.3,0.2-0.5,0.2c-0.5,0.5-1.1,1-1.8,1.4l-0.1-0.1c0-0.2,0.1-0.7,0.2-1.3c0-0.2,0-0.3,0-0.4
			h-0.8v2.6h0.3l0.4-0.5c0,0,0.1-0.1,0.1-0.1c0.2-0.2,0.3-0.3,0.4-0.3c0.1,0,0.4,0.2,0.8,0.6c0.4,0.4,0.7,0.7,0.7,0.8
			c-0.1,0.1-0.3,0.2-0.5,0.2c-0.3,1.3-0.9,2.6-1.7,3.7c0.8,0.6,1.6,1.1,2.6,1.4l0,0.1c-0.8,0.1-1.3,0.7-1.6,1.6
			c-0.8-0.5-1.5-1.2-2-2C144,67.9,142.6,68.6,141.1,68.9L141.1,68.9z M143.4,61.3h0.8v-2.6h-0.8L143.4,61.3z M145.2,64.7
			c0.5-0.9,0.8-1.9,0.9-3h-2.3C144.1,62.8,144.6,63.8,145.2,64.7L145.2,64.7z"/>
		<path class="st0" d="M155,68.9l-1-1.8c0.4,0,1-0.1,1.6-0.2v-1.1c-0.9,0.2-1.8,0.4-2.7,0.5l-0.1-0.1c0.8-0.3,1.7-0.7,2.4-1.1
			c0.6-0.4,1.2-0.9,1.8-1.4c-0.1,0.1-0.2,0.1-0.3,0.1h-2.4l-0.1-0.3c-1,1-2.1,2-3.3,2.9c0,0.2-0.2,0.3-0.4,0.4l-0.9-2.2
			c0,0,0,0,0.1,0c0.5-0.1,1-0.3,1.4-0.4v-4.1h-0.4c-0.2,0-0.5,0.1-0.7,0.2l-0.4-0.7c0.3,0.1,0.6,0.1,1,0.1h0.5v-0.9
			c0-0.9,0-1.9-0.2-2.8c0.8,0.2,1.4,0.3,1.7,0.4c0.2,0,0.4,0.1,0.6,0.2c0,0,0,0.1-0.1,0.2L153,57v2.4l0.5-0.9
			c0.1,0.1,0.2,0.3,0.4,0.4c0.3,0.3,0.5,0.6,0.7,0.9c0-0.6,0-1.3-0.1-1.9l1.7,0.7h4l0.7-0.8h-4.6c-0.7,0-1.4,0.1-2.1,0.2l-0.3-0.7
			c0.5,0.1,1.1,0.1,1.8,0.1h1.7c0-0.6,0-1.2-0.1-1.8c0.7,0.1,1.3,0.3,1.6,0.4c0.2,0,0.4,0.1,0.5,0.2c0,0,0,0.1-0.1,0.2l-0.2,0.2v0.9
			h1l0.4-0.6c0.1-0.1,0.1-0.1,0.1-0.2c0.2-0.3,0.3-0.4,0.4-0.4s0.4,0.2,0.9,0.6c0.5,0.4,0.7,0.7,0.7,0.8c0,0.1-0.2,0.2-0.4,0.2h-1.2
			c0.4,0.3,0.9,0.6,1.2,1c0.1,0.1,0.1,0.2,0,0.3l-0.2,0.1v0.6c0,0.1,0,0.3,0,0.5c0,0.3,0,0.5,0,0.6c0,0.1-0.2,0.2-0.5,0.3
			c-0.3,0.1-0.6,0.1-0.8,0.1h-0.3V61H156v0.1c0,0.1-0.1,0.2-0.4,0.3c-0.3,0.1-0.6,0.2-0.9,0.2c-0.1,0-0.3-0.1-0.3-0.2c0,0,0,0,0-0.1
			c0-0.1,0-0.3,0.1-0.5c0-0.1,0-0.2,0-0.2v-0.5c-0.1,0.1-0.2,0.1-0.3,0.1H153v3.5c0.2-0.1,0.4-0.2,0.8-0.3l0.5-0.2l0,0.1l-0.1,0.1h1
			l0.6-0.8c0.4,0.3,0.8,0.6,1.1,1c0,0,0,0.1-0.1,0.1c0.1-0.1,0.2-0.2,0.2-0.2c0,0,0,0,0.1-0.1l0,0c0-0.7,0-1.5-0.1-2.2
			c0.6,0.1,1.3,0.3,1.9,0.5c0.2,0.1,0.2,0.2,0.1,0.2l-0.2,0.1v1.5c0,0.1-0.2,0.1-0.5,0.2l1.2,0.4c-0.1,0.2-0.3,0.3-0.7,0.3l-0.1,0
			c0.2,0.4,0.5,0.7,0.8,1.1c0.4-0.5,0.7-1,1-1.5l1.7,1.3c-0.1,0.1-0.2,0.2-0.5,0.1c-0.2,0.1-0.7,0.2-1.4,0.4l-0.5,0.1
			c0.7,0.6,1.6,1,2.5,1.2l0,0.1c-0.7,0.2-1.1,0.8-1.3,1.7c-0.7-0.4-1.3-1-1.7-1.7c-0.5-0.8-0.8-1.7-1-2.6c-0.4,0.3-0.9,0.5-1.3,0.7
			v1.5c0.6-0.1,1.3-0.2,1.9-0.2v0.2c-0.9,0.5-2.2,1.2-3.8,1.9C155.3,68.7,155.1,68.9,155,68.9z M154.6,62.8l-0.4-0.7
			c0.3,0.1,0.6,0.1,0.8,0.1h0.4l0.3-0.4c0,0,0-0.1,0.1-0.1c0.1-0.2,0.2-0.3,0.3-0.3s0.3,0.1,0.6,0.4c0.3,0.3,0.4,0.4,0.4,0.5
			c0,0.1-0.1,0.2-0.3,0.2h-1.6C155,62.6,154.8,62.7,154.6,62.8L154.6,62.8z M156,60.6h0.4v-1.6H156V60.6z M157.9,60.6h0.5v-1.6h-0.5
			V60.6z M159.4,62.8l-0.3-0.7c0.3,0.1,0.6,0.1,0.9,0.1h0.4l0.2-0.4c0,0,0-0.1,0.1-0.1c0.1-0.2,0.2-0.3,0.3-0.3
			c0.1,0,0.3,0.1,0.6,0.4c0.3,0.3,0.4,0.4,0.4,0.5c0,0.1-0.1,0.2-0.3,0.2h-1.7C159.9,62.6,159.6,62.7,159.4,62.8L159.4,62.8z
			 M159.4,64l-0.3-0.7c0.3,0.1,0.6,0.1,0.9,0.1h0.4l0.3-0.4c0,0,0.1-0.1,0.1-0.1c0.1-0.2,0.2-0.3,0.3-0.3c0.1,0,0.3,0.1,0.6,0.4
			s0.5,0.5,0.5,0.6c0,0.1-0.2,0.2-0.3,0.2H161C160.5,63.8,159.9,63.8,159.4,64L159.4,64z M159.7,60.6h0.5v-1.6h-0.5V60.6z"/>
		<path class="st0" d="M174.9,68.9c-1-0.3-1.9-0.8-2.6-1.5c-0.8-0.8-1.3-1.8-1.5-2.9h-1.3v2l1.9-0.2v0.2c-1.4,0.7-2.8,1.4-4.2,1.9
			c-0.1,0.2-0.2,0.3-0.4,0.3l-0.9-2c0.6,0,1.2,0,1.8-0.1v-2.1h-0.9c-0.3,1.8-1.4,3.3-3,4.1l-0.1-0.1c0.6-0.9,1-1.9,1.1-3
			c0.1-1,0.2-1.9,0.2-2.9v-1.9l0.4,0.1v-1.8c0-0.9,0-1.9-0.2-2.8l2.1,0.8h0.6c0-0.5,0-0.9-0.1-1.4c0.6,0.1,1.3,0.3,1.9,0.5
			c0.2,0.1,0.2,0.2,0.1,0.2l-0.2,0.1v0.5h0.8c0-0.5,0-0.9-0.1-1.4c0.6,0.1,1.3,0.3,1.9,0.5c0.2,0.1,0.2,0.2,0.1,0.2l-0.2,0.1v0.5
			h0.6l0.4-0.5c0-0.1,0.1-0.1,0.1-0.2c0.2-0.2,0.3-0.3,0.3-0.3c0.3,0.1,0.7,0.3,0.9,0.6c0.5,0.4,0.8,0.6,0.8,0.7
			c-0.1,0.2-0.3,0.3-0.5,0.3l0,2.8c0.5,0.5,0.9,0.8,1.2,1.1c0,0.1-0.2,0.2-0.4,0.2h-1.9c0.4,0.3,0.9,0.7,1.3,1.1
			c0,0.1-0.1,0.2-0.2,0.2c0.5,0.4,1,0.8,1.5,1.2c0,0.1-0.2,0.2-0.4,0.2h-1.8c0.5,0.2,0.9,0.5,1.3,0.8c0.1,0.1,0.1,0.2,0,0.2h-0.2
			c-0.7,0.3-1.4,0.5-2.1,0.6c1.1,0.4,2.2,0.7,3.4,0.7v0.2C175.5,67.4,175.1,68,174.9,68.9z M167.2,61.6h6.2l0.4-0.6
			c-0.2,0-0.4,0.1-0.7,0.1h-0.3v-0.5h-5.7v0.2c0,0.1-0.1,0.1-0.2,0.2c-0.2,0.1-0.4,0.2-0.6,0.2L167.2,61.6z M166.8,64.2h6.8l0.8-1
			h-4.9c-0.7,0-1.4,0.1-2.1,0.2l-0.4-0.7c0.5,0.1,1.1,0.1,1.8,0.1h3.6l0.7-0.9h-6.3v0.8C166.9,63.2,166.9,63.7,166.8,64.2z
			 M167.1,58.7h0.7v-1.2h-0.7V58.7z M167.1,60.2h0.7v-1.2h-0.7V60.2z M169.6,58.7h0.8v-1.2h-0.8V58.7z M169.6,60.2h0.8v-1.2h-0.8
			V60.2z M172.3,66c0.4-0.4,0.8-0.9,1.1-1.3H171C171.3,65.2,171.8,65.6,172.3,66L172.3,66z M172.1,58.7h0.8v-1.2h-0.8V58.7z
			 M172.1,60.2h0.8v-1.2h-0.8V60.2z"/>
		<path class="st0" d="M179.3,68.9c-0.3,0-0.5-0.1-0.5-0.3c0.1-1.2,0.1-2.4,0.1-3.6v-3.1c-0.5,0.5-1.1,1-1.6,1.4l-0.1-0.1
			c0.9-1.4,1.6-3,2.1-4.6c0.2-0.5,0.3-1,0.4-1.5c0.1-0.5,0.2-1,0.2-1.4c0.8,0.3,1.5,0.5,1.9,0.7c0.2,0.1,0.4,0.2,0.6,0.3
			c0,0.1,0,0.1-0.1,0.2l-0.3,0.1c-0.4,1.1-1,2.1-1.6,3.1c0.3,0.1,0.5,0.3,0.7,0.5c0.1,0.1,0,0.2-0.1,0.2l-0.2,0.1v4.2
			c0,1.1,0.1,2.2,0.1,3.2c-0.2,0.2-0.4,0.3-0.6,0.4C180.1,68.8,179.7,68.9,179.3,68.9z M184.8,68.9c-0.3,0-0.5-0.1-0.5-0.3
			c0.1-1.2,0.1-2.4,0.1-3.6v-5.7c-0.8,1.3-1.9,2.4-3.2,3.3l-0.1-0.1c0.7-1.2,1.3-2.5,1.8-3.8c0.2-0.5,0.3-1,0.4-1.5
			c0.1-0.5,0.2-1,0.2-1.4c0.9,0.3,1.5,0.5,1.9,0.7c0.2,0.1,0.4,0.2,0.6,0.3c0,0.1,0,0.1-0.1,0.1l-0.3,0.1c-0.3,0.6-0.6,1.3-1,1.9
			h2.5l1-1.4c0.2,0.2,0.4,0.4,0.6,0.5c0.5,0.4,0.9,0.7,1.2,1c0,0.1-0.2,0.2-0.4,0.2h-3.2v2.6h0.5l0.4-0.6c0,0,0.1-0.1,0.1-0.2
			c0.2-0.3,0.3-0.4,0.4-0.4s0.4,0.2,0.9,0.6c0.5,0.4,0.7,0.7,0.7,0.8c0,0.1-0.2,0.2-0.4,0.2h-2.7v2.6h0.6l1-1.4l1.8,1.5
			c0,0.1-0.2,0.2-0.4,0.2h-3v1.1c0,0.9,0,1.5,0.1,2c-0.1,0.2-0.3,0.3-0.5,0.3C185.6,68.8,185.2,68.9,184.8,68.9L184.8,68.9z"/>
		<path class="st0" d="M193.6,68.9c-0.3,0-0.5-0.1-0.5-0.3c0.1-0.8,0.1-1.7,0.1-2.7v-1.5c-0.4,0.3-0.8,0.5-1.1,0.7
			c-0.1,0.2-0.2,0.3-0.4,0.4l-0.7-2.2c0.6-0.1,1.3-0.3,2.2-0.5v-3h-0.8c-0.3,0.8-0.7,1.6-1.2,2.2l-0.2-0.1c0.1-0.7,0.2-1.4,0.3-2.1
			c0-0.3,0-0.7,0-1.3s0-1,0-1.3s0-0.4-0.1-0.2l2,0.3c0-0.5,0-1-0.1-1.4c0.7,0.2,1.3,0.3,1.6,0.4c0.2,0,0.4,0.1,0.5,0.2
			c0,0,0,0.1-0.1,0.2l-0.2,0.1v2.4l0.6-1.1l0.8,0.9c0.1-0.2,0.1-0.3,0.1-0.4c0.3-0.9,0.4-1.9,0.4-2.8c0.7,0.2,1.5,0.5,2.2,0.7
			c0.2,0.1,0.2,0.2,0.1,0.3l-0.3,0.1c-0.2,0.6-0.4,1.1-0.7,1.6h3l0.5-0.5c0,0,0.1-0.1,0.2-0.2c0.2-0.2,0.3-0.3,0.4-0.3
			s0.4,0.2,0.8,0.7s0.7,0.7,0.7,0.8c-0.2,0.2-0.4,0.3-0.6,0.3c0,2-0.2,4.1-0.4,6.1c-0.2,1.3-0.5,2.2-0.9,2.6
			c-0.3,0.3-0.6,0.5-0.9,0.6c-0.4,0.1-0.8,0.2-1.2,0.2c0-0.7-0.1-1.1-0.3-1.4c-0.3-0.3-0.7-0.6-1.5-0.7v-0.1c0.9,0.1,1.6,0.1,2,0.1
			c0.2,0,0.4-0.1,0.5-0.2c0.4-0.4,0.7-2.4,0.9-6c-1,3.5-2.9,6-5.8,7.5l-0.1-0.1c1.3-1.1,2.3-2.5,3-4.1c0.7-1.5,1.1-3.1,1.3-4.8
			c-0.4,1.2-0.9,2.4-1.6,3.4c-0.7,1.1-1.6,2-2.7,2.7l-0.1-0.1c0.7-0.9,1.3-1.8,1.8-2.8c0.5-1,0.8-2.1,0.9-3.2
			c-0.6,1.1-1.6,2.1-2.7,2.7l-0.1-0.1c0.4-0.6,0.7-1.2,0.9-1.8H195v2.6c0.2-0.1,0.6-0.2,1.1-0.3c0.2-0.1,0.4-0.1,0.5-0.1v0.1l0,0
			c-0.6,0.5-1.2,0.9-1.6,1.2v1.9c0,1.1,0.1,2.2,0.1,3.2c-0.1,0.2-0.3,0.3-0.5,0.4C194.3,68.8,194,68.9,193.6,68.9z M192.6,59.3h0.6
			v-1.7l-0.2,0C192.9,58.4,192.8,59,192.6,59.3L192.6,59.3z"/>
		<path class="st0" d="M205,68.9l-0.2-0.2c0.8-0.7,1.4-1.6,1.9-2.5c1-2.4,1-5.1,0-7.6c-0.5-1-1.1-1.8-1.9-2.5l0.2-0.2
			c2.7,1.5,4,3.7,4,6.5C209,65.2,207.6,67.4,205,68.9z"/>
		<polygon class="st0" points="83.9,37.1 78.2,33.8 78.2,40.3 		"/>
		<polygon class="st0" points="83.9,62.5 78.2,59.2 78.2,65.8 		"/>
	</g>
</g>
</svg>
