<?xml version="1.0" encoding="utf-8"?>
<!-- Generator: Adobe Illustrator 25.4.1, SVG Export Plug-In . SVG Version: 6.00 Build 0)  -->
<svg version="1.1" id="圖層_1" xmlns="http://www.w3.org/2000/svg" xmlns:xlink="http://www.w3.org/1999/xlink" x="0px" y="0px"
	 viewBox="0 0 283.5 63.1" style="enable-background:new 0 0 283.5 63.1;" xml:space="preserve">
<style type="text/css">
	.st0{fill:#333333;}
	.st1{fill:none;stroke:#333333;stroke-miterlimit:10;}
</style>
<g id="圖層_2_00000129913590992269732760000013802522264122760323_">
	<g id="下巴標示">
		<path class="st0" d="M9.4,40.9c0-0.6-0.1-1-0.3-1.3c-0.3-0.3-0.7-0.5-1.5-0.7l0-0.2c0.9,0.1,1.6,0.1,2,0.1c0.2,0,0.4-0.1,0.5-0.2
			c0.1-0.2,0.3-0.3,0.3-0.6H5.9c0,0.1,0,0.2-0.1,0.3c0,0.2-0.1,0.3-0.1,0.4C5.5,39,5.2,39.1,5,39.1c-0.4,0-0.8-0.1-1.2-0.2
			c0.2-1.1,0.5-2.5,0.8-4.2H3.8c-0.4,0-0.9,0.1-1.3,0.2l-0.4-0.7c0.5,0.1,1,0.1,1.7,0.1h0.8c0.1-0.9,0.3-2,0.5-3.1
			c-0.6,0.4-1.2,0.7-1.8,1l-0.1-0.1c0.5-0.7,0.9-1.4,1.3-2.1c0.4-0.9,0.8-1.8,1-2.7c0.8,0.3,1.4,0.6,1.8,0.8
			c0.2,0.1,0.4,0.2,0.6,0.4c0,0.1,0,0.1-0.1,0.1l-0.3,0.1c-0.1,0.2-0.3,0.5-0.5,0.8h5l1-1.3c0.2,0.2,0.4,0.3,0.7,0.5
			c0.5,0.4,0.9,0.7,1.2,1c0,0.1-0.2,0.2-0.4,0.2H6.6c-0.3,0.3-0.5,0.6-0.8,0.8l1.5,0.6h3.9l0.5-0.5c0,0,0.1-0.1,0.2-0.2
			c0.2-0.2,0.4-0.4,0.4-0.4c0.1,0,0.4,0.2,0.9,0.7c0.5,0.5,0.7,0.7,0.7,0.8c-0.2,0.2-0.4,0.3-0.6,0.3c0,0.8-0.1,1.6-0.1,2.3l0.4-0.6
			l0.2-0.2c0.2-0.3,0.3-0.4,0.3-0.4c0,0,0.3,0.2,0.8,0.7c0.4,0.4,0.7,0.7,0.7,0.8c0,0.2-0.2,0.2-0.4,0.2h-2c0,1-0.2,2-0.3,2.9h0.1
			l0.4-0.6c0,0,0.1-0.1,0.1-0.2c0.2-0.3,0.3-0.4,0.4-0.4c0.1,0,0.3,0.2,0.8,0.6c0.4,0.4,0.6,0.7,0.6,0.8c0,0.2-0.2,0.2-0.4,0.2h-2.1
			c-0.2,1-0.5,1.7-0.9,2.1c-0.3,0.3-0.6,0.4-0.9,0.5C10.3,40.8,9.9,40.9,9.4,40.9z M5.9,37.7h4.7c0.2-1,0.4-1.9,0.4-2.9H6.4
			c0,0.3-0.1,0.6-0.2,1.2C6.1,36.8,6,37.4,5.9,37.7L5.9,37.7z M6.5,34.4h4.6c0.1-0.8,0.1-1.7,0.2-2.7H6.9c0,0.2-0.1,0.5-0.1,1
			C6.6,33.5,6.5,34,6.5,34.4L6.5,34.4z M8.4,37.2c-0.1-0.4-0.3-0.8-0.6-1.1c-0.2-0.3-0.5-0.7-0.8-1l0.1-0.1c0.9,0,1.6,0.1,2.1,0.4
			c0.4,0.2,0.6,0.6,0.6,1c0,0.3-0.2,0.7-0.5,0.8C9.2,37.4,8.7,37.4,8.4,37.2L8.4,37.2z M8.5,34c-0.2-0.7-0.6-1.4-1.1-2L7.5,32
			c0.7,0,1.4,0.1,2,0.5C9.8,32.6,10,33,10,33.3c0,0.3-0.2,0.6-0.4,0.8C9.2,34.3,8.8,34.2,8.5,34L8.5,34z"/>
		<path class="st0" d="M23.3,40.9c-0.3,0-0.5-0.1-0.5-0.3c0-0.5,0.1-1.2,0.1-2.1v-1.2h-4.1c-0.7,0-1.4,0.1-2.1,0.2l-0.4-0.7
			c0.5,0.1,1,0.1,1.6,0.1h0.8v-4.7c-0.7,0.6-1.4,1-2.1,1.5l-0.1-0.1c0.8-1.1,1.5-2.3,2.1-3.5c0.2-0.5,0.4-1,0.6-1.5
			c0.2-0.5,0.3-1,0.3-1.5c0.9,0.3,1.6,0.6,2,0.8c0.2,0.1,0.5,0.2,0.6,0.4c0,0.1,0,0.1-0.1,0.1l-0.3,0.1c-0.3,0.5-0.5,0.9-0.7,1.2
			h5.1l1.1-1.4c0.2,0.2,0.5,0.4,0.7,0.5c0.5,0.4,0.9,0.8,1.3,1c0,0.2-0.2,0.2-0.4,0.2h-3.7V33h0.8l0.5-0.6l0.2-0.2
			c0.2-0.3,0.4-0.4,0.4-0.4c0.1,0,0.4,0.2,1,0.6c0.5,0.4,0.8,0.7,0.8,0.8c0,0.1-0.2,0.2-0.4,0.2H25v3.5h1.3l1.1-1.4
			c0.6,0.5,1.3,1,1.9,1.6c0,0.2-0.2,0.2-0.4,0.2h-3.9v1c0,0.8,0,1.5,0.1,1.9c-0.1,0.2-0.3,0.3-0.5,0.4
			C24.2,40.8,23.7,40.9,23.3,40.9z M21,33h1.9v-2.9h-2.2c-0.6,0.7-1.2,1.4-1.9,2L21,33z M20.8,36.9h2.1v-3.5h-2.1V36.9z"/>
		<path class="st0" d="M39.3,40.9c0-0.7-0.1-1.2-0.3-1.4c-0.4-0.4-1-0.7-1.6-0.8v-0.2c1,0.1,1.7,0.1,2.1,0.1c0.2,0,0.4-0.1,0.5-0.2
			c0.3-0.2,0.5-1,0.6-2.2c0.1-1.2,0.2-2.9,0.3-5.3h-3c-0.5,0.8-1.1,1.5-1.8,2.1c0.3,0.3,0.5,0.8,0.5,1.2c0,0.3-0.2,0.6-0.5,0.8
			c-0.4,0.1-0.8,0.1-1-0.2c0-0.4-0.1-0.7-0.2-1.1l-0.4,0.2v1.4c0.7,0.2,1.3,0.6,1.8,1.1c0.3,0.3,0.4,0.8,0.3,1.2
			c0,0.3-0.3,0.6-0.6,0.7c-0.4,0.1-0.8,0-1-0.3c0-0.8-0.2-1.6-0.5-2.3v1.5c0,1.3,0.1,2.3,0.1,3c-0.1,0.2-0.3,0.3-0.5,0.4
			c-0.3,0.1-0.7,0.2-1.1,0.2c-0.3,0-0.4-0.1-0.4-0.3c0.1-0.9,0.1-1.7,0.1-2.6v-1.4c-0.4,1.2-1.1,2.2-2,3.1l-0.2-0.1
			c0.1-0.4,0.2-0.7,0.3-1.1c0.1-0.5,0.2-1,0.2-1.6c0-0.5,0-1,0-1.5l1.7,0.4v-1.2c-0.3,0.1-0.7,0.3-1.3,0.5c-0.1,0.2-0.2,0.3-0.4,0.3
			l-0.5-1.8c0.5,0,1.1,0,1.8-0.1c0.1-0.2,0.3-0.6,0.6-1.2c0-0.1,0.1-0.2,0.1-0.2c-0.1,0.2-0.3,0.2-0.6,0.3c-0.2,0-0.5-0.1-0.7-0.2
			c-0.2-0.9-0.5-1.6-1.1-2.3l0.1-0.1c0.4,0.1,0.9,0.2,1.3,0.3c0.2-0.9,0.3-1.8,0.4-2.7c0.7,0.2,1.5,0.5,2.2,0.8
			c0.2,0.1,0.2,0.2,0.1,0.3l-0.3,0.1c-0.5,0.7-1.1,1.2-1.8,1.8c0.5,0.3,0.7,0.8,0.7,1.2c0.3-0.7,0.6-1.5,0.7-2.3
			c0.7,0.2,1.4,0.5,2.1,0.9c0.2,0.1,0.2,0.2,0.1,0.3l-0.3,0.1c-0.4,0.6-0.9,1.1-1.5,1.7c0.5,0.2,1,0.4,1.5,0.7
			c0.3-0.8,0.5-1.6,0.7-2.4c0.1-0.5,0.2-1,0.3-1.6c0.1-0.5,0.1-1,0.1-1.5c0.8,0.2,1.5,0.5,2.2,0.8c0.2,0.1,0.2,0.2,0.1,0.3L39,28.6
			c-0.2,0.7-0.5,1.3-0.9,1.9h2.7l0.5-0.5l0.2-0.2c0.2-0.2,0.4-0.4,0.4-0.4c0.1,0,0.4,0.2,0.9,0.7c0.5,0.5,0.8,0.8,0.8,0.9
			c-0.2,0.2-0.4,0.3-0.6,0.3c-0.1,2.9-0.2,4.9-0.4,6.1c-0.2,1.4-0.5,2.2-0.9,2.7c-0.3,0.3-0.6,0.5-1,0.6
			C40.2,40.8,39.8,40.9,39.3,40.9z M32.9,33.5c0.1,0,0.2,0,0.3,0l1.6-0.1c-0.1-0.4-0.3-0.8-0.5-1.2C33.8,32.7,33.3,33.2,32.9,33.5
			L32.9,33.5z M38.1,35.7c-0.1-1.1-0.4-2.1-0.9-3.1l0.1-0.1c0.8,0.2,1.5,0.7,2,1.3c0.3,0.4,0.5,0.9,0.4,1.4c0,0.4-0.3,0.7-0.6,0.8
			C38.8,36.2,38.4,36.1,38.1,35.7L38.1,35.7z"/>
		<path class="st0" d="M45.3,39.5v-0.4l2-0.3c0-1.2,0-2.1,0-2.7V30l-1.7,0.2v-0.5l3.8-0.9l0.2,0.1l0,2.3v4.9c0,0.6,0,1.5,0,2.7
			l1.9,0.3v0.4H45.3z"/>
		<path class="st0" d="M56.9,39.8c-1,0-2-0.5-2.6-1.3c-0.7-1-1.1-2.4-1.1-4.2c0-1.8,0.4-3.2,1.1-4.2c1-1.4,3-1.7,4.4-0.7
			c0.3,0.2,0.5,0.4,0.7,0.7c0.7,1,1.1,2.4,1.1,4.2s-0.4,3.2-1.1,4.2C58.9,39.3,58,39.8,56.9,39.8z M56.9,39.3c1,0,1.6-1.7,1.6-5
			c0-3.4-0.5-5-1.6-5c-1,0-1.5,1.7-1.5,5S55.9,39.2,56.9,39.3z"/>
		<path class="st0" d="M62.2,40.9L62.2,40.9c0.9-1.1,1.6-2.3,2-3.6c0.3-1.3,0.4-2.7,0.4-4v-2.6c0-0.9,0-1.8-0.2-2.7l2.5,0.9h3.4
			l0.4-0.5c0.1-0.1,0.1-0.1,0.1-0.2c0.2-0.2,0.3-0.4,0.4-0.4s0.4,0.2,1,0.7s0.8,0.7,0.8,0.8c-0.1,0.2-0.3,0.3-0.5,0.3v9
			c0,0.8-0.1,1.3-0.4,1.6c-0.4,0.4-1.1,0.6-2.1,0.7c0-0.7-0.2-1.2-0.4-1.5c-0.4-0.4-0.9-0.6-1.4-0.7v-0.2c0.7,0,1.4,0.1,2.1,0.1
			c0.2,0,0.3-0.1,0.3-0.3v-2.7h-4c-0.1,1-0.5,2-1.1,2.9C64.5,39.6,63.4,40.4,62.2,40.9z M66.4,35.2h4v-2.8h-3.9v0.9
			C66.5,33.9,66.5,34.5,66.4,35.2z M66.5,31.9h3.9v-2.7h-3.9V31.9z"/>
		<path class="st0" d="M76.2,40.3l-0.4-0.7c0.5,0.1,1.1,0.1,1.9,0.1h3.6v-3.3h-1.7c-0.7,0-1.4,0.1-2.1,0.2L77.2,36
			c0.5,0.1,1.1,0.1,1.9,0.1h2.2c0-0.8,0-1.7-0.2-2.5c0.9,0.2,1.5,0.3,1.9,0.4c0.2,0,0.4,0.1,0.6,0.2c0,0,0,0.1-0.1,0.2l-0.2,0.2v1.6
			h1.5l1.1-1.4c0.7,0.5,1.3,1.1,2,1.6c0,0.2-0.2,0.2-0.4,0.2h-4.1v3.3h2.3l1.1-1.5c0.7,0.5,1.4,1.1,2,1.7c0,0.2-0.2,0.2-0.4,0.2
			H78.3C77.6,40.1,76.9,40.2,76.2,40.3z M77.8,34.6l-1.2-2.3c0.2,0,0.6,0,1.2,0l1.5,0c0.3-1,0.6-2,0.8-3h-1.4
			c-0.7,0-1.4,0.1-2.1,0.2l-0.4-0.7c0.5,0.1,1.1,0.1,1.9,0.1h7.2l1.1-1.4c0.7,0.5,1.3,1,2,1.6c0,0.2-0.2,0.2-0.4,0.2h-5
			c-0.9,1.1-1.8,2-2.9,3c0.7,0,1.8-0.1,3.4-0.2c0.7,0,1.2-0.1,1.5-0.1c-0.5-0.7-1.1-1.3-1.8-1.8l0.1-0.1c1.1,0.1,2.2,0.5,3.2,1.1
			c0.6,0.3,1,0.9,1.2,1.5c0.1,0.4,0,0.9-0.3,1.2c-0.3,0.3-0.7,0.3-1.2,0c-0.2-0.5-0.5-1-0.9-1.4c-1.5,0.5-3.9,1.1-7.2,1.8
			C78.2,34.5,78,34.6,77.8,34.6L77.8,34.6z"/>
		<path class="st0" d="M90.9,40.9c-0.1,0-0.3,0-0.4-0.1c-0.1,0-0.1-0.1-0.1-0.2c0.1-1.2,0.1-2.4,0.2-3.7v-6.2c0-1,0-1.9-0.2-2.9
			l2.1,0.8h0.4l0.9-0.9l1.1,1.1l0-0.1h5.5l0.4-0.6c0,0,0.1-0.1,0.1-0.2c0.2-0.3,0.3-0.4,0.4-0.4c0.1,0,0.4,0.2,0.9,0.6
			s0.7,0.7,0.7,0.8s-0.2,0.2-0.4,0.2h-7.4l0.3,0.3c-0.2,0.1-0.4,0.2-0.6,0.2c-0.6,1.1-1.2,2.1-2,3.1c0.6,0.4,1.1,1,1.5,1.6
			c0.3,0.6,0.5,1.2,0.5,1.8c0,0.6-0.1,1.2-0.4,1.7c-0.3,0.4-0.8,0.6-1.6,0.6c0-0.5,0-1-0.2-1.5c-0.1-0.2-0.2-0.3-0.3-0.3v1.2
			c0,1,0,1.8,0.1,2.4c-0.1,0.2-0.3,0.3-0.5,0.4C91.6,40.8,91.3,40.9,90.9,40.9z M92.3,36.4h0.4c0.1,0,0.2,0,0.3-0.1
			c0.2-0.2,0.2-0.5,0.2-0.7c0-1-0.2-2-0.6-2.9c0.2-1.2,0.4-2.4,0.5-3.7h-0.7V36.4z M100.6,40.9c0-0.4,0-0.8-0.2-1.2
			c-0.1-0.3-0.4-0.5-0.7-0.5v-0.2c0.3,0,0.6,0,0.8,0.1c0.1,0,0.2-0.1,0.2-0.2v-2.5c-0.3,0.1-0.5,0.1-0.8,0.1h-0.3l0.2,0.2
			c0.4,0.3,0.6,0.6,0.8,0.7c0,0.1-0.2,0.2-0.3,0.2h-0.9v0.9c0,0.1,0,0.3,0,0.6c0,0.5,0,0.9,0.1,1.2c-0.1,0.1-0.2,0.2-0.4,0.2
			c-0.3,0.1-0.6,0.1-0.9,0.1c-0.2,0-0.4-0.1-0.4-0.3c0-0.4,0.1-1,0.1-1.7v-1h-0.3c-0.2,0-0.3,0.1-0.5,0.2L96.8,37
			c0.5,0.1,1,0.1,1.5,0.1H99l0.5-0.7c-0.2,0-0.4-0.1-0.5-0.2c-0.1-0.2-0.1-0.4-0.1-0.7v-1.3h-0.5c0,0.5-0.2,1.1-0.4,1.5
			c-0.3,0.5-0.8,0.9-1.3,1.2l-0.1-0.1v1.2c0,1,0,1.7,0.1,2.3c-0.1,0.2-0.3,0.3-0.4,0.4c-0.3,0.1-0.7,0.2-1,0.2c-0.1,0-0.2,0-0.3-0.1
			c-0.1,0-0.1-0.1-0.1-0.2c0.1-1.2,0.1-2.4,0.2-3.7v-3.8l0.8,0.3v-1.2c0-1,0-1.9-0.2-2.9l2,0.8h2.4l0.4-0.4c0,0,0.1-0.1,0.1-0.2
			c0.2-0.2,0.3-0.3,0.3-0.3c0.3,0.1,0.6,0.3,0.9,0.6c0.5,0.4,0.7,0.6,0.7,0.7c-0.1,0.1-0.3,0.2-0.5,0.3v0.6c0,0.1,0,0.2,0,0.4
			c0,0.4,0,0.6,0.1,0.8c0,0.1-0.2,0.2-0.6,0.3c-0.3,0.1-0.6,0.2-1,0.2H100v-0.6h-2.6v0.4c0,0.1-0.2,0.2-0.5,0.3
			c-0.3,0.1-0.7,0.2-1,0.2h-0.2l1.1,0.4h3.9l0.4-0.4c0,0,0.1-0.1,0.1-0.1c0.2-0.2,0.3-0.3,0.4-0.3c0.3,0.1,0.6,0.3,0.9,0.6
			c0.5,0.4,0.7,0.6,0.7,0.7c-0.1,0.2-0.3,0.3-0.6,0.3v4.4c0,0.5-0.1,0.9-0.3,1.3C101.9,40.6,101.4,40.8,100.6,40.9L100.6,40.9z
			 M96.6,36.6c0.3-0.3,0.4-0.7,0.5-1.1c0.1-0.4,0.1-0.9,0.1-1.3h-0.6L96.6,36.6z M97.4,32.1h2.6v-1.6h-2.6V32.1z M100,35.4h0.4
			c0.1,0,0.2,0,0.2,0h0.1v-1.1h-0.8v1C100,35.3,100,35.4,100,35.4L100,35.4z"/>
		<path class="st0" d="M111.1,40.9c-0.3,0-0.5-0.1-0.5-0.3c0-0.5,0.1-1.2,0.1-2.1v-1.2h-4.1c-0.7,0-1.4,0.1-2.1,0.2l-0.4-0.7
			c0.4,0.1,1,0.1,1.6,0.1h0.8v-4.7c-0.7,0.6-1.4,1-2.1,1.5l-0.1-0.1c0.8-1.1,1.5-2.3,2.1-3.5c0.2-0.5,0.4-1,0.6-1.5
			c0.2-0.5,0.3-1,0.4-1.5c0.9,0.4,1.6,0.6,2,0.8c0.2,0.1,0.5,0.2,0.6,0.4c0,0.1,0,0.1-0.1,0.1l-0.3,0.1c-0.3,0.5-0.5,0.9-0.7,1.2
			h5.1l1.1-1.4c0.2,0.2,0.5,0.4,0.7,0.5c0.5,0.4,0.9,0.8,1.3,1c0,0.2-0.2,0.2-0.4,0.2h-3.7V33h0.8l0.5-0.6l0.2-0.2
			c0.2-0.3,0.4-0.4,0.4-0.4s0.4,0.2,1,0.6c0.5,0.4,0.8,0.7,0.8,0.8c0,0.1-0.2,0.2-0.4,0.2h-3.2v3.5h1.3l1.1-1.4c0.6,0.5,1.3,1,2,1.6
			c0,0.2-0.2,0.2-0.4,0.2h-3.9v1c0,0.8,0,1.5,0.1,1.9c-0.1,0.2-0.3,0.3-0.5,0.4C112,40.8,111.5,40.9,111.1,40.9z M108.8,33h1.9v-2.9
			h-2.2c-0.6,0.7-1.2,1.4-1.9,2L108.8,33z M108.6,36.9h2.1v-3.5h-2.1V36.9z"/>
		<path class="st0" d="M121.8,39.8c-1.1,0-1.9-0.2-2.5-0.7c-0.6-0.4-0.9-1.1-0.9-1.9c0.1-0.4,0.5-0.7,0.9-0.6c0.3,0,0.5,0.1,0.7,0.3
			c0.2,0.3,0.3,0.6,0.4,1l0.2,1.4c0.2,0,0.3,0.1,0.5,0.1c0.6,0,1.2-0.2,1.7-0.6c0.4-0.5,0.6-1.1,0.6-1.8c0-0.7-0.2-1.4-0.6-2
			c-0.4-0.5-1-0.8-1.7-0.7h-0.6v-0.6h0.5c0.6,0,1.1-0.2,1.5-0.6c0.4-0.5,0.6-1.1,0.5-1.7c0-0.5-0.2-1.1-0.5-1.4
			c-0.3-0.3-0.7-0.4-1.1-0.4c-0.4,0-0.7,0.1-1,0.3c-0.4,0.3-0.7,0.6-1,0.9l-0.3-0.2c0.7-1.2,1.8-1.7,3.3-1.7c0.8,0,1.6,0.2,2.2,0.7
			c0.5,0.5,0.8,1.1,0.8,1.8c0,0.6-0.2,1.2-0.6,1.6c-0.6,0.5-1.3,0.9-2.1,1c2,0.3,3,1.3,3,3c0,0.8-0.4,1.6-1,2.1
			C123.9,39.5,123,39.8,121.8,39.8z"/>
		<path class="st0" d="M127.2,40.9L127.2,40.9c0.9-1.1,1.6-2.3,2-3.6c0.3-1.3,0.4-2.7,0.4-4v-2.6c0-0.9,0-1.8-0.2-2.7l2.5,0.9h3.4
			l0.4-0.5c0.1-0.1,0.1-0.1,0.1-0.2c0.2-0.2,0.3-0.4,0.4-0.4c0.1,0,0.4,0.2,0.9,0.7s0.8,0.7,0.8,0.8c-0.1,0.2-0.3,0.3-0.5,0.3v9
			c0,0.8-0.1,1.3-0.4,1.6c-0.4,0.4-1.1,0.6-2.1,0.7c0-0.7-0.2-1.2-0.4-1.5c-0.4-0.4-0.9-0.6-1.4-0.7v-0.2c0.7,0,1.4,0.1,2.1,0.1
			c0.2,0,0.3-0.1,0.3-0.3v-2.7h-4c-0.1,1-0.5,2-1.1,2.9C129.5,39.6,128.4,40.4,127.2,40.9z M131.5,35.2h4v-2.8h-3.9v0.9
			C131.6,33.9,131.6,34.5,131.5,35.2z M131.6,31.9h3.9v-2.7h-3.9V31.9z"/>
		<path class="st0" d="M150.5,40.9c0-0.4,0-0.8-0.2-1.2c-0.2-0.3-0.6-0.5-0.9-0.6v-0.2c0.5,0,0.9,0.1,1.2,0.1c0.1,0,0.3,0,0.4-0.1
			c0.2-0.2,0.4-1.1,0.5-2.6h-6.8c-0.6,1.7-1.8,3.2-3.4,4.1l-0.1-0.1c0.9-1.2,1.5-2.5,1.7-4c0.3-1.2,0.4-2.5,0.4-3.8v-1.2
			c-0.6,0.6-1.4,1.1-2.2,1.4l-0.1-0.1c0.4-0.5,0.8-1.1,1.1-1.6c0.2-0.5,0.4-1,0.5-1.5c0.1-0.5,0.2-1,0.2-1.5l2.1,0.8
			c1-0.2,2.1-0.4,3.2-0.7c0.9-0.2,1.7-0.5,2.6-0.8l1.8,1.6c-0.2,0.2-0.5,0.2-0.9,0c-0.5,0.1-1.1,0.1-1.8,0.2c0.9,0,1.7,0.2,2.5,0.7
			c0.4,0.3,0.7,0.7,0.8,1.2c0.1,0.4-0.1,0.8-0.4,1c-0.4,0.3-0.8,0.3-1.2,0c-0.2-0.5-0.5-1.1-0.8-1.5c-0.3-0.5-0.7-0.9-1.1-1.3
			l0.1-0.1c-0.7,0-1.5,0.1-2.5,0.1c0.5,0.1,0.9,0.4,1.2,0.8c0.2,0.3,0.2,0.6,0,0.9c-0.2,0.3-0.4,0.4-0.7,0.5c-0.4,0-0.7-0.1-0.9-0.4
			c0.1-0.6,0-1.2-0.2-1.7c-0.1,0-0.4,0-0.6,0H145c-0.1,0-0.2,0-0.2,0c-0.3,0.6-0.7,1.1-1.1,1.6l1.8,0.6h2.9l0.3-0.4
			c0,0,0.1-0.1,0.1-0.1c0.1-0.2,0.2-0.3,0.3-0.3c0.3,0.1,0.6,0.3,0.9,0.5c0.5,0.4,0.7,0.6,0.7,0.7c-0.1,0.1-0.3,0.2-0.5,0.2
			l-0.1,1.3l0.2-0.3c0,0,0-0.1,0.1-0.1c0.1-0.1,0.2-0.2,0.3-0.2c0.3,0.1,0.6,0.3,0.9,0.5c0.5,0.4,0.7,0.6,0.7,0.7
			c-0.1,0.1-0.3,0.2-0.5,0.2l-0.2,1.4l0.3-0.3l0.1-0.1c0.1-0.1,0.2-0.2,0.3-0.2c0.1,0,0.4,0.2,0.8,0.6s0.7,0.6,0.7,0.8
			c-0.1,0.1-0.3,0.2-0.5,0.3c0,0.9-0.2,1.7-0.4,2.6c-0.1,0.5-0.4,0.9-0.8,1.2C151.7,40.8,151.1,40.9,150.5,40.9z M143.8,40.4
			c-0.3-0.1-0.5-0.3-0.6-0.6c-0.1-0.2-0.1-0.5,0.1-0.7c0.1-0.2,0.3-0.4,0.5-0.5c0.3-0.2,0.5-0.4,0.7-0.6c0.2-0.3,0.3-0.6,0.3-1h0.2
			c0.3,0.7,0.4,1.4,0.3,2.1c0,0.5-0.3,0.9-0.7,1.2C144.4,40.5,144.1,40.5,143.8,40.4z M144.8,36h5.1l0.2-1.9h-4.9
			C145.1,34.7,144.9,35.3,144.8,36L144.8,36z M145.1,33.7h3.2l0.2-1.7h-3.3v0.6C145.2,32.9,145.2,33.3,145.1,33.7L145.1,33.7z
			 M145.8,39.7c0.2-0.8,0.2-1.7,0.1-2.6l0.2,0c0.5,0.3,0.9,0.8,1.2,1.3c0.2,0.4,0.2,0.8,0,1.1c-0.1,0.3-0.3,0.5-0.6,0.5
			C146.3,40.2,145.9,40,145.8,39.7L145.8,39.7z M147.8,39.4c0-0.8-0.2-1.6-0.6-2.3l0.1-0.1c0.6,0.2,1.1,0.5,1.6,1
			c0.3,0.3,0.4,0.7,0.3,1c0,0.3-0.2,0.5-0.5,0.6C148.4,39.7,148,39.6,147.8,39.4L147.8,39.4z M149.7,38.5c-0.1-0.3-0.2-0.6-0.4-0.9
			c-0.2-0.3-0.4-0.5-0.7-0.7l0.1-0.1c0.6-0.1,1.2,0.1,1.7,0.3c0.3,0.2,0.5,0.5,0.5,0.8c0,0.3-0.1,0.5-0.4,0.7
			C150.3,38.7,150,38.7,149.7,38.5L149.7,38.5z"/>
		<path class="st0" d="M155.5,30.4l-0.4-0.7c0.5,0.1,1.1,0.1,1.9,0.1h3.6c0-0.8,0-1.6-0.2-2.4c0.9,0.2,1.5,0.3,1.9,0.4
			c0.2,0,0.4,0.1,0.6,0.2c0,0,0,0.1-0.1,0.2l-0.2,0.2v1.5h2.4l1.1-1.4L168,30c0,0.2-0.2,0.2-0.4,0.2h-10
			C156.9,30.3,156.2,30.3,155.5,30.4z M166.5,40.9c-2-0.7-3.6-1.6-4.7-2.9c-1.7,1.5-3.8,2.4-6.5,2.8l-0.1-0.2c2.2-0.7,4.2-2.1,5.6-4
			c-0.5-0.8-0.9-1.6-1.1-2.5l-0.3,0.7c-0.2,0.4-0.3,0.7-0.4,0.9c0.1,0.1,0.1,0.3-0.1,0.4l-0.9-1c0.5-0.4,1-0.8,1.5-1.3l0.1-0.7
			l0.6,0.2l-0.4,0.6c0.4,0.8,0.9,1.5,1.5,2c0.1-0.1,0.1-0.2,0.2-0.3c0.3-0.4,0.5-0.9,0.6-1.4c0.2-0.4,0.3-0.9,0.3-1.3
			c0.7,0.3,1.5,0.6,2.2,1c0.2,0.1,0.2,0.2,0.1,0.3l-0.3,0.1c-0.5,1-1.1,1.9-1.8,2.7c1.4,0.8,3.2,1.4,5.5,1.8l0,0.2
			C167.3,39.2,166.7,39.9,166.5,40.9L166.5,40.9z M155.8,34.8l-0.1-0.2c0.7-0.6,1.3-1.2,1.8-1.9c0.6-0.8,1-1.6,1.2-2.5l1.2,0.7
			c0.3,0.1,0.7,0.3,0.9,0.6c0.1,0.1,0.1,0.2-0.1,0.2l-0.3,0.1c-0.6,0.7-1.2,1.3-2,1.8C157.7,34.1,156.7,34.5,155.8,34.8L155.8,34.8z
			 M165.4,34.3c-0.3-0.7-0.7-1.3-1.2-1.9c-0.5-0.6-1-1.1-1.6-1.6l0.1-0.1c1.3,0.1,2.4,0.4,3.1,0.9c0.6,0.3,1,0.8,1.1,1.5
			c0.1,0.4,0,0.9-0.3,1.2C166.3,34.5,165.8,34.5,165.4,34.3L165.4,34.3z"/>
		<path class="st0" d="M169.9,40.8c-0.1,0-0.2,0-0.3-0.1c-0.1,0-0.1-0.1-0.1-0.2c0.1-1.2,0.1-2.4,0.2-3.7v-3.6c0-1,0-1.9-0.2-2.9
			l1.8,0.8V29h-0.6c-0.4,0-0.7,0.1-1.1,0.2l-0.4-0.7c0.5,0.1,1.1,0.1,1.9,0.1h3.1l0.4-0.6c0,0,0.1-0.1,0.1-0.2
			c0.2-0.3,0.3-0.4,0.4-0.4s0.4,0.2,0.8,0.6c0.5,0.4,0.7,0.6,0.7,0.8c0,0.2-0.2,0.2-0.4,0.2h-2v2.1l0.3-0.4c0,0,0.1-0.1,0.1-0.1
			c0.2-0.2,0.3-0.3,0.3-0.3c0.3,0.1,0.6,0.3,0.8,0.5c0.4,0.4,0.7,0.6,0.7,0.7c-0.1,0.1-0.3,0.2-0.5,0.3v4.9c0,1.2,0.1,2.3,0.1,3.3
			c-0.2,0.2-0.3,0.3-0.6,0.4c-0.3,0.1-0.6,0.2-0.9,0.2c-0.2,0-0.3-0.1-0.3-0.3c0-0.1,0-0.2,0-0.3c0-0.1,0-0.2,0-0.2v-0.4h-3v0.3
			c0,0.1,0,0.2,0,0.2c0,0.1,0,0.1,0,0.2c0,0.1-0.2,0.3-0.4,0.4C170.5,40.7,170.2,40.8,169.9,40.8z M171.2,36.7h3v-1.5
			c-0.1,0-0.2,0-0.3,0h-0.3c-0.2,0-0.4,0-0.6-0.2c-0.1-0.2-0.2-0.4-0.1-0.7v-2.8h-0.4v0.5c0,1.7-0.4,2.9-1.2,3.6l-0.1-0.1
			L171.2,36.7z M171.2,35.3c0.2-0.5,0.3-1,0.4-1.5c0-0.3,0-0.8,0-1.5v-0.7h-0.4V35.3z M171.2,39.1h3v-2h-3V39.1z M172.5,31.2h0.4V29
			h-0.4V31.2z M173.9,34.1h0.3v-2.5h-0.4v2.4C173.8,34,173.9,34.1,173.9,34.1L173.9,34.1z M178.4,40.4c-0.7,0-1.2-0.1-1.4-0.3
			s-0.3-0.6-0.3-1.3v-4.3c0-1,0-1.9-0.2-2.9l2.1,0.8h1V29h-1c-0.6,0-1.2,0.1-1.8,0.2l-0.4-0.7c0.5,0.1,1.1,0.1,1.9,0.1h1.1l0.4-0.5
			c0,0,0.1-0.1,0.1-0.1c0.2-0.2,0.3-0.4,0.4-0.4c0.3,0.1,0.6,0.3,0.9,0.6c0.5,0.4,0.8,0.6,0.8,0.8c-0.2,0.2-0.4,0.3-0.6,0.3v1.5
			c0,1.2,0.1,2.2,0.1,2.8c-0.1,0.1-0.3,0.2-0.6,0.3c-0.3,0.1-0.6,0.2-0.9,0.2c-0.2,0-0.4-0.1-0.4-0.3c0-0.1,0-0.2,0-0.4
			c0-0.1,0-0.2,0-0.3v-0.5h-1.2v5.5c0,0.1,0,0.2,0.1,0.2c0.1,0.1,0.2,0.1,0.3,0.1h0.9c0.1,0,0.3,0,0.5,0h0.3c0.1,0,0.3-0.1,0.4-0.2
			c0.3-0.6,0.5-1.2,0.6-1.9h0.1l0,2c0.2,0.1,0.3,0.2,0.5,0.3c0.1,0.1,0.1,0.3,0.1,0.4c0,0.4-0.2,0.7-0.6,0.9
			c-0.7,0.2-1.4,0.4-2.1,0.3L178.4,40.4z"/>
		<path class="st0" d="M193.5,40.8c0-0.5-0.1-0.9-0.3-1.4c-0.3-0.3-0.7-0.6-1.1-0.6v-0.2c0.5,0,1,0,1.5,0.1c0.2,0,0.3-0.1,0.3-0.3
			v-3.1h-1.6c-0.1,1-0.4,2.1-0.9,3c-0.7,1.1-1.6,1.9-2.7,2.5l-0.1-0.1c1-1.2,1.6-2.6,1.8-4.2h-4.8c-0.7,0-1.4,0.1-2.1,0.2l-0.4-0.7
			c0.3,0.1,0.6,0.1,0.8,0.1h0.4v-5.9h-0.3c-0.2,0-0.3,0.1-0.4,0.2l-0.3-0.7c0.2,0.1,0.5,0.1,0.7,0.1h0.3c0-0.8,0-1.5-0.1-2.3
			c0.7,0.1,1.4,0.3,2,0.5c0.2,0.1,0.2,0.2,0.1,0.3l-0.2,0.1v1.4h1.3c0-0.8,0-1.5-0.1-2.3c0.7,0.1,1.4,0.3,2.1,0.5
			c0.2,0.1,0.2,0.2,0.1,0.3l-0.2,0.1v1.1l0.5-0.8c0.3,0.3,0.6,0.7,0.9,1c0-0.7,0-1.3-0.1-2l2.2,0.8h1l0.4-0.5
			c0.1-0.1,0.1-0.1,0.2-0.2c0.2-0.2,0.3-0.3,0.3-0.3c0.3,0.1,0.6,0.4,0.9,0.6c0.5,0.4,0.8,0.7,0.8,0.8c-0.1,0.2-0.3,0.3-0.5,0.3v9.3
			c0,0.7-0.1,1.2-0.4,1.5C195,40.5,194.4,40.8,193.5,40.8z M183.4,40.9l-0.2-0.1c0.3-0.4,0.6-0.9,0.9-1.4c0.2-0.5,0.4-1,0.6-1.5
			c0.2-0.5,0.2-1,0.3-1.5l1.3,0.6c0.3,0.1,0.7,0.2,1,0.4c0.1,0.1,0.1,0.2-0.1,0.2l-0.3,0.1C186,39.2,184.8,40.2,183.4,40.9
			L183.4,40.9z M186.2,31.8h1.3v-1.5h-1.3V31.8z M186.2,33.9h1.3v-1.7h-1.3V33.9z M186.2,36.1h1.3v-1.9h-1.3V36.1z M188.1,39.2
			c-0.1-0.9-0.4-1.7-0.9-2.4l0.1-0.1c0.7,0.1,1.4,0.4,2,0.8c0.3,0.3,0.5,0.7,0.5,1.1c0,0.3-0.3,0.6-0.6,0.8
			C188.8,39.6,188.4,39.5,188.1,39.2L188.1,39.2z M189.3,35.8l0.5-0.9c0.3,0.3,0.5,0.5,0.7,0.8c0.1-0.7,0.1-1.6,0.1-2.6v-2.9
			c-0.1,0-0.1,0-0.2,0h-1.2L189.3,35.8z M192.4,34.9h1.5v-2.8h-1.5v1C192.4,33.8,192.4,34.4,192.4,34.9L192.4,34.9z M192.4,31.7h1.5
			V29h-1.5L192.4,31.7z"/>
		<path class="st0" d="M202.9,36.5l-0.2-0.5c0.8-0.4,1.4-1.1,1.6-2c-0.4-0.1-0.8-0.3-1.1-0.6c-0.3-0.2-0.5-0.6-0.5-1
			c0-0.3,0.1-0.6,0.4-0.9c0.2-0.2,0.6-0.4,0.9-0.4c0.4,0,0.7,0.1,1,0.4c0.3,0.3,0.4,0.7,0.4,1.2c0,0.7-0.2,1.4-0.5,2
			C204.3,35.6,203.7,36.1,202.9,36.5z"/>
		<path class="st0" d="M211.6,40.9L211.6,40.9c0.5-1.2,0.9-2.5,1.1-3.7c0.1-1.3,0.2-2.5,0.2-3.8v-1.9c0-0.7,0-1.3-0.1-2l2.4,0.8h3.1
			c0-1.1-0.1-2-0.1-2.9c0.7,0,1.4,0.1,2.1,0.2c0.2,0.1,0.2,0.1,0.1,0.2l-0.2,0.2c0,0.9,0,1.6,0,2.3h1.5l0.5-0.6
			c-0.1,0-0.2-0.1-0.3-0.1c-0.1-0.3-0.3-0.7-0.5-1c-0.2-0.3-0.4-0.5-0.7-0.8l0.1-0.1c0.6-0.1,1.2-0.1,1.8,0.1
			c0.3,0.1,0.6,0.4,0.7,0.7c0.1,0.3,0,0.5-0.1,0.8l0.3,0.2c0.5,0.4,0.9,0.7,1.1,0.9c0,0.2-0.2,0.2-0.4,0.2h-3.9
			c0.1,1.3,0.3,2.5,0.6,3.7c0.2-0.5,0.3-0.9,0.4-1.4c0.1-0.4,0.2-0.9,0.2-1.3c0.8,0.2,1.5,0.5,2.3,0.9c0.2,0.1,0.2,0.2,0.1,0.3
			l-0.3,0.1c-0.5,1.3-1.1,2.4-1.8,3.5c0.3,0.5,0.7,0.9,1.1,1.3C222.9,38,223,38,223,38c0.1,0,0.1-0.1,0.2-0.2c0.4-0.6,0.7-1.2,1-1.8
			l0.1,0l-0.4,2.5c0.5,1,0.6,1.6,0.3,1.8c-0.3,0.3-0.8,0.4-1.4,0.2c-0.5-0.2-0.9-0.5-1.3-0.8c-0.5-0.5-0.9-1.1-1.3-1.6
			c-1.2,1.2-2.7,2.1-4.2,2.6l-0.1-0.2c1.5-1,2.7-2.2,3.7-3.8c-0.7-1.6-1.2-3.6-1.3-6h-3.5V33h1.2l0.4-0.5c0.1,0,0.1-0.1,0.1-0.2
			c0.2-0.2,0.3-0.3,0.4-0.3c0.3,0.1,0.6,0.3,0.8,0.6c0.5,0.4,0.7,0.6,0.7,0.8c-0.1,0.1-0.3,0.2-0.5,0.3c0,1.1-0.1,2.2-0.2,3.3
			c-0.1,0.5-0.3,1-0.7,1.3c-0.5,0.3-1,0.5-1.6,0.5c0-0.4,0-0.9-0.2-1.2c-0.2-0.3-0.5-0.5-0.8-0.5v-0.1C214.1,38.6,213,40,211.6,40.9
			z M215.4,36.9c0.1,0,0.3,0,0.4-0.1c0.2-0.2,0.3-1.3,0.4-3.4h-1.3v0c0,1.1-0.1,2.3-0.3,3.4C214.8,36.8,215.1,36.9,215.4,36.9z"/>
		<path class="st0" d="M227.3,40.9c-0.1,0-0.2,0-0.3-0.1c-0.1,0-0.1-0.1-0.1-0.2c0.1-1.2,0.1-2.4,0.2-3.7v-3.8
			c0,0.3-0.2,0.5-0.4,0.7c-0.2,0.1-0.4,0.2-0.6,0.1c-0.2,0-0.4-0.2-0.5-0.4c-0.1-0.2-0.1-0.4,0-0.6c0.1-0.2,0.3-0.3,0.4-0.4
			c0.2-0.1,0.3-0.3,0.4-0.5c0.1-0.2,0.1-0.4,0.1-0.7h0.2c0.1,0.1,0.1,0.3,0.2,0.4v-1.3c0-1,0-1.9-0.2-2.9l1.6,0.7h1.4l0.3-0.4
			c0,0,0.1-0.1,0.1-0.1c0.1-0.2,0.2-0.3,0.3-0.3c0.3,0.1,0.6,0.3,0.8,0.5c0.5,0.3,0.7,0.5,0.7,0.6c-0.2,0.2-0.4,0.3-0.6,0.3v2.6
			l0.2-0.3l0.5,0.5v-0.5c0-1,0-1.9-0.2-2.9l1.7,0.7h0.4c0-0.5,0-1-0.1-1.5c0.4,0.1,0.8,0.3,1.1,0.5c0.1,0.1,0.1,0.2,0,0.2l-0.1,0.1
			V29h0.5c0-0.5,0-1-0.1-1.5c0.4,0.1,0.8,0.3,1.1,0.5c0.1,0.1,0.1,0.2,0,0.2l-0.1,0.1V29h0.3l0.3-0.4c0,0,0.1-0.1,0.1-0.1
			c0.2-0.2,0.3-0.3,0.3-0.3c0.3,0.1,0.5,0.3,0.8,0.5c0.4,0.3,0.6,0.5,0.6,0.6c-0.1,0.1-0.3,0.2-0.5,0.3v3.2c0,0.1-0.2,0.2-0.5,0.3
			c0.5,0.4,0.9,0.8,1.1,1c0,0.2-0.2,0.2-0.4,0.2h-6.6l-0.1-0.3c-0.1,0.1-0.3,0.2-0.4,0.2v4.8c0,0.7-0.1,1.1-0.3,1.4
			c-0.3,0.3-0.8,0.5-1.5,0.6c0-0.4,0-0.9-0.1-1.3c-0.1-0.3-0.2-0.5-0.5-0.5v-0.2c0.2,0,0.3,0,0.5,0s0.2-0.1,0.2-0.2v-1.1h-0.8v0.9
			c0,0.1,0,0.3,0,0.6c0,0.5,0,0.9,0.1,1.2c0,0.1-0.2,0.3-0.5,0.4C227.9,40.8,227.6,40.9,227.3,40.9z M228.8,33.4h0.6l0.8-0.9
			l0.6,0.5l0.1-0.6H227c0,0,0,0.1,0,0.1c0,0.1,0,0.1,0,0.2L228.8,33.4z M228.2,31.9h0.4c0-0.8,0-1.7-0.2-2.5l1.2,0.5h0.2v-1.2h-1.7
			V31.9z M228.7,35.3h0.8v-1.5h-0.8V35.3z M228.7,37.2h0.8v-1.5h-0.8V37.2z M229.5,31.9h0.4v-1.6h-0.4V31.9z M231.8,33.8h4.6
			l0.5-0.6h-0.2v-0.4h-3.1v0.1c0,0.1-0.1,0.2-0.4,0.3c-0.3,0.1-0.6,0.2-0.9,0.2H232v-0.6c-0.2,0.2-0.5,0.4-0.8,0.6L231.8,33.8z
			 M231.6,40.7l-0.4-0.7c0.5,0.1,1,0.1,1.6,0.1h0.8c-0.1-0.1-0.2-0.1-0.3-0.2c0-0.6-0.1-1.2-0.3-1.7c-0.2,0-0.3,0-0.5,0h-0.2v-1.9
			c0-0.7,0-1.3-0.1-2l1.9,0.8h1.9l0.4-0.4c0,0,0.1-0.1,0.1-0.1c0.2-0.2,0.3-0.3,0.3-0.3c0.3,0.1,0.6,0.3,0.9,0.6
			c0.5,0.4,0.7,0.6,0.7,0.7c-0.1,0.2-0.3,0.3-0.5,0.3v2c0,0.1-0.2,0.1-0.5,0.2c-0.3,0.1-0.6,0.1-0.9,0.2c0.4,0.1,0.7,0.2,1,0.4
			c0.1,0.1,0.1,0.2-0.1,0.2l-0.3,0.1c-0.5,0.4-1,0.9-1.6,1.3h1l0.4-0.5l0.1-0.1c0.2-0.3,0.3-0.4,0.4-0.4c0.3,0.1,0.6,0.3,0.8,0.5
			c0.4,0.4,0.6,0.6,0.6,0.7c0,0.1-0.2,0.2-0.4,0.2h-4.8C233,40.5,232.3,40.6,231.6,40.7L231.6,40.7z M233.5,30.7h0.4v-1.3h-0.4V30.7
			z M233.5,32.4h0.4v-1.3h-0.4V32.4z M234.3,40.1h0.9c0.2-0.6,0.3-1.4,0.4-2.3l0.5,0.2v-0.5H234v0.3c0,0.1-0.2,0.2-0.5,0.3
			c0.4,0.1,0.8,0.4,1,0.7c0.2,0.2,0.2,0.5,0.2,0.8C234.7,39.8,234.5,40,234.3,40.1L234.3,40.1z M234,37.1h2.1v-1.6H234V37.1z
			 M234.8,30.7h0.5v-1.3h-0.5V30.7z M234.8,32.4h0.5v-1.3h-0.5V32.4z M236.2,30.7h0.4v-1.3h-0.4V30.7z M236.2,32.4h0.4v-1.3h-0.4
			V32.4z"/>
		<path class="st0" d="M242.9,40.9c-0.3,0-0.4-0.1-0.4-0.3c0.1-0.9,0.1-1.9,0.1-3V36c-0.2,0.1-0.4,0.1-0.7,0.1h-0.3v-3.8
			c-0.5,0.2-1.1,0.4-1.7,0.6l-0.1-0.2c0.7-0.4,1.4-0.9,2.1-1.5c0.6-0.5,1.2-1.1,1.8-1.8c0.6-0.6,1-1.4,1.1-2.2
			c0.9,0.3,1.6,0.5,2,0.6c0.2,0.1,0.5,0.2,0.6,0.3c0,0.1,0,0.1-0.2,0.2l-0.4,0.1c0.6,0.5,1.5,0.9,2.6,1.3c1,0.3,2,0.4,3,0.5v0.2
			c-0.4,0.2-0.7,0.4-0.9,0.8c-0.2,0.4-0.4,0.8-0.4,1.2c-0.2-0.1-0.4-0.2-0.6-0.2l0.4,0.3c-0.1,0.1-0.2,0.2-0.3,0.2v0.9
			c0,0.1,0,0.3,0,0.5c0,0.5,0,0.9,0.1,1.1c0,0.1-0.2,0.2-0.6,0.3c-0.3,0.1-0.6,0.2-0.9,0.2h-0.3v-0.4h-5.7v0c0,0.1-0.1,0.2-0.2,0.3
			l1.5,0.6h3.2l0.4-0.4c0,0,0.1-0.1,0.1-0.1c0.2-0.2,0.3-0.3,0.4-0.3c0.3,0.1,0.6,0.3,0.8,0.5c0.5,0.4,0.7,0.6,0.7,0.7
			c-0.1,0.1-0.2,0.2-0.3,0.2v1.1c0,0.9,0,1.7,0.1,2.2c-0.1,0.1-0.3,0.3-0.6,0.4c-0.3,0.2-0.7,0.2-1.1,0.3c-0.3,0-0.4-0.1-0.4-0.3
			c0,0,0-0.1,0-0.1c0,0,0-0.1,0-0.1V40h-3.4v0.2c0,0.1-0.2,0.2-0.5,0.4C243.7,40.8,243.3,40.9,242.9,40.9z M243.6,32.2h5.5l0.6-0.6
			c-1.2-0.7-2.1-1.7-2.7-2.9c-0.5,0.6-1.1,1.2-1.8,1.7c-0.8,0.6-1.6,1.1-2.4,1.5L243.6,32.2z M243.4,35h2v-2.4h-2V35z M243.8,34.5
			c0.1-0.6,0-1.2-0.3-1.8l0.1-0.1c0.5,0.1,1,0.4,1.3,0.8c0.2,0.2,0.3,0.5,0.2,0.8c-0.1,0.2-0.3,0.4-0.5,0.5
			C244.3,34.9,244,34.8,243.8,34.5L243.8,34.5z M244.6,31.6l-0.4-0.7c0.4,0.1,0.9,0.1,1.5,0.1h0.7l0.3-0.5c0,0,0.1-0.1,0.1-0.2
			c0.2-0.2,0.3-0.3,0.3-0.3s0.3,0.2,0.7,0.5s0.6,0.6,0.6,0.7s-0.1,0.2-0.4,0.2h-2.5C245.3,31.4,244.9,31.5,244.6,31.6L244.6,31.6z
			 M244.6,38h3.4v-1.3h-3.4L244.6,38z M244.6,39.7h3.4v-1.3h-3.4L244.6,39.7z M247,35h0.2c0.2-0.8,0.3-1.6,0.3-2.4l1.6,0.6v-0.6
			h-2.1L247,35z M247.7,35h1.5v-1.4h-0.1C248.6,34.1,248.2,34.5,247.7,35L247.7,35z"/>
		<path class="st0" d="M256.1,36c-0.3,0-0.5-0.1-0.5-0.3c0.1-0.8,0.1-1.8,0.1-2.8v-1.5c-0.6,0.3-1.2,0.6-1.8,0.8l-0.1-0.1
			c0.6-0.6,1.2-1.3,1.6-2c0.5-0.8,1-1.7,1.3-2.7c0.7,0.3,1.4,0.7,2.1,1.1c0.2,0.1,0.2,0.2,0,0.3l-0.3,0.1c-0.2,0.3-0.5,0.6-0.7,0.9
			l0.1,0h2c0.2-0.8,0.3-1.5,0.3-2.3c0.8,0.3,1.6,0.6,2.3,0.9c0.2,0.1,0.3,0.2,0.1,0.3l-0.3,0.1c-0.7,0.4-1.4,0.7-2.1,1.1h3.1
			l0.4-0.6l0.2-0.2c0.2-0.3,0.3-0.4,0.4-0.4s0.4,0.2,0.9,0.6c0.5,0.4,0.7,0.7,0.7,0.8c0,0.2-0.2,0.2-0.4,0.2h-3.8v1.2h1.6l0.4-0.6
			c0,0,0.1-0.1,0.1-0.2c0.2-0.3,0.3-0.4,0.4-0.4c0.1,0,0.4,0.2,0.8,0.6c0.5,0.4,0.7,0.6,0.7,0.8s-0.2,0.2-0.4,0.2h-3.6v1.2h1.6
			l0.4-0.6l0.1-0.2c0.2-0.3,0.3-0.4,0.4-0.4c0.1,0,0.4,0.2,0.8,0.6c0.5,0.4,0.7,0.6,0.7,0.7c0,0.2-0.2,0.2-0.4,0.2h-3.6v1.3h1.7
			l0.5-0.6c0,0,0.1-0.1,0.2-0.2c0.2-0.3,0.3-0.4,0.4-0.4s0.4,0.2,0.9,0.6c0.5,0.4,0.8,0.7,0.8,0.8c0,0.2-0.2,0.2-0.4,0.2h-8v0.4
			c0,0.1-0.1,0.2-0.4,0.3C256.9,35.9,256.5,36,256.1,36z M259.7,40.9c-0.3,0-0.5-0.1-0.5-0.3c0-0.4,0.1-1,0.1-1.6v-0.9
			c-1.3,1-3.1,1.8-5.4,2.3l-0.1-0.1c0.9-0.4,1.7-0.9,2.4-1.6c0.6-0.6,1.2-1.2,1.7-1.9h-1.5c-0.7,0-1.4,0.1-2.1,0.2l-0.4-0.7
			c0.5,0.1,1.1,0.1,1.9,0.1h3.5c0-0.4,0-0.9-0.1-1.3c0.8,0.2,1.4,0.3,1.8,0.4c0.2,0,0.4,0.1,0.6,0.2c0,0,0,0.1-0.1,0.2l-0.2,0.1v0.4
			h2.9l0.4-0.6c0-0.1,0.1-0.1,0.1-0.2c0.2-0.3,0.3-0.4,0.4-0.4c0.1,0,0.4,0.2,0.9,0.6c0.5,0.4,0.7,0.7,0.7,0.8
			c0,0.1-0.2,0.2-0.4,0.2h-4.7c0.7,0.5,1.5,0.8,2.4,1c0.9,0.3,1.9,0.4,2.8,0.5l0,0.2c-0.4,0.1-0.7,0.3-0.9,0.6
			c-0.3,0.4-0.4,0.8-0.5,1.2c-0.9-0.3-1.8-0.7-2.5-1.4c-0.7-0.6-1.2-1.3-1.7-2.1V38c0,1,0,1.7,0.1,2.3c0,0.1-0.3,0.2-0.6,0.4
			C260.5,40.8,260.1,40.8,259.7,40.9z M257.6,31.3h2v-1.2h-2V31.3z M257.6,32.9h2v-1.2h-2V32.9z M257.6,34.6h2v-1.3h-2V34.6z"/>
		<path class="st0" d="M269.6,40.9c-0.1,0-0.2,0-0.3-0.1c-0.1,0-0.1-0.1-0.1-0.2c0.1-1.2,0.1-2.4,0.2-3.7v-3.8
			c0,0.3-0.1,0.5-0.4,0.7c-0.2,0.1-0.4,0.2-0.6,0.1c-0.2,0-0.4-0.2-0.5-0.4c-0.1-0.2-0.1-0.4,0-0.6c0.1-0.2,0.3-0.3,0.4-0.4
			c0.2-0.1,0.3-0.3,0.4-0.5c0.1-0.2,0.1-0.4,0.1-0.7h0.2c0.1,0.1,0.1,0.3,0.2,0.4v-1.3c0-1,0-1.9-0.2-2.9l1.6,0.7h1.4l0.3-0.4
			l0.1-0.1c0.1-0.2,0.2-0.3,0.3-0.3c0.3,0.1,0.6,0.3,0.8,0.5c0.4,0.3,0.7,0.5,0.7,0.6c-0.2,0.2-0.4,0.3-0.6,0.3v2.6l0.2-0.3l0.5,0.5
			v-0.5c0-1,0-1.9-0.2-2.9l1.7,0.7h0.4c0-0.5,0-1-0.1-1.5c0.4,0.1,0.8,0.3,1.1,0.5c0.1,0.1,0.1,0.2,0,0.2l-0.1,0.1V29h0.5
			c0-0.5,0-1-0.1-1.5c0.4,0.1,0.8,0.3,1.1,0.5c0.1,0.1,0.1,0.2,0,0.2l-0.1,0.1V29h0.3l0.3-0.4c0,0,0.1-0.1,0.1-0.1
			c0.2-0.2,0.3-0.3,0.3-0.3c0.3,0.1,0.5,0.3,0.8,0.5c0.4,0.3,0.6,0.5,0.6,0.6c-0.1,0.1-0.3,0.2-0.5,0.3v3.2c0,0.1-0.2,0.2-0.5,0.3
			c0.5,0.4,0.9,0.8,1.1,1c0,0.2-0.2,0.2-0.4,0.2h-6.6l-0.1-0.3c-0.1,0.1-0.3,0.2-0.4,0.2v4.8c0,0.7-0.1,1.1-0.3,1.4
			c-0.3,0.3-0.8,0.5-1.5,0.6c0-0.4,0-0.9-0.1-1.3c-0.1-0.3-0.3-0.5-0.5-0.5v-0.2c0.2,0,0.3,0,0.5,0s0.2-0.1,0.2-0.2v-1.1h-0.8v0.9
			c0,0.1,0,0.3,0,0.6c0,0.5,0,0.9,0.1,1.2c0,0.1-0.2,0.3-0.5,0.4C270.3,40.8,270,40.9,269.6,40.9z M271.1,33.4h0.6l0.8-0.9l0.6,0.5
			l0.1-0.6h-3.9c0,0,0,0.1,0,0.1c0,0.1,0,0.1,0,0.2L271.1,33.4z M270.5,31.9h0.4c0-0.8,0-1.7-0.2-2.5l1.2,0.5h0.2v-1.2h-1.7V31.9z
			 M271.1,35.3h0.8v-1.5h-0.8V35.3z M271.1,37.2h0.8v-1.5h-0.8V37.2z M271.8,31.9h0.4v-1.6h-0.4V31.9z M274.1,33.8h4.6l0.4-0.6H279
			v-0.4h-3.1v0.1c0,0.1-0.1,0.2-0.4,0.3c-0.3,0.1-0.6,0.2-0.9,0.2h-0.2v-0.6c-0.2,0.2-0.5,0.4-0.8,0.6L274.1,33.8z M274,40.7
			l-0.4-0.7c0.4,0.1,1,0.1,1.6,0.1h0.8c-0.1-0.1-0.2-0.1-0.3-0.2c0-0.6-0.1-1.2-0.3-1.7c-0.2,0-0.3,0-0.5,0h-0.2v-1.9
			c0-0.7,0-1.3-0.1-2l1.9,0.8h1.9l0.4-0.4c0,0,0.1-0.1,0.1-0.1c0.2-0.2,0.3-0.3,0.3-0.3c0.3,0.1,0.6,0.3,0.9,0.6
			c0.5,0.4,0.7,0.6,0.7,0.7c-0.1,0.2-0.3,0.3-0.5,0.3v2c0,0.1-0.2,0.1-0.5,0.2c-0.3,0.1-0.6,0.1-0.9,0.2c0.4,0.1,0.7,0.2,1,0.4
			c0.1,0.1,0.1,0.2-0.1,0.2l-0.3,0.1c-0.5,0.4-1,0.9-1.6,1.3h1l0.4-0.5c0,0,0.1-0.1,0.1-0.1c0.2-0.3,0.3-0.4,0.4-0.4
			c0.3,0.1,0.6,0.3,0.8,0.5c0.4,0.4,0.6,0.6,0.6,0.7c0,0.2-0.2,0.2-0.4,0.2h-4.7C275.4,40.5,274.7,40.6,274,40.7L274,40.7z
			 M275.8,30.7h0.4v-1.3h-0.4V30.7z M275.8,32.4h0.4v-1.3h-0.4V32.4z M276.6,40.1h0.9c0.2-0.6,0.3-1.4,0.4-2.3l0.5,0.2v-0.5h-2.1
			v0.3c0,0.1-0.2,0.2-0.5,0.3c0.4,0.1,0.8,0.4,1,0.7c0.2,0.2,0.2,0.5,0.2,0.8C277,39.8,276.9,40,276.6,40.1L276.6,40.1z M276.4,37.1
			h2.1v-1.6h-2.1V37.1z M277.2,30.7h0.5v-1.3h-0.5V30.7z M277.2,32.4h0.5v-1.3h-0.5V32.4z M278.6,30.7h0.4v-1.3h-0.4V30.7z
			 M278.6,32.4h0.4v-1.3h-0.4V32.4z"/>
		<path class="st0" d="M2.6,50.4l-0.4-0.7c0.5,0.1,1.1,0.1,1.9,0.1h2.2c-0.1-0.1-0.3-0.1-0.4-0.2c-0.1-0.9-0.5-1.8-1.1-2.5l0.1-0.1
			c1.1,0,1.8,0.3,2.4,0.7C7.6,48,7.8,48.5,7.8,49c0,0.4-0.3,0.7-0.7,0.9h2.4c0-0.1,0-0.1,0-0.1c0.3-0.9,0.5-1.9,0.6-2.8
			c0.8,0.2,1.7,0.4,2.5,0.7c0.2,0.1,0.3,0.2,0.1,0.3l-0.3,0.1c-0.8,0.7-1.6,1.3-2.5,1.9h2.4l1-1.4c0.2,0.2,0.5,0.4,0.7,0.6
			c0.5,0.4,0.9,0.8,1.2,1c0,0.1-0.2,0.2-0.4,0.2H4.7C4,50.2,3.3,50.3,2.6,50.4z M6.4,60.4c0-0.4,0-0.9-0.2-1.3
			c-0.1-0.3-0.4-0.5-0.8-0.6v-0.2l0.9,0.1c0.1,0,0.2-0.1,0.2-0.2v-1.4c-0.1,0.1-0.3,0.2-0.5,0.2c-0.2,0-0.4-0.1-0.6-0.3
			c0-0.4-0.1-0.8-0.3-1.2v1.4c0,1.2,0.1,2.1,0.1,2.8C5.2,59.8,5,60,4.7,60.1c-0.3,0.2-0.7,0.3-1.1,0.3c-0.1,0-0.2,0-0.3-0.1
			c-0.1,0-0.1-0.1-0.1-0.2c0.1-1.2,0.1-2.4,0.2-3.7v-2.7c0-1,0-1.9-0.2-2.9l2.1,0.9h1.2l0.4-0.5c0,0,0.1-0.1,0.1-0.1
			c0.2-0.2,0.3-0.4,0.4-0.4c0.3,0.1,0.6,0.4,0.9,0.6C8.7,51.8,9,52,9,52.1c-0.1,0.2-0.3,0.3-0.5,0.3v6c0,0.7-0.1,1.1-0.3,1.4
			C7.8,60.1,7.2,60.3,6.4,60.4z M6.6,53.3v-1.2H5.2v0.8C5.7,52.9,6.2,53,6.6,53.3L6.6,53.3z M6.6,55.6v-1.2
			c-0.1,0.1-0.3,0.2-0.5,0.2c-0.2,0-0.4-0.1-0.6-0.2c0-0.4-0.1-0.8-0.3-1.1v1.9C5.7,55.1,6.2,55.3,6.6,55.6L6.6,55.6z M9.6,57.6
			c-0.3,0-0.4-0.1-0.4-0.3c0-0.4,0.1-1,0.1-1.8v-1.4c0-1,0-1.9-0.2-2.9c0.8,0.2,1.4,0.3,1.7,0.4c0.2,0,0.4,0.1,0.6,0.2
			c0,0,0,0.1-0.1,0.2l-0.3,0.2v1.6c0,1.2,0.1,2.3,0.1,3.3c-0.2,0.2-0.3,0.3-0.6,0.3C10.3,57.5,10,57.6,9.6,57.6z M11.6,60.4
			c0-0.5-0.1-0.9-0.4-1.3c-0.3-0.3-0.8-0.6-1.3-0.6v-0.2l1.8,0.1c0.2,0,0.3-0.1,0.3-0.2v-4.5c0-1,0-1.9-0.2-2.9
			c0.8,0.2,1.4,0.3,1.8,0.4c0.2,0,0.4,0.1,0.6,0.2c0,0,0,0.1-0.1,0.2l-0.2,0.2v6.5c0,0.7-0.1,1.2-0.4,1.5
			C13.2,60.1,12.6,60.3,11.6,60.4L11.6,60.4z"/>
		<path class="st0" d="M18.4,60.4c-0.3,0-0.5-0.1-0.5-0.3c0.1-1.2,0.1-2.4,0.2-3.7v-2.1c-0.5,0.4-1.1,0.8-1.6,1.1l-0.1-0.1
			c0.6-0.8,1.2-1.7,1.7-2.7c0.4-0.9,0.8-1.8,1.1-2.7c0.7,0.3,1.4,0.7,2,1.1c0.2,0.1,0.2,0.2,0.1,0.3l-0.3,0.1
			c-0.4,0.6-0.8,1.1-1.3,1.5c0.2,0.1,0.5,0.3,0.6,0.5c0.1,0.1,0,0.2-0.1,0.2l-0.2,0.1v2.6c0,1.2,0.1,2.3,0.1,3.3
			c-0.2,0.2-0.4,0.3-0.6,0.4C19.1,60.3,18.7,60.4,18.4,60.4z M16.5,51.2L16.4,51c0.5-0.5,0.9-1,1.2-1.6c0.5-0.8,0.9-1.7,1.1-2.6
			l1.2,0.8c0.3,0.1,0.7,0.3,1,0.6c0.1,0.1,0.1,0.2-0.1,0.2l-0.3,0.1c-0.5,0.6-1.1,1.1-1.8,1.5C18.1,50.4,17.3,50.8,16.5,51.2z
			 M20.7,60.2l-0.4-0.7c0.5,0.1,1.1,0.1,1.9,0.1h1.3v-4.5h-0.8c-0.5,0-1,0.1-1.5,0.2l-0.4-0.7c0.5,0.1,1.1,0.1,1.8,0.1h0.8v-3.9
			h-0.9c-0.6,0-1.1,0.1-1.7,0.2l-0.4-0.7c0.5,0.1,1.1,0.1,1.9,0.1h4.2l0.4-0.6c0.1-0.1,0.1-0.1,0.1-0.2c0.2-0.3,0.3-0.4,0.4-0.4
			s0.4,0.2,0.9,0.7c0.5,0.4,0.7,0.7,0.7,0.8c0,0.2-0.2,0.2-0.4,0.2h-3.3v3.9h1l0.4-0.6c0-0.1,0.1-0.1,0.2-0.2
			c0.2-0.3,0.3-0.4,0.4-0.4s0.4,0.2,0.8,0.6c0.5,0.4,0.7,0.7,0.7,0.8c0,0.2-0.2,0.2-0.4,0.2h-3.1v4.5h1.4l0.4-0.7
			c0,0,0.1-0.1,0.1-0.2c0.2-0.3,0.3-0.5,0.4-0.5c0.1,0,0.4,0.2,0.9,0.7c0.5,0.4,0.7,0.7,0.7,0.8c0,0.2-0.2,0.2-0.4,0.2h-6.2
			C22.1,60,21.4,60.1,20.7,60.2z M24.1,50c-0.2-0.5-0.4-1-0.8-1.5c-0.3-0.5-0.8-0.8-1.2-1.1l0.1-0.1c1.2-0.1,2.1,0,2.7,0.4
			c0.5,0.2,0.8,0.7,0.9,1.2c0.1,0.6-0.3,1.2-0.9,1.3C24.6,50.2,24.3,50.1,24.1,50L24.1,50z"/>
		<path class="st0" d="M35.4,60.4c-0.1-0.7-0.2-1.2-0.4-1.5c-0.4-0.4-0.8-0.6-1.4-0.7V58c0.6,0,1.3,0.1,2,0.1c0.2,0,0.3-0.1,0.3-0.3
			v-2.6c-1,1.1-2.1,2.2-3.3,3.2c0,0.2-0.1,0.4-0.3,0.5l-1.4-2.1c1.4-0.5,3.1-1.2,5.1-2.1v-4.2h-2.8c-0.7,0-1.4,0.1-2.1,0.2l-0.3-0.7
			c0.5,0.1,1.1,0.1,1.9,0.1H36v-0.2c0-1,0-1.9-0.2-2.9c0.9,0.2,1.5,0.3,1.9,0.4c0.2,0,0.4,0.1,0.6,0.2c0,0,0,0.1-0.1,0.2L38,47.9
			v2.1h2.6l0.5-0.7l0.2-0.2c0.2-0.3,0.4-0.5,0.4-0.5s0.4,0.2,1,0.7c0.6,0.5,0.8,0.7,0.8,0.8s-0.2,0.2-0.4,0.2h-5v1.1
			c0.2,0.9,0.6,1.7,1.1,2.4c0.6-1,1.1-2,1.5-3l2.2,1.5c-0.1,0.2-0.3,0.2-0.5,0.2c-0.9,0.6-1.9,1.2-2.9,1.7c0.9,1.2,2.3,2.1,4.1,2.7
			l0,0.1c-0.4,0.1-0.8,0.4-1,0.7c-0.3,0.4-0.5,0.8-0.6,1.3c-1-0.7-1.8-1.6-2.4-2.6c-0.7-1.3-1.2-2.7-1.4-4.2v5.6
			c0,0.8-0.1,1.3-0.4,1.6C37.2,60,36.5,60.3,35.4,60.4z M33.3,54.2c-0.1-0.6-0.2-1.1-0.4-1.6c-0.2-0.5-0.5-1-0.8-1.4l0.1-0.1
			c1.1,0.2,1.8,0.5,2.4,1c0.4,0.3,0.6,0.8,0.6,1.4c0,0.4-0.2,0.8-0.6,0.9C34.1,54.6,33.6,54.5,33.3,54.2L33.3,54.2z M39.5,49.5
			c-0.1-0.4-0.3-0.7-0.5-1c-0.2-0.3-0.4-0.6-0.7-0.8l0.1-0.1c0.9-0.1,1.6,0,2,0.3c0.4,0.2,0.6,0.5,0.6,0.9c0,0.3-0.2,0.6-0.5,0.8
			C40.2,49.7,39.8,49.7,39.5,49.5L39.5,49.5z"/>
		<path class="st0" d="M46.4,60.4c-0.3,0-0.5-0.1-0.5-0.3c0.1-1.2,0.1-2.4,0.2-3.7v-3.1c-0.4,0.5-0.9,0.9-1.3,1.3l-0.2-0.1
			c0.7-1.5,1.3-3,1.7-4.6c0.1-0.5,0.3-1,0.3-1.6c0.1-0.5,0.1-1,0.2-1.5l2.5,0.8v-0.4l2,0.8h3.4l0.4-0.5c0,0,0.1-0.1,0.2-0.2
			c0.2-0.2,0.3-0.3,0.4-0.3c0.3,0.1,0.6,0.3,0.9,0.6c0.5,0.4,0.7,0.6,0.7,0.7c-0.1,0.2-0.3,0.3-0.5,0.3V50c0,1.2,0.1,2.1,0.1,2.8
			c-0.1,0.1-0.3,0.2-0.5,0.3c-0.4,0.1-0.8,0.2-1.2,0.2h-0.4v-0.5h-1v1.4h1.4l0.4-0.5c0,0,0.1-0.1,0.1-0.2c0.2-0.2,0.3-0.3,0.3-0.3
			c0.3,0.1,0.6,0.3,0.9,0.6c0.5,0.4,0.8,0.6,0.8,0.7c-0.1,0.2-0.3,0.3-0.5,0.3v3.4c0,0.6-0.1,1.1-0.4,1.4c-0.3,0.3-1,0.5-1.9,0.6
			c0-0.6-0.1-1.1-0.3-1.3c-0.3-0.3-0.7-0.5-1.1-0.6v-0.2l1.6,0.1c0.2,0,0.3-0.1,0.3-0.3v-0.3c-0.3,0.1-0.7,0-0.9-0.3
			c0-0.3,0-0.6,0-0.9c-0.8,0.5-1.6,1-2.5,1.5c-0.1,0.2-0.2,0.3-0.4,0.3l-0.8-2.2c0.5,0,1,0,1.3,0v-1.7h-1.4v1.7
			c0,1.2,0.1,2.3,0.1,3.3c-0.1,0.2-0.4,0.4-0.6,0.4c-0.4,0.2-0.7,0.3-1.1,0.3c-0.3,0-0.4-0.1-0.4-0.3c0.1-0.8,0.1-1.6,0.1-2.4v-1.4
			c0-1,0-1.9-0.2-2.9l2.2,0.9H52v-1.4h-0.9v0.4c0,0.1-0.1,0.2-0.4,0.3c-0.4,0.1-0.7,0.2-1.1,0.2c-0.3,0-0.5-0.1-0.5-0.3
			c0-0.1,0-0.1,0-0.2c0.1-1,0.1-2.1,0.1-3.1v-1.8c-0.1,0-0.1,0-0.2,0c-0.4,1-0.8,2.1-1.4,3c0.2,0.1,0.4,0.3,0.6,0.5
			c0,0.1,0,0.2-0.1,0.2L48,52v4.5c0,1.2,0.1,2.3,0.1,3.3c-0.2,0.2-0.4,0.3-0.6,0.4C47.1,60.3,46.8,60.4,46.4,60.4z M51.1,50.1H52
			v-1.7h-0.9V50.1z M51.1,52.3H52v-1.8h-0.9V52.3z M53.8,50.1h1v-1.7h-1L53.8,50.1z M53.8,52.3h1v-1.8h-1L53.8,52.3z M53.8,56.2h0.5
			c-0.1-0.4-0.2-0.7-0.3-1.1l0.2-0.1c0.4,0.2,0.8,0.5,1.1,0.8v-1.2h-1.5V56.2z"/>
		<path class="st0" d="M59.7,58l-1-2.2c0.5-0.2,1-0.3,1.5-0.5v-4h-0.4c-0.2,0-0.4,0.1-0.6,0.2l-0.4-0.7c0.3,0.1,0.6,0.1,1,0.1h0.4
			V50c0-1,0-1.9-0.2-2.9c0.8,0.2,1.4,0.3,1.8,0.4c0.2,0,0.4,0.1,0.6,0.2c0,0,0,0.1-0.1,0.2L62,48.1v2.4l0.2-0.4l0.1-0.2
			c0.1-0.2,0.2-0.3,0.2-0.3c0.1,0,0.3,0.2,0.7,0.7c0.2,0.2,0.4,0.5,0.5,0.9c0,0.2-0.2,0.2-0.4,0.2H62v3.3c0.3-0.1,0.9-0.3,1.6-0.6
			l0,0.1c-1.1,1.2-2.4,2.3-3.6,3.4C60,57.7,59.9,57.9,59.7,58z M64.1,60.4L64,60.2c1.7-1.2,2.9-2.9,3.5-5.2h-0.1
			c-0.9,1.8-2.6,3.2-4.9,4.3l-0.1-0.2c1.4-1,2.6-2.4,3.3-4.1h-0.1c-1.1,1.2-2.5,2.2-4,2.8l-0.1-0.2c1.3-1.1,2.3-2.5,2.9-4.1h-0.5
			c-0.3,0-0.6,0.1-0.9,0.2L62.6,53c0.5,0.1,1.1,0.1,1.9,0.1h4.7l0.7-0.9c-0.3,0.1-0.7,0.2-1,0.2h-0.3v-0.6h-2.6v0.3
			c0,0.1-0.2,0.2-0.5,0.4c-0.3,0.2-0.7,0.2-1.1,0.2c-0.2,0-0.3-0.1-0.3-0.3c0-0.4,0.1-0.9,0.1-1.6v-0.9c0-1,0-1.9-0.2-2.9l2.1,0.8
			h2.3l0.4-0.5c0-0.1,0.1-0.1,0.1-0.2c0.2-0.2,0.3-0.3,0.4-0.3c0.3,0.1,0.6,0.3,0.9,0.6c0.5,0.4,0.8,0.6,0.8,0.8
			c-0.1,0.2-0.3,0.3-0.5,0.3v3.3c0,0-0.1,0.1-0.2,0.2l0.1,0c0.7,0.6,1.2,1,1.5,1.3c0,0.2-0.2,0.2-0.4,0.2h-4.9
			c-0.2,0.4-0.4,0.7-0.6,1.1h3.4l0.4-0.5l0.1-0.2c0.2-0.2,0.3-0.3,0.4-0.3s0.4,0.2,0.8,0.6c0.5,0.4,0.7,0.7,0.7,0.8
			c-0.2,0.1-0.4,0.2-0.6,0.3c-0.1,1.1-0.2,2.1-0.5,3.1c-0.1,0.6-0.4,1.1-0.9,1.5c-0.5,0.3-1.1,0.5-1.8,0.5c0-0.6-0.1-1-0.2-1.2
			c-0.2-0.3-0.5-0.5-0.8-0.6C66.1,59.3,65.1,60,64.1,60.4z M65.9,49.6h2.6v-1.4h-2.6V49.6z M65.9,51.5h2.6V50h-2.6V51.5z M68.2,58.4
			c0.2,0,0.3,0,0.4-0.1c0.3-0.3,0.6-1.4,0.7-3.3h-0.1c-0.4,1.3-1.1,2.4-2.1,3.4c0.1,0,0.3,0,0.4,0L68.2,58.4z"/>
		<path class="st0" d="M73.9,60.4l-1-2.1l1-0.4l0.4-0.2v-3.1h-0.5c-0.3,0-0.5,0.1-0.7,0.2l-0.3-0.7c0.3,0.1,0.6,0.1,0.9,0.1h0.4
			L75,53l1.9,1.5c-0.2,0.2-0.4,0.3-0.7,0.3v2.4c0.4,0.4,1,0.7,1.6,0.9c0.9,0.1,1.9,0.2,2.8,0.2c2.4,0,4.2,0,5.3-0.1v0.2
			c-0.7,0.2-1.1,0.7-1.2,1.7h-4.1c-1.4,0-2.3-0.2-3-0.5c-0.6-0.3-1.2-1-1.6-2.1c-0.6,0.9-1.2,1.7-1.9,2.5
			C74.2,60.2,74.1,60.3,73.9,60.4z M74.7,52.3c-0.2-0.4-0.4-0.8-0.7-1.1c-0.3-0.3-0.6-0.7-0.9-0.9l0.1-0.1c0.8-0.1,1.5,0,2.2,0.3
			c0.4,0.2,0.7,0.5,0.7,0.9c0.1,0.3-0.1,0.7-0.4,0.9C75.4,52.5,75,52.5,74.7,52.3z M75.2,49.4c-0.2-0.4-0.4-0.8-0.7-1.1
			c-0.2-0.3-0.5-0.7-0.8-0.9l0.1-0.1c0.7-0.1,1.5,0,2.2,0.3c0.4,0.2,0.6,0.5,0.7,0.9c0.1,0.3-0.1,0.7-0.4,0.9
			C75.9,49.6,75.5,49.6,75.2,49.4L75.2,49.4z M77.9,58.1c-0.3,0-0.5-0.1-0.5-0.3c0.1-1.2,0.1-2.4,0.2-3.7v-2.4
			c-0.4,0.4-0.9,0.7-1.3,1l-0.1-0.1c0.5-0.9,1-1.8,1.3-2.7c0.2-0.5,0.4-1,0.5-1.5c0.1-0.5,0.2-1,0.2-1.5c0.9,0.3,1.5,0.6,1.9,0.7
			c0.2,0.1,0.4,0.2,0.6,0.4c0,0.1,0,0.1-0.1,0.1l-0.3,0.1c-0.3,0.6-0.6,1.1-1,1.6l0.4,0.1h1.2c0.2-1,0.2-1.9,0.2-2.9
			c0.9,0.3,1.6,0.5,2,0.7c0.2,0.1,0.5,0.2,0.7,0.3c0,0.1,0,0.1-0.1,0.1l-0.3,0.1l-0.3,0.2c-0.8,0.6-1.4,1.1-1.9,1.4h1.7l0.4-0.6
			l0.1-0.2c0.2-0.3,0.4-0.5,0.4-0.5c0.3,0.2,0.6,0.4,0.9,0.6c0.5,0.4,0.7,0.7,0.7,0.8c0,0.2-0.2,0.2-0.4,0.2h-2.7v1.8h0.3l0.4-0.6
			l0.1-0.2c0.2-0.3,0.3-0.4,0.4-0.4s0.4,0.2,0.9,0.6s0.7,0.6,0.7,0.7c0,0.2-0.2,0.2-0.4,0.2h-2.4v1.8h0.3l0.4-0.6l0.1-0.2
			c0.2-0.3,0.3-0.4,0.4-0.4s0.4,0.2,0.9,0.6c0.5,0.4,0.7,0.6,0.7,0.7c0,0.1-0.2,0.2-0.4,0.2h-2.4v1.9h0.6l0.4-0.6
			c0-0.1,0.1-0.1,0.2-0.2c0.2-0.3,0.3-0.4,0.4-0.4s0.4,0.2,0.9,0.6c0.5,0.4,0.8,0.7,0.8,0.8c0,0.2-0.2,0.2-0.4,0.2h-6v0.5
			c0,0.1-0.1,0.2-0.4,0.3C78.7,58,78.3,58.1,77.9,58.1z M79.4,52.1h1.2v-1.8h-1.2V52.1z M79.4,54.4h1.2v-1.8h-1.2V54.4z M79.4,56.6
			h1.2v-1.9h-1.2V56.6z"/>
		<path class="st0" d="M89.3,60.4c-0.3,0-0.5-0.1-0.5-0.3c0.1-1.2,0.1-2.4,0.2-3.7v-2.3c-0.6,0.5-1.3,0.9-2,1.3l-0.1-0.1
			c0.7-0.9,1.4-1.8,2-2.8c0.5-0.9,1-1.8,1.4-2.7l2.2,1.4c-0.1,0.2-0.3,0.2-0.6,0.2c-0.4,0.4-0.8,0.9-1.2,1.3l0.6,0.2
			c0,0.1-0.2,0.2-0.4,0.3v3.3c0,1.2,0.1,2.3,0.1,3.3c-0.2,0.2-0.4,0.3-0.6,0.4C90.1,60.3,89.7,60.4,89.3,60.4z M87.3,51.2l-0.1-0.1
			c0.5-0.5,1-1.1,1.5-1.8c0.6-0.7,1-1.6,1.3-2.5l1.2,0.8c0.3,0.2,0.6,0.4,0.9,0.6c0.1,0.1,0.1,0.2-0.1,0.2l-0.3,0
			c-0.6,0.5-1.2,1-1.9,1.4C89,50.5,88.2,50.9,87.3,51.2z M95,60.3c0-0.7-0.2-1.2-0.5-1.4c-0.5-0.4-1-0.6-1.6-0.7V58
			c0.8,0,1.6,0.1,2.5,0.1c0.2,0,0.3-0.1,0.3-0.3v-5.7h-1.4c-0.7,0-1.4,0.1-2.1,0.2l-0.4-0.7c0.5,0.1,1.1,0.1,1.9,0.1h3.5l0.5-0.7
			c0-0.1,0.1-0.1,0.2-0.2c0.2-0.3,0.3-0.4,0.4-0.4s0.4,0.2,0.9,0.7c0.5,0.4,0.8,0.7,0.8,0.8c0,0.1-0.2,0.2-0.4,0.2h-1.8v5.8
			c0,0.8-0.2,1.3-0.5,1.6C96.8,59.9,96.1,60.2,95,60.3L95,60.3z M93,49.1l-0.4-0.7c0.5,0.1,1.1,0.1,1.9,0.1H97l0.4-0.6
			c0,0,0.1-0.1,0.1-0.2c0.2-0.3,0.3-0.4,0.4-0.4c0.1,0,0.4,0.2,0.9,0.6s0.7,0.7,0.7,0.8c0,0.2-0.2,0.2-0.4,0.2h-4
			C94.4,48.9,93.7,48.9,93,49.1z"/>
		<path class="st0" d="M112.7,60.4c-0.7-0.2-1.3-0.6-1.9-1c-0.6-0.4-1-0.9-1.4-1.4c-1.4,0.7-2.9,1.4-4.4,2c-0.1,0.2-0.2,0.3-0.4,0.3
			l-0.9-2.1c0.5,0,1.1-0.1,1.8-0.1v-2.6h-1.1c-0.4,1.9-1.5,3.6-3.2,4.7l-0.1-0.1c0.7-1.3,1.2-2.6,1.4-4.1c0.2-1.4,0.3-2.9,0.2-4.3
			v-2.3c0-0.8,0-1.6-0.2-2.4l2.4,0.9h5.9l0.4-0.5l0.1-0.2c0.2-0.2,0.3-0.3,0.4-0.3c0.4,0.2,0.7,0.4,1,0.6c0.5,0.4,0.8,0.7,0.8,0.8
			c-0.1,0.2-0.3,0.3-0.5,0.3v2.2c0,0.1-0.2,0.1-0.6,0.2c-0.3,0.1-0.7,0.1-1,0.2c0,0.2-0.1,0.3-0.4,0.3v1.3h0.5l0.4-0.6
			c0-0.1,0.1-0.1,0.1-0.2c0.2-0.3,0.3-0.4,0.4-0.4c0.1,0,0.4,0.2,0.8,0.6c0.4,0.4,0.7,0.6,0.7,0.8c0,0.1-0.2,0.2-0.4,0.2h-2.5v1.9
			h0.6l0.4-0.6c0-0.1,0.1-0.1,0.1-0.2c0.2-0.3,0.3-0.4,0.4-0.4s0.4,0.2,0.8,0.6s0.6,0.6,0.6,0.8c0,0.2-0.2,0.2-0.4,0.2h-1.9
			c0.4,0.3,0.8,0.7,1.2,1c0.1,0.1,0.1,0.2,0,0.2h-0.3c-0.8,0.2-1.7,0.3-2.5,0.4c0.9,0.5,2.2,0.9,3.9,1.1v0.2
			C113.4,58.8,112.9,59.4,112.7,60.4z M104.5,55.2h1.5v-1.9h-1.3C104.7,53.9,104.6,54.6,104.5,55.2z M104.8,52.9h1.2
			c0-0.6,0-1.3-0.1-1.9c0.7,0.1,1.4,0.3,2,0.5c0.2,0.1,0.2,0.2,0.1,0.2l-0.2,0.1v1h1.4c0-0.6,0-1.2-0.1-1.9l1.9,0.2v-0.5h-6.3v1.1
			C104.8,52.3,104.8,52.6,104.8,52.9L104.8,52.9z M104.8,50.4h6.3v-2h-6.3V50.4z M107.4,58l0.4,0c0.7-0.1,1.2-0.1,1.5-0.1
			c-0.4-0.7-0.7-1.4-0.9-2.2h-1V58z M107.8,55.2h1.4v-1.9h-1.4V55.2z M109.8,57c0.5-0.4,1-0.9,1.5-1.4h-2.7
			C108.9,56.2,109.3,56.7,109.8,57z"/>
		<path class="st0" d="M120.2,60.4c0-0.7-0.2-1.2-0.4-1.5c-0.1-0.2-0.3-0.3-0.5-0.4c-0.3-0.1-0.6-0.2-0.9-0.3V58
			c0.7,0,1.4,0.1,2.1,0.1c0.2,0,0.3-0.1,0.3-0.3v-5.5h-3.1c-0.7,0-1.4,0.1-2.1,0.2l-0.4-0.7c0.5,0.1,1.1,0.1,1.9,0.1h8l1.1-1.5
			c0.7,0.5,1.3,1.1,2,1.6c0,0.2-0.2,0.2-0.4,0.2h-4.9v5.6c0,0.8-0.2,1.3-0.5,1.7C122,60,121.3,60.3,120.2,60.4z M115.3,59l-0.1-0.1
			c0.7-0.9,1.2-1.8,1.7-2.8c0.4-0.9,0.6-1.8,0.7-2.7l1.3,0.7c0.4,0.1,0.7,0.3,1,0.5c0.1,0.1,0.1,0.2-0.1,0.2l-0.3,0.1
			c-0.5,0.8-1.1,1.6-1.7,2.2C117.1,57.8,116.3,58.5,115.3,59L115.3,59z M117.1,49.3l-0.4-0.7c0.5,0.1,1.1,0.1,1.9,0.1h5.2l1.1-1.4
			c0.2,0.2,0.5,0.4,0.7,0.5c0.5,0.4,0.9,0.8,1.2,1c0,0.2-0.2,0.2-0.4,0.2h-7.2C118.6,49.1,117.8,49.1,117.1,49.3L117.1,49.3z
			 M126.1,58.3c-0.2-0.8-0.5-1.6-0.9-2.3c-0.4-0.7-0.9-1.4-1.4-2.1l0.1-0.1c1.1,0.3,2.2,0.8,3.1,1.6c0.5,0.5,0.9,1.1,1,1.8
			c0.1,0.5-0.1,1-0.5,1.3C127,58.8,126.6,58.7,126.1,58.3L126.1,58.3z"/>
		<path class="st0" d="M135.1,60.4c-0.3,0-0.4-0.1-0.4-0.3c0-0.4,0.1-1,0.1-1.6v-1l-1.7,0.2c0.5,0.3,0.9,0.7,1.4,1.1
			c0.1,0.1,0.1,0.2,0,0.2h-0.3c-0.7,0.3-1.4,0.6-2.1,0.7c-0.8,0.2-1.7,0.4-2.5,0.4l-0.1-0.2c0.6-0.3,1.3-0.7,1.9-1.1
			c0.5-0.4,1-0.8,1.5-1.2l-1.9,0.2c-0.1,0.2-0.2,0.3-0.4,0.3l-0.8-1.8c0.9,0,2.1,0,3.7,0c0,0,0,0-0.1,0h-0.1c-0.3-0.4-0.6-0.7-0.9-1
			c-0.3-0.3-0.7-0.6-1.1-0.8l0.1-0.1c1-0.2,1.8-0.2,2.4,0.1c0.1-0.2,0.2-0.4,0.2-0.6c-0.3,0-0.6,0.1-0.8,0.1c0-0.3,0-0.5-0.2-0.7
			c-0.2-0.2-0.5-0.4-0.8-0.4v-0.2c0.4,0,0.8,0.1,1.1,0.1c0.1,0,0.3,0,0.4-0.1c0-0.1,0.1-0.1,0.1-0.2h-2.3c0,0.2-0.1,0.4-0.1,0.6
			c-0.5,0.2-1,0.2-1.5,0c0-0.1,0-0.2,0.1-0.3c0.2-0.8,0.3-1.4,0.4-1.8H130c-0.2,0-0.3,0.1-0.4,0.2l-0.4-0.7c0.2,0.1,0.5,0.1,0.8,0.1
			h0.4c0.1-0.4,0.1-0.8,0.2-1.2c-0.3,0.2-0.7,0.4-1,0.5l-0.1-0.1c0.1-0.1,0.2-0.2,0.2-0.4c0.5-0.9,0.9-1.8,1-2.8
			c0.7,0.2,1.3,0.5,2,0.8c0.2,0.1,0.2,0.2,0,0.3l-0.3,0.1c-0.1,0.1-0.2,0.2-0.2,0.3h2.2l0.4-0.5c0,0,0.1-0.1,0.1-0.2
			c0.2-0.2,0.3-0.4,0.3-0.4c0.1,0,0.3,0.2,0.8,0.5c0.4,0.4,0.6,0.6,0.6,0.7c0,0.2-0.1,0.2-0.4,0.2H135c0.4,0.3,0.7,0.6,1,0.9
			c0.1,0.1,0.1,0.2-0.1,0.3l-0.3,0.1c0,0.3,0,0.5,0,0.7l0.5-0.6l0.3,0.3c0.1-0.2,0.1-0.3,0.2-0.4c0.2-0.5,0.4-1,0.4-1.5
			c0.1-0.5,0.1-0.9,0.2-1.4c0.7,0.2,1.3,0.4,2,0.7c0.2,0.1,0.2,0.2,0,0.3l-0.3,0.1c-0.2,0.3-0.4,0.7-0.6,1h1.7l0.4-0.6
			c0,0,0.1-0.1,0.1-0.2c0.2-0.3,0.3-0.4,0.4-0.4c0.3,0.1,0.6,0.3,0.8,0.6c0.4,0.4,0.7,0.6,0.7,0.7s-0.2,0.2-0.4,0.2h-0.6
			c-0.3,1-0.8,1.9-1.5,2.6c0.8,0.4,1.7,0.6,2.6,0.7l0,0.2c-0.6,0.3-0.9,0.8-1,1.7c-1-0.3-1.9-0.9-2.6-1.7c-0.9,0.6-1.9,1-3,1.3
			l0.6,0.4c-0.1,0.1-0.2,0.1-0.4,0.1c-0.5,0.3-1.1,0.5-1.7,0.7c0.2,0.2,0.2,0.6,0.1,0.8c-0.1,0.3-0.4,0.5-0.6,0.5l0.7,0
			c0.2-0.2,0.5-0.4,0.9-0.7c0.7-0.6,1.3-1.3,1.8-2.1c0.6,0.3,1.1,0.7,1.7,1.1c0.2,0.2,0.2,0.2,0,0.3l-0.3,0c-0.9,0.6-1.8,1-2.8,1.4
			c0.3,0,0.8,0,1.5,0l1.8,0c-0.3-0.3-0.6-0.5-0.9-0.7l0.1-0.1c0.8-0.1,1.6,0,2.4,0.3c0.4,0.2,0.8,0.5,0.9,1c0.1,0.3,0,0.7-0.2,0.9
			c-0.3,0.3-0.7,0.3-1,0.2c-0.2-0.4-0.5-0.8-0.8-1.1c-1,0.2-1.9,0.3-2.8,0.4v1c0,0.2,0,0.3,0,0.6c0,0.5,0,0.9,0.1,1.2
			c0,0.1-0.2,0.2-0.5,0.3C135.9,60.4,135.5,60.4,135.1,60.4z M132.4,49.2h1.8l0.6-0.6h-2.9c-0.2,0.1-0.3,0.2-0.3,0.3L132.4,49.2z
			 M131.6,52.2h1c0,0-0.1-0.1-0.1-0.1c0,0,0,0,0-0.1c0-0.3-0.2-0.6-0.5-0.7l0.1-0.1c0.8-0.1,1.3,0,1.5,0.4c0.1,0.1,0.1,0.2,0,0.4
			c0,0.1-0.1,0.2-0.2,0.3h0.5c0.1-0.4,0.1-0.7,0.2-1.1h-2.4C131.7,51.6,131.6,52,131.6,52.2L131.6,52.2z M131.8,50.8h1
			c-0.1-0.1-0.1-0.1-0.2-0.2c0-0.3-0.2-0.5-0.4-0.7l0.1-0.1c0.8-0.2,1.2-0.1,1.5,0.3c0.1,0.1,0.1,0.3,0,0.4
			c-0.1,0.1-0.2,0.3-0.3,0.4h0.7c0-0.3,0.1-0.6,0.1-1.2H132c0,0.1,0,0.2-0.1,0.4C131.9,50.3,131.9,50.6,131.8,50.8L131.8,50.8z
			 M135.8,54l-0.1-0.2c1-0.5,1.8-1.2,2.5-2c-0.3-0.7-0.5-1.4-0.7-2.1c-0.3,0.2-0.6,0.4-0.9,0.6l0.3,0.3c0.1,0.1,0.3,0.2,0.3,0.3
			c0,0.2-0.2,0.2-0.4,0.2h-1.3c0,0.3-0.1,0.6-0.1,0.9l0.2-0.3l0.1-0.1c0.1-0.2,0.2-0.3,0.3-0.3c0.1,0,0.3,0.1,0.6,0.4
			c0.3,0.3,0.5,0.5,0.5,0.6c0,0.2-0.1,0.2-0.3,0.2h-1.4c0,0.3-0.2,0.6-0.3,0.9L135.8,54z M140.9,60c-0.2,0.3-0.6,0.4-1,0.2
			c-0.3-0.4-0.7-0.7-1.1-1c-0.6-0.4-1.1-0.8-1.8-1l0-0.2c1.2-0.2,2.1-0.2,2.9,0.1c0.5,0.1,0.9,0.5,1.1,0.9
			C141.2,59.3,141.1,59.7,140.9,60L140.9,60z M138.6,51.1c0.3-0.6,0.5-1.2,0.6-1.8h-1.3c-0.1,0.1-0.1,0.1-0.2,0.2l-0.1,0.1
			C137.8,50.2,138.2,50.7,138.6,51.1L138.6,51.1z"/>
		<path class="st0" d="M149.2,60.4c-0.1,0-0.3,0-0.4-0.1c-0.1,0-0.1-0.1-0.1-0.2c0.1-1.2,0.1-2.4,0.2-3.7v-4.8l-0.1,0
			c-0.2,2-0.6,3.7-1.2,4.9c-0.8,1.6-2.1,2.9-3.7,3.8l-0.1-0.2c1.3-1.1,2.2-2.7,2.8-4.8c-0.4,0.1-0.8,0-1-0.3c0-0.5-0.1-0.9-0.3-1.4
			c-0.4,0.6-0.9,1.1-1.4,1.6l-0.2-0.1c0.9-1.6,1.4-3.8,1.8-6.5h-0.5c-0.3,0-0.6,0.1-0.8,0.2l-0.4-0.7c0.5,0.1,1.1,0.1,1.9,0.1h1.6
			l0.4-0.6l0.1-0.2c0.2-0.3,0.4-0.4,0.4-0.4c0.3,0.1,0.6,0.4,0.9,0.6c0.5,0.4,0.8,0.6,0.8,0.8c0,0.1-0.2,0.2-0.4,0.2h-2.2
			c-0.1,0.8-0.4,1.6-0.6,2.3h0.4c0.3-0.3,0.6-0.7,0.8-1.1l1.1,1.1v-0.6c0.6,0.1,1.2,0.3,1.8,0.4c0.2,0.1,0.2,0.2,0.1,0.2l-0.2,0.1
			v7.6h3.5l0.4-0.6c0-0.1,0.1-0.1,0.2-0.2c0.2-0.3,0.3-0.4,0.4-0.4c0.1,0,0.4,0.2,0.9,0.6c0.5,0.4,0.7,0.7,0.7,0.8
			c0,0.2-0.2,0.2-0.4,0.2h-5.7v0.6c0,0.1-0.2,0.2-0.5,0.3C149.8,60.3,149.5,60.4,149.2,60.4z M146.8,53.6c0.1-0.7,0.2-1.5,0.2-2.2
			h-0.6c-0.2,0.6-0.5,1.1-0.8,1.6C146,53,146.4,53.3,146.8,53.6L146.8,53.6z M151.4,58c-0.3,0-0.4-0.1-0.4-0.3
			c0.1-0.9,0.1-2,0.1-3.1v-1.7c0-1,0-1.9-0.2-2.9l1,0.4c0-0.3,0-0.7,0-1.1H151c-0.6,0-1.2,0.1-1.8,0.2l-0.4-0.7
			c0.5,0.1,1.1,0.1,1.9,0.1h1.2c0-0.7,0-1.4-0.1-2.1c0.8,0.1,1.4,0.1,1.8,0.2c0.2,0,0.4,0.1,0.6,0.2c0,0,0,0.1-0.1,0.2l-0.3,0.2
			c-0.1,0.4-0.1,0.8-0.2,1.3h0.4l0.4-0.6c0,0,0.1-0.1,0.2-0.2c0.2-0.2,0.3-0.4,0.3-0.4c0.3,0.1,0.6,0.3,0.8,0.6
			c0.5,0.4,0.7,0.6,0.7,0.7c0,0.2-0.2,0.2-0.4,0.2h-2.6c0,0.3-0.1,0.7-0.2,1.3c0,0.1,0,0.1,0,0.2h0.7l0.4-0.4c0,0,0.1-0.1,0.1-0.1
			c0.2-0.2,0.3-0.3,0.4-0.3c0.3,0.1,0.6,0.3,0.8,0.6c0.5,0.4,0.7,0.6,0.7,0.7c-0.1,0.1-0.3,0.2-0.5,0.3v2.4c0,1.2,0.1,2.3,0.1,3.3
			c-0.2,0.2-0.4,0.3-0.6,0.3c-0.3,0.1-0.6,0.2-1,0.2h-0.3V57h-1.3v0.5c0,0.1-0.1,0.2-0.4,0.4C152,58,151.7,58,151.4,58L151.4,58z
			 M152.8,52.7h1.3v-1.5h-1.3V52.7z M152.8,54.6h1.3v-1.5h-1.3V54.6z M152.8,56.6h1.3V55h-1.3V56.6z"/>
		<path class="st0" d="M159.9,60.4c-0.3,0-0.5-0.1-0.5-0.3c0.1-1.2,0.1-2.4,0.2-3.7v-2.3c-0.6,0.5-1.3,0.9-2,1.3l-0.1-0.1
			c0.7-0.9,1.4-1.8,2-2.8c0.5-0.9,1-1.8,1.4-2.7l2.2,1.4c-0.1,0.2-0.3,0.2-0.6,0.2c-0.4,0.4-0.8,0.9-1.2,1.3l0.6,0.2
			c0,0.1-0.2,0.2-0.4,0.3v3.3c0,1.2,0.1,2.3,0.1,3.3c-0.2,0.2-0.4,0.3-0.6,0.4C160.7,60.3,160.3,60.4,159.9,60.4z M157.9,51.2
			l-0.1-0.1c0.5-0.5,1-1.1,1.5-1.8c0.6-0.7,1-1.6,1.3-2.5l1.2,0.8c0.3,0.2,0.6,0.4,0.9,0.6c0.1,0.1,0.1,0.2-0.1,0.2l-0.3,0
			c-0.6,0.5-1.2,1-1.9,1.4C159.6,50.5,158.8,50.9,157.9,51.2z M165.6,60.3c0-0.7-0.2-1.2-0.5-1.4c-0.5-0.4-1-0.6-1.6-0.7V58
			c0.8,0,1.6,0.1,2.5,0.1c0.2,0,0.3-0.1,0.3-0.3v-5.7h-1.4c-0.7,0-1.4,0.1-2.1,0.2l-0.4-0.7c0.5,0.1,1.1,0.1,1.9,0.1h3.5l0.5-0.7
			c0-0.1,0.1-0.1,0.2-0.2c0.2-0.3,0.3-0.4,0.4-0.4c0.1,0,0.4,0.2,0.9,0.7s0.8,0.7,0.8,0.8c0,0.1-0.2,0.2-0.4,0.2h-1.8v5.8
			c0,0.8-0.2,1.3-0.5,1.6C167.4,59.9,166.7,60.2,165.6,60.3L165.6,60.3z M163.6,49.1l-0.4-0.7c0.5,0.1,1.1,0.1,1.9,0.1h2.5l0.4-0.6
			c0,0,0.1-0.1,0.1-0.2c0.2-0.3,0.3-0.4,0.4-0.4s0.4,0.2,0.9,0.6s0.7,0.7,0.7,0.8c0,0.2-0.2,0.2-0.4,0.2h-4
			C165,48.9,164.3,48.9,163.6,49.1z"/>
		<path class="st0" d="M181.2,60.4c0-0.4,0-0.8-0.2-1.2c-0.2-0.3-0.6-0.5-0.9-0.6v-0.2c0.5,0,0.9,0.1,1.2,0.1c0.1,0,0.3,0,0.4-0.1
			c0.2-0.2,0.4-1.1,0.5-2.6h-6.8c-0.6,1.7-1.8,3.2-3.4,4.1l-0.1-0.1c0.9-1.2,1.5-2.5,1.7-4c0.3-1.2,0.4-2.5,0.4-3.8v-1.2
			c-0.6,0.6-1.4,1.1-2.2,1.4l-0.1-0.1c0.4-0.5,0.8-1.1,1.1-1.6c0.2-0.5,0.4-1,0.5-1.5c0.1-0.5,0.2-1,0.2-1.5l2.1,0.8
			c1-0.2,2.1-0.4,3.2-0.7c0.9-0.2,1.7-0.5,2.6-0.8l1.7,1.6c-0.2,0.2-0.5,0.2-0.9,0c-0.5,0.1-1.1,0.1-1.8,0.2c0.9,0,1.7,0.2,2.5,0.7
			c0.4,0.3,0.7,0.7,0.8,1.2c0.1,0.4-0.1,0.8-0.4,1c-0.4,0.2-0.8,0.2-1.2,0c-0.2-0.5-0.5-1.1-0.8-1.5c-0.3-0.5-0.7-0.9-1.1-1.3
			l0.1-0.1c-0.7,0-1.5,0.1-2.5,0.1c0.5,0.1,0.9,0.4,1.2,0.8c0.2,0.3,0.2,0.6,0,0.9c-0.2,0.3-0.4,0.4-0.7,0.4c-0.4,0-0.7-0.1-1-0.4
			c0.1-0.6,0-1.2-0.2-1.7h-0.6c-0.3,0-0.5,0-0.6,0c-0.1,0-0.2,0-0.2,0c-0.3,0.6-0.7,1.1-1.1,1.6l1.8,0.6h2.9l0.3-0.4l0.1-0.1
			c0.1-0.2,0.2-0.3,0.3-0.3c0.3,0.1,0.6,0.3,0.9,0.5c0.5,0.4,0.7,0.6,0.7,0.7c-0.1,0.1-0.3,0.2-0.5,0.2l-0.1,1.3l0.2-0.3
			c0,0,0-0.1,0.1-0.1c0.1-0.2,0.2-0.2,0.3-0.2c0.3,0.1,0.6,0.3,0.9,0.5c0.5,0.4,0.7,0.6,0.7,0.7c-0.1,0.1-0.3,0.2-0.5,0.2l-0.2,1.4
			l0.3-0.3l0.1-0.1c0.1-0.1,0.2-0.2,0.3-0.2c0.3,0.1,0.6,0.3,0.8,0.6c0.5,0.4,0.7,0.6,0.7,0.8c-0.1,0.1-0.3,0.2-0.5,0.3
			c0,0.9-0.2,1.7-0.4,2.6c-0.1,0.5-0.4,0.9-0.8,1.2C182.4,60.2,181.8,60.4,181.2,60.4z M174.5,60c-0.3-0.1-0.5-0.3-0.6-0.6
			c-0.1-0.2-0.1-0.5,0.1-0.8c0.1-0.2,0.3-0.4,0.5-0.5c0.3-0.2,0.5-0.4,0.7-0.6c0.2-0.3,0.3-0.6,0.3-1h0.2c0.3,0.7,0.4,1.4,0.3,2.1
			c0,0.5-0.3,0.9-0.7,1.2C175.1,60,174.8,60,174.5,60L174.5,60z M175.5,55.5h5.1l0.2-1.9h-4.9C175.8,54.2,175.7,54.8,175.5,55.5
			L175.5,55.5z M175.9,53.2h3.2l0.2-1.7h-3.3v0.6C175.9,52.4,175.9,52.8,175.9,53.2L175.9,53.2z M176.5,59.2
			c0.2-0.8,0.2-1.7,0.1-2.6l0.2,0c0.5,0.3,0.9,0.8,1.2,1.3c0.2,0.4,0.2,0.8,0,1.1c-0.1,0.3-0.3,0.5-0.6,0.6
			C177,59.7,176.7,59.5,176.5,59.2L176.5,59.2z M178.6,58.9c0-0.8-0.2-1.6-0.6-2.3l0.1-0.1c0.6,0.2,1.1,0.5,1.6,1
			c0.3,0.3,0.4,0.7,0.3,1c0,0.3-0.2,0.5-0.5,0.6C179.1,59.2,178.8,59.1,178.6,58.9L178.6,58.9z M180.4,58c-0.1-0.3-0.2-0.6-0.4-0.9
			c-0.2-0.3-0.4-0.5-0.7-0.8l0.1-0.1c0.6-0.1,1.2,0.1,1.7,0.3c0.3,0.2,0.5,0.5,0.5,0.8c0,0.3-0.1,0.5-0.4,0.7
			C181,58.2,180.7,58.2,180.4,58L180.4,58z"/>
		<path class="st0" d="M87.5,14.8c-0.4,0-0.6-0.1-0.6-0.3c0.1-1.2,0.1-2.4,0.2-3.7V3.4h-2.7c-0.7,0-1.4,0.1-2.1,0.2l-0.4-0.7
			C82.4,3,83,3,83.8,3h7.9l1.2-1.5c0.7,0.6,1.4,1.1,2,1.7c0,0.2-0.2,0.2-0.4,0.2h-5.3v2.2c1.3,0.1,2.3,0.3,3,0.8
			c0.5,0.3,0.9,0.8,1.1,1.4c0.2,0.6-0.1,1.2-0.7,1.4c-0.3,0.1-0.6,0.1-0.9-0.1c-0.6-1.2-1.5-2.2-2.5-3.1v4.8c0,1.2,0.1,2.3,0.1,3.3
			c-0.1,0.2-0.3,0.3-0.6,0.4C88.3,14.7,87.9,14.8,87.5,14.8z"/>
		<path class="st0" d="M100.8,14.4c-1.2,0-2.1-0.2-2.7-0.6c-0.5-0.4-0.8-1.2-0.8-2.2V4.8c0-1,0-1.9-0.2-2.9l2.4,0.9h6l0.9-1.1
			l1.9,1.5c-0.2,0.2-0.4,0.3-0.6,0.3v1.5c0,1.3,0.1,2.3,0.1,3c-0.2,0.2-0.4,0.3-0.7,0.3c-0.3,0.1-0.7,0.2-1.1,0.2
			c-0.3,0-0.4-0.1-0.4-0.3c0,0,0-0.1,0-0.2c0-0.1,0-0.1,0-0.2V7.6h-6.3v4c0,0.2,0.1,0.5,0.3,0.6c0.4,0.1,0.8,0.2,1.1,0.2h4.3
			c0.3,0,0.7,0,1-0.1c0.2,0,0.4-0.2,0.6-0.3c0.4-0.7,0.8-1.4,1.1-2.2h0.1V12c0.3,0.1,0.6,0.2,0.9,0.4c0.2,0.1,0.2,0.3,0.2,0.5
			c0,0.5-0.3,0.9-0.7,1.1c-0.6,0.3-1.6,0.4-3.1,0.4L100.8,14.4z M99.3,7.2h2.2v-4h-2.2V7.2z M103.4,7.2h2.1v-4h-2.1V7.2z"/>
		<line class="st1" x1="72.2" y1="7.9" x2="2.6" y2="7.9"/>
	</g>
</g>
</svg>
